<?xml version="1.0" encoding="utf-8"?>
<!-- Generator: Adobe Illustrator 21.0.0, SVG Export Plug-In . SVG Version: 6.00 Build 0)  -->
<!DOCTYPE svg PUBLIC "-//W3C//DTD SVG 1.1//EN" "http://www.w3.org/Graphics/SVG/1.1/DTD/svg11.dtd">
<svg version="1.1" xmlns="http://www.w3.org/2000/svg" xmlns:xlink="http://www.w3.org/1999/xlink" x="0px" y="0px"
	 viewBox="0 0 1500 800" style="enable-background:new 0 0 1500 800;" xml:space="preserve">
<style type="text/css">
	.st0{fill:#FFFFFF;}
	.st1{fill:#D7D6D6;}
	.st2{fill:#F06299;}
	.st3{fill:#DC3F75;}
	.st4{fill:#F78D26;}
	.st5{fill:#DB7046;}
	.st6{fill:#6453A3;}
	.st7{fill:#3C2F8E;}
	.st8{fill:#B5DEC9;}
	.st9{fill:#88CDA8;}
	.st10{fill:#9BD3B4;}
	.st11{fill:#93D0AD;}
	.st12{fill:#9DD5B8;}
	.st13{fill:#C7E5D1;}
	.st14{fill:#ADDABD;}
	.st15{fill:#83C8A4;}
	.st16{fill:#8DCEA7;}
	.st17{fill:#81CBA8;}
	.st18{fill:#A7D8BC;}
</style>
<g id="Layer_2">
	<rect x="-9.5" y="-9" class="st0" width="1517.5" height="820.8"/>
</g>
<g id="Layer_1">
	<g>
		<g>
			<g>
				<g>
					<circle class="st1" cx="225.7" cy="294.4" r="9.8"/>
				</g>
				<g>
					<circle class="st1" cx="225.7" cy="369.4" r="9.8"/>
				</g>
				<g>
					<circle class="st1" cx="290.6" cy="406.8" r="9.8"/>
				</g>
				<g>
					<circle class="st1" cx="290.6" cy="256.9" r="9.8"/>
				</g>
				<g>
					<circle class="st1" cx="355.5" cy="294.4" r="9.8"/>
				</g>
				<g>
					<circle class="st1" cx="355.5" cy="369.4" r="9.8"/>
				</g>
				<g>
					<path class="st1" d="M225.7,353c-2.3,0-4.2-1.9-4.2-4.2V315c0-2.3,1.9-4.2,4.2-4.2s4.2,1.9,4.2,4.2v33.8
						C229.9,351.1,228,353,225.7,353z"/>
				</g>
				<g>
					<path class="st1" d="M272.1,400.4c-0.7,0-1.4-0.2-2.1-0.6l-28-16.1c-2-1.2-2.7-3.8-1.6-5.8c1.2-2,3.8-2.7,5.8-1.6l28,16.1
						c2,1.2,2.7,3.8,1.6,5.8C275,399.7,273.6,400.4,272.1,400.4z"/>
				</g>
				<g>
					<path class="st1" d="M309.1,400.4c-1.5,0-2.9-0.8-3.7-2.1c-1.2-2-0.5-4.6,1.6-5.8l28-16.1c2-1.2,4.6-0.5,5.8,1.6
						c1.2,2,0.5,4.6-1.6,5.8l-28,16.1C310.5,400.2,309.8,400.4,309.1,400.4z"/>
				</g>
				<g>
					<path class="st1" d="M355.5,353c-2.3,0-4.2-1.9-4.2-4.2V315c0-2.3,1.9-4.2,4.2-4.2s4.2,1.9,4.2,4.2v33.8
						C359.8,351.1,357.9,353,355.5,353z"/>
				</g>
				<g>
					<path class="st1" d="M337,288c-0.7,0-1.4-0.2-2.1-0.6l-28-16.1c-2-1.2-2.7-3.8-1.6-5.8c1.2-2,3.8-2.7,5.8-1.6l28,16.1
						c2,1.2,2.7,3.8,1.6,5.8C339.9,287.2,338.5,288,337,288z"/>
				</g>
				<g>
					<path class="st1" d="M244.2,288c-1.5,0-2.9-0.8-3.7-2.1c-1.2-2-0.5-4.6,1.6-5.8l28-16.1c2-1.2,4.6-0.5,5.8,1.6
						c1.2,2,0.5,4.6-1.6,5.8l-28,16.1C245.6,287.8,244.9,288,244.2,288z"/>
				</g>
				<g>
					<path class="st2" d="M328.8,366.5h-76.3c-2.3,0-4.2-1.9-4.2-4.2s1.9-4.2,4.2-4.2h76.3c2.3,0,4.2,1.9,4.2,4.2
						S331.1,366.5,328.8,366.5z"/>
				</g>
				<g>
					<path class="st3" d="M328.8,366.5h-38.2c-2.3,0-4.2-1.9-4.2-4.2s1.9-4.2,4.2-4.2h38.2c2.3,0,4.2,1.9,4.2,4.2
						S331.1,366.5,328.8,366.5z"/>
				</g>
				<g>
					<path class="st4" d="M244.8,352.1c-0.7,0-1.4-0.2-2.1-0.6c-2-1.2-2.7-3.8-1.6-5.8l37.6-65.1c1.2-2,3.8-2.7,5.8-1.6
						c2,1.2,2.7,3.8,1.6,5.8L248.5,350C247.7,351.3,246.3,352.1,244.8,352.1z"/>
				</g>
				<g>
					<path class="st5" d="M244.8,352.1c-0.7,0-1.4-0.2-2.1-0.6c-2-1.2-2.7-3.8-1.6-5.8l18.8-32.5c1.2-2,3.8-2.7,5.8-1.6
						c2,1.2,2.7,3.8,1.6,5.8L248.5,350C247.7,351.3,246.3,352.1,244.8,352.1z"/>
				</g>
				<g>
					<path class="st6" d="M336.4,352.2c-1.5,0-2.9-0.8-3.7-2.1l-37.7-65.3c-1.2-2-0.5-4.6,1.6-5.8c2-1.2,4.6-0.5,5.8,1.6l37.7,65.3
						c1.2,2,0.5,4.6-1.6,5.8C337.9,352,337.2,352.2,336.4,352.2z"/>
				</g>
				<g>
					<path class="st7" d="M317.6,319.6c-1.5,0-2.9-0.8-3.7-2.1l-18.8-32.6c-1.2-2-0.5-4.6,1.6-5.8c2-1.2,4.6-0.5,5.8,1.6l18.8,32.6
						c1.2,2,0.5,4.6-1.6,5.8C319,319.4,318.3,319.6,317.6,319.6z"/>
				</g>
			</g>
			<g>
				<path d="M140.8,444.1c6.1,0,9.9,2.9,12.1,6.4l-5.2,2.8c-1.4-2.1-3.9-3.7-6.9-3.7c-5.3,0-9.2,4.1-9.2,9.6s3.9,9.6,9.2,9.6
					c2.7,0,5-1.1,6.3-2.2V463h-7.8v-5.3h13.9v11.2c-3,3.3-7.1,5.5-12.5,5.5c-8.6,0-15.6-6-15.6-15.2
					C125.2,449.9,132.3,444.1,140.8,444.1z"/>
				<path d="M158.1,452.6h5.6v2.9c1.5-1.9,4.1-3.4,6.8-3.4v5.4c-0.4-0.1-0.9-0.1-1.5-0.1c-1.8,0-4.3,1-5.2,2.4v14h-5.6V452.6z"/>
				<path d="M186.6,471.6c-1.4,1.7-3.9,2.7-6.7,2.7c-3.4,0-7.4-2.3-7.4-7c0-5,4-6.8,7.4-6.8c2.8,0,5.3,0.9,6.7,2.6v-2.9
					c0-2.1-1.8-3.6-4.6-3.6c-2.3,0-4.4,0.8-6.2,2.5l-2.1-3.7c2.6-2.3,5.9-3.3,9.3-3.3c4.8,0,9.3,1.9,9.3,8v13.7h-5.6V471.6z
					 M186.6,466.1c-0.9-1.2-2.7-1.8-4.5-1.8c-2.2,0-4,1.2-4,3.2c0,2,1.8,3.1,4,3.1c1.8,0,3.6-0.6,4.5-1.8V466.1z"/>
				<path d="M197.7,481.9v-29.3h5.6v2.7c1.6-2.1,3.9-3.2,6.5-3.2c5.4,0,9.4,4,9.4,11.1s-3.9,11.1-9.4,11.1c-2.5,0-4.8-1.1-6.5-3.2
					v10.8H197.7z M208,457c-1.8,0-3.9,1.1-4.8,2.4v7.5c0.9,1.3,3,2.4,4.8,2.4c3.2,0,5.4-2.5,5.4-6.2C213.4,459.5,211.2,457,208,457z
					"/>
				<path d="M237.7,460.9c0-2.9-1.5-3.9-3.9-3.9c-2.1,0-3.9,1.2-4.8,2.5v14.3h-5.6v-29.3h5.6v10.8c1.4-1.6,4-3.3,7.5-3.3
					c4.6,0,6.9,2.5,6.9,6.7v15h-5.6V460.9z"/>
				<path d="M274.2,469.5l2.1,2.5l-4.3,3.6l-2.3-2.8c-2.1,1-4.4,1.5-7,1.5c-8.8,0-15.3-6.3-15.3-15.1s6.4-15.1,15.3-15.1
					c8.9,0,15.3,6.3,15.3,15.1C278.1,463.3,276.7,466.9,274.2,469.5z M265.8,468.3l-3.3-3.9l4.3-3.5l3.3,3.9c1-1.5,1.5-3.5,1.5-5.6
					c0-5.5-3.5-9.6-8.9-9.6s-8.9,4.1-8.9,9.6c0,5.4,3.5,9.6,8.9,9.6C263.9,468.8,264.9,468.6,265.8,468.3z"/>
				<path d="M282.4,444.5h6.2v23.8H301v5.5h-18.6V444.5z"/>
				<path d="M303.8,460.8h10.5v4.7h-10.5V460.8z"/>
				<path d="M318.5,444.5h20.7v5.3h-14.5v6.4h14.2v5.4h-14.2v6.8h14.5v5.4h-20.7V444.5z"/>
				<path d="M358.3,471.1c-1.4,1.6-4,3.2-7.5,3.2c-4.6,0-6.8-2.5-6.8-6.7v-15h5.6v12.8c0,2.9,1.5,3.9,3.9,3.9c2.1,0,3.9-1.2,4.8-2.4
					v-14.3h5.6v21.2h-5.6V471.1z"/>
				<path d="M369.4,452.6h5.6v2.9c1.5-1.9,4.1-3.4,6.8-3.4v5.4c-0.4-0.1-0.9-0.1-1.5-0.1c-1.8,0-4.3,1-5.2,2.4v14h-5.6V452.6z"/>
				<path d="M383.8,463.2c0-6,4.2-11.1,11.2-11.1c7,0,11.2,5.1,11.2,11.1c0,6.1-4.2,11.1-11.2,11.1
					C388,474.3,383.8,469.2,383.8,463.2z M400.4,463.2c0-3.3-2-6.1-5.4-6.1s-5.4,2.9-5.4,6.1c0,3.3,1.9,6.2,5.4,6.2
					S400.4,466.5,400.4,463.2z"/>
				<path d="M410.3,481.9v-29.3h5.6v2.7c1.6-2.1,3.9-3.2,6.5-3.2c5.4,0,9.4,4,9.4,11.1s-3.9,11.1-9.4,11.1c-2.5,0-4.8-1.1-6.5-3.2
					v10.8H410.3z M420.7,457c-1.8,0-3.9,1.1-4.8,2.4v7.5c0.9,1.3,3,2.4,4.8,2.4c3.2,0,5.4-2.5,5.4-6.2
					C426,459.5,423.9,457,420.7,457z"/>
				<path d="M445.6,452.1c6.3,0,10.6,4.7,10.6,11.7v1.2h-15.7c0.4,2.7,2.5,4.9,6.1,4.9c2,0,4.3-0.8,5.7-2.1l2.5,3.6
					c-2.1,2-5.4,2.9-8.7,2.9c-6.4,0-11.3-4.3-11.3-11.1C434.6,457,439.1,452.1,445.6,452.1z M440.4,461.2h10.4
					c-0.1-2-1.5-4.7-5.2-4.7C442.1,456.5,440.6,459.1,440.4,461.2z"/>
			</g>
		</g>
		<g>
			<g>
				<path id="Background-Green" class="st8" d="M831.1,314.3l-15.3-24.9l-41.7-20.9l-35,26.7l-35.4-26l0,0l-41.3,21.8l-14.9,25.3
					l0,0l45.3,52.8l47.7,48.8l0,0l46.8-49.9h-0.1L831.1,314.3L831.1,314.3z"/>
				<g id="Right-Side">
					<polygon id="Right-Bottom-4" class="st9" points="739.9,368.2 740.5,417.8 787.2,367.9 					"/>
					<polygon id="Right-Bottom-3" class="st10" points="788.3,313.1 787.1,368.1 831.1,314.3 					"/>
					<polygon id="Right-Bottom-2" class="st11" points="739.8,368.3 788.3,313.1 787.1,368.1 					"/>
					<polygon id="Right-Bottom-1" class="st12" points="788.3,313.1 739.5,332 739.8,368.3 					"/>
					<polygon id="Right-Top-3" class="st13" points="831.1,314.3 815.8,289.4 774.1,268.5 788.3,313.1 					"/>
					<polygon id="Right-Top-2" class="st14" points="739.5,332 774.1,268.5 788.3,313.1 					"/>
					<polygon id="Right-Top-1" class="st11" points="739.5,332 739.1,295.2 774.1,268.5 					"/>
				</g>
				<g id="Left-Side">
					<polygon id="Left-Bottom-4" class="st15" points="739.9,368.3 740.5,417.8 692.8,369 					"/>
					<polygon id="Left-Bottom-3" class="st16" points="690.4,314.1 692.8,369 647.5,316.3 					"/>
					<polygon id="Left-Bottom-2" class="st17" points="739.9,368.3 690.4,314.1 692.8,369 					"/>
					<polygon id="Left-Bottom-1" class="st14" points="690.4,314.1 739.5,332 739.9,368.3 					"/>
					<polygon id="Left-Top-3" class="st8" points="647.5,316.3 662.4,291.1 703.7,269.2 690.4,314.1 					"/>
					<polygon id="Left-Top-2" class="st18" points="739.5,332 703.7,269.2 690.4,314.1 					"/>
					<polygon id="Left-Top-1" class="st12" points="739.7,332 739.3,295.3 703.7,269.2 					"/>
				</g>
			</g>
			<g>
				<path d="M571.6,450H563v-5.5h23.3v5.5h-8.5v23.8h-6.3V450z"/>
				<path d="M587.2,452.6h5.6v2.9c1.5-1.9,4.1-3.4,6.8-3.4v5.4c-0.4-0.1-0.9-0.1-1.5-0.1c-1.8,0-4.3,1-5.2,2.4v14h-5.6V452.6z"/>
				<path d="M615.7,471.6c-1.4,1.7-3.9,2.7-6.7,2.7c-3.4,0-7.4-2.3-7.4-7c0-5,4-6.8,7.4-6.8c2.8,0,5.3,0.9,6.7,2.6v-2.9
					c0-2.1-1.8-3.6-4.6-3.6c-2.3,0-4.4,0.8-6.2,2.5l-2.1-3.7c2.6-2.3,5.9-3.3,9.3-3.3c4.8,0,9.3,1.9,9.3,8v13.7h-5.6V471.6z
					 M615.7,466.1c-0.9-1.2-2.7-1.8-4.5-1.8c-2.2,0-4,1.2-4,3.2c0,2,1.8,3.1,4,3.1c1.8,0,3.6-0.6,4.5-1.8V466.1z"/>
				<path d="M623.8,452.6h6l5.5,14.7l5.5-14.7h6l-8.5,21.2h-6L623.8,452.6z"/>
				<path d="M648.7,446.6c0-1.8,1.5-3.3,3.3-3.3c1.8,0,3.3,1.5,3.3,3.3s-1.5,3.3-3.3,3.3C650.3,449.9,648.7,448.4,648.7,446.6z
					 M649.3,452.6h5.6v21.2h-5.6V452.6z"/>
				<path d="M661,467.1c1.5,1.4,4.7,2.9,7.3,2.9c2.4,0,3.6-0.8,3.6-2.1c0-1.5-1.8-2-4.3-2.5c-3.6-0.7-8.3-1.6-8.3-6.6
					c0-3.6,3.1-6.7,8.7-6.7c3.6,0,6.4,1.2,8.5,2.9l-2.2,3.8c-1.3-1.4-3.7-2.5-6.3-2.5c-2,0-3.3,0.7-3.3,2c0,1.3,1.7,1.8,4,2.3
					c3.6,0.7,8.5,1.7,8.5,6.9c0,3.9-3.3,6.8-9.2,6.8c-3.7,0-7.2-1.2-9.5-3.3L661,467.1z"/>
				<path d="M692.7,444.5h20.7v5.3h-14.5v6.4h14.2v5.4h-14.2v12.2h-6.2V444.5z"/>
				<path d="M716.2,463.2c0-6,4.2-11.1,11.2-11.1c7,0,11.2,5.1,11.2,11.1c0,6.1-4.2,11.1-11.2,11.1
					C720.4,474.3,716.2,469.2,716.2,463.2z M732.8,463.2c0-3.3-2-6.1-5.4-6.1s-5.4,2.9-5.4,6.1c0,3.3,1.9,6.2,5.4,6.2
					S732.8,466.5,732.8,463.2z"/>
				<path d="M757,471.1c-1.4,1.6-4,3.2-7.5,3.2c-4.6,0-6.8-2.5-6.8-6.7v-15h5.6v12.8c0,2.9,1.5,3.9,3.9,3.9c2.1,0,3.9-1.2,4.8-2.4
					v-14.3h5.6v21.2H757V471.1z"/>
				<path d="M782.4,461c0-2.9-1.5-3.9-3.9-3.9c-2.2,0-3.9,1.2-4.8,2.5v14.3h-5.6v-21.2h5.6v2.8c1.4-1.6,3.9-3.3,7.4-3.3
					c4.6,0,6.9,2.6,6.9,6.8v15h-5.6V461z"/>
				<path d="M808.1,471.1c-1.7,2.1-4,3.2-6.5,3.2c-5.4,0-9.4-4-9.4-11.1c0-6.9,4-11.1,9.4-11.1c2.5,0,4.9,1.1,6.5,3.2v-10.8h5.6
					v29.3h-5.6V471.1z M808.1,459.4c-1-1.4-2.9-2.4-4.8-2.4c-3.2,0-5.3,2.5-5.3,6.2c0,3.6,2.2,6.1,5.3,6.1c1.9,0,3.9-1,4.8-2.4
					V459.4z"/>
				<path d="M831.9,471.6c-1.4,1.7-3.9,2.7-6.7,2.7c-3.4,0-7.4-2.3-7.4-7c0-5,4-6.8,7.4-6.8c2.8,0,5.3,0.9,6.7,2.6v-2.9
					c0-2.1-1.8-3.6-4.6-3.6c-2.3,0-4.4,0.8-6.2,2.5l-2.1-3.7c2.6-2.3,5.9-3.3,9.3-3.3c4.8,0,9.3,1.9,9.3,8v13.7h-5.6V471.6z
					 M831.9,466.1c-0.9-1.2-2.7-1.8-4.5-1.8c-2.2,0-4,1.2-4,3.2c0,2,1.8,3.1,4,3.1c1.8,0,3.6-0.6,4.5-1.8V466.1z"/>
				<path d="M844.1,468.5v-11.1h-3.5v-4.9h3.5v-5.8h5.6v5.8h4.3v4.9h-4.3v9.6c0,1.3,0.7,2.3,1.9,2.3c0.8,0,1.6-0.3,1.9-0.6l1.2,4.2
					c-0.8,0.7-2.3,1.4-4.6,1.4C846.2,474.3,844.1,472.3,844.1,468.5z"/>
				<path d="M857.3,446.6c0-1.8,1.5-3.3,3.3-3.3c1.8,0,3.3,1.5,3.3,3.3s-1.5,3.3-3.3,3.3C858.8,449.9,857.3,448.4,857.3,446.6z
					 M857.9,452.6h5.6v21.2h-5.6V452.6z"/>
				<path d="M867.6,463.2c0-6,4.2-11.1,11.2-11.1c7,0,11.2,5.1,11.2,11.1c0,6.1-4.2,11.1-11.2,11.1
					C871.8,474.3,867.6,469.2,867.6,463.2z M884.2,463.2c0-3.3-2-6.1-5.4-6.1c-3.5,0-5.4,2.9-5.4,6.1c0,3.3,1.9,6.2,5.4,6.2
					C882.2,469.4,884.2,466.5,884.2,463.2z"/>
				<path d="M908.4,461c0-2.9-1.5-3.9-3.9-3.9c-2.2,0-3.9,1.2-4.8,2.5v14.3h-5.6v-21.2h5.6v2.8c1.4-1.6,3.9-3.3,7.4-3.3
					c4.6,0,6.9,2.6,6.9,6.8v15h-5.6V461z"/>
			</g>
		</g>
		<g>
			<path class="st3" d="M520,385.6h-12.9v-30.1h-26.7v-11.7h26.7v-28.9H520v28.9h26.6v11.7H520V385.6z"/>
		</g>
		<g id="heart">
			<g>
				<path class="st3" d="M1350.1,246.1c-31.8-31.5-82.7-32.2-115.6-2.5c-33-29.7-83.8-29-115.6,2.5c-32.8,32.5-32.8,85.1,0,117.6
					c9.4,9.3,96.9,95.9,96.9,95.9c10.4,10.3,27.1,10.3,37.5,0c0,0,95.8-94.8,96.9-95.9C1383,331.2,1383,278.6,1350.1,246.1z"/>
				<path class="st0" d="M1175.4,265.7L1175.4,265.7c-20.6,0-37.2,16.7-37.2,37.2c0,2.4,2,4.4,4.4,4.4c2.4,0,4.4-2,4.4-4.4l0,0
					c0-15.7,12.7-28.5,28.5-28.5l0,0c2.4,0,4.4-2,4.4-4.4S1177.9,265.7,1175.4,265.7z"/>
			</g>
		</g>
		<g>
			<path class="st3" d="M950.5,330.3h66.5v11.9h-66.5V330.3z M950.5,358.5h66.5v11.6h-66.5V358.5z"/>
		</g>
	</g>
	<g>
		<path d="M354.1,626c0-5.5-2.7-7-6.8-7c-3.6,0-7.4,2.3-9.2,4.9v20.4h-1.6v-36h1.6v14c1.9-2.4,5.8-4.8,9.5-4.8
			c5.2,0,8.2,2.3,8.2,8.4v18.3h-1.6V626z"/>
		<path d="M365.3,639.7v-20H361v-1.5h4.3V611h1.6v7.1h5.3v1.5h-5.3v20c0,2.2,0.9,3.8,2.8,3.8c1.3,0,2.4-0.6,3.1-1.4l1,1.2
			c-1,1-2.1,1.6-4.1,1.6C366.7,644.9,365.3,642.9,365.3,639.7z"/>
		<path d="M379.1,639.7v-20h-4.3v-1.5h4.3V611h1.6v7.1h5.3v1.5h-5.3v20c0,2.2,0.9,3.8,2.8,3.8c1.3,0,2.4-0.6,3.1-1.4l1,1.2
			c-1,1-2.1,1.6-4.1,1.6C380.5,644.9,379.1,642.9,379.1,639.7z"/>
		<path d="M392.6,654.2v-36h1.6v4.4c1.8-2.7,5.3-5,9.4-5c7,0,11.7,5.4,11.7,13.7c0,8.2-4.6,13.7-11.7,13.7c-3.9,0-7.3-2.1-9.4-5.1
			v14.4H392.6z M403.7,619c-4.1,0-7.8,2.4-9.4,5.2v14c1.6,2.8,5.3,5.3,9.4,5.3c6.4,0,9.9-5.4,9.9-12.3
			C413.6,624.3,410,619,403.7,619z"/>
		<path d="M422.2,639.6c1.6,2.2,4.4,3.9,8.3,3.9c4.8,0,7.7-2.6,7.7-6.1c0-3.8-3.9-4.9-7.9-5.9c-4.3-1.1-8.9-2.3-8.9-7
			c0-3.8,3.2-6.9,8.9-6.9c4.5,0,7.3,1.8,9,3.9l-1.2,1.1c-1.5-2.2-4.3-3.6-7.8-3.6c-4.5,0-7.2,2.4-7.2,5.5c0,3.4,3.6,4.3,7.5,5.3
			c4.5,1.1,9.3,2.4,9.3,7.7c0,4.1-3,7.5-9.3,7.5c-4.1,0-7-1.2-9.6-4.2L422.2,639.6z"/>
		<path d="M448.7,617.8c1,0,1.8,0.8,1.8,1.8c0,0.9-0.8,1.7-1.8,1.7s-1.8-0.8-1.8-1.7C446.9,618.6,447.7,617.8,448.7,617.8z
			 M448.7,641.2c1,0,1.8,0.8,1.8,1.7c0,1-0.8,1.8-1.8,1.8s-1.8-0.8-1.8-1.8C446.9,642.1,447.7,641.2,448.7,641.2z"/>
		<path d="M467.1,607.2h1.7L456,645.4h-1.7L467.1,607.2z"/>
		<path d="M481.6,607.2h1.7l-12.8,38.2h-1.7L481.6,607.2z"/>
		<path d="M489.4,649.6c2.3,2.8,4.7,3.8,8.8,3.8c5.2,0,9.4-2.6,9.4-9v-4.5c-1.8,2.7-5.3,5.1-9.4,5.1c-7,0-11.7-5.5-11.7-13.7
			c0-8.2,4.6-13.8,11.7-13.8c3.9,0,7.3,2.1,9.4,5.1v-4.5h1.6v26.3c0,7.5-4.7,10.4-11,10.4c-4.4,0-7-0.8-10-3.9L489.4,649.6z
			 M507.6,624.3c-1.6-2.8-5.3-5.3-9.4-5.3c-6.4,0-9.9,5.5-9.9,12.3s3.5,12.3,9.9,12.3c4.1,0,7.8-2.5,9.4-5.3V624.3z"/>
		<path d="M518.5,618.2h1.6v4.8c2.3-3.1,5.2-5.2,9-5.2v1.9c-0.5-0.1-0.8-0.1-1.3-0.1c-2.8,0-6.5,2.7-7.7,5.1v19.6h-1.6V618.2z"/>
		<path d="M551.8,641.1c-2.4,2.6-5.3,3.8-9,3.8c-4.6,0-9.1-3.1-9.1-8.7s4.5-8.7,9.1-8.7c3.7,0,6.6,1.2,9,3.8v-5.9
			c0-4.2-3.3-6.5-7.3-6.5c-3.4,0-5.9,1.2-8.4,4.1l-1.2-1.1c2.5-3,5.2-4.5,9.6-4.5c5.1,0,9,2.6,9,7.9v18.9h-1.6V641.1z M551.8,633
			c-2-2.6-5.2-4-8.6-4c-4.8,0-7.8,3.2-7.8,7.2s3,7.2,7.8,7.2c3.4,0,6.6-1.4,8.6-4V633z"/>
		<path d="M562.7,654.2v-36h1.6v4.4c1.8-2.7,5.3-5,9.4-5c7,0,11.7,5.4,11.7,13.7c0,8.2-4.6,13.7-11.7,13.7c-3.9,0-7.3-2.1-9.4-5.1
			v14.4H562.7z M573.7,619c-4.1,0-7.8,2.4-9.4,5.2v14c1.6,2.8,5.3,5.3,9.4,5.3c6.4,0,9.9-5.4,9.9-12.3
			C583.6,624.3,580.1,619,573.7,619z"/>
		<path d="M610.9,626c0-5.5-2.7-7-6.8-7c-3.6,0-7.4,2.3-9.2,4.9v20.4h-1.6v-36h1.6v14c1.9-2.4,5.8-4.8,9.5-4.8
			c5.2,0,8.2,2.3,8.2,8.4v18.3h-1.6V626z"/>
		<path d="M641.5,654.2v-14.4c-2.1,3.1-5.5,5.1-9.4,5.1c-7,0-11.7-5.5-11.7-13.7c0-8.3,4.6-13.7,11.7-13.7c4.1,0,7.6,2.3,9.4,5v-4.4
			h1.6v36H641.5z M641.5,624.2c-1.6-2.8-5.3-5.2-9.4-5.2c-6.4,0-9.9,5.3-9.9,12.2c0,6.9,3.5,12.3,9.9,12.3c4.1,0,7.8-2.5,9.4-5.3
			V624.2z"/>
		<path d="M652.4,608.2h1.6v36h-1.6V608.2z"/>
		<path d="M660.3,630.4h13v1.6h-13V630.4z"/>
		<path d="M690.4,617.5c8,0,12.1,6.4,12.1,13.7v0.5H680c0.2,6.4,4.3,11.7,11,11.7c3.7,0,6.6-1.4,9.1-3.9l1,1
			c-2.6,2.8-5.7,4.4-10,4.4c-7.6,0-12.8-5.8-12.8-13.7C678.1,623.6,683.4,617.5,690.4,617.5z M680,630.3h20.8
			c0-5-3.3-11.3-10.4-11.3C683.6,619,680.1,625.1,680,630.3z"/>
		<path d="M728,640.3c-2.2,2.5-5.8,4.6-9.5,4.6c-5.2,0-8.2-2.3-8.2-8.4v-18.3h1.6v18.3c0,5.5,2.7,7,6.8,7c3.6,0,7.4-2.2,9.2-4.8
			v-20.5h1.6v26.1H728V640.3z"/>
		<path d="M738.9,618.2h1.6v4.8c2.3-3.1,5.2-5.2,9-5.2v1.9c-0.5-0.1-0.8-0.1-1.3-0.1c-2.8,0-6.5,2.7-7.7,5.1v19.6h-1.6V618.2z"/>
		<path d="M753.9,631.2c0-7.7,4.8-13.7,12.2-13.7c7.4,0,12.2,6,12.2,13.7c0,7.7-4.8,13.7-12.2,13.7
			C758.7,644.9,753.9,638.9,753.9,631.2z M776.4,631.2c0-6.3-3.7-12.2-10.4-12.2c-6.6,0-10.4,5.9-10.4,12.2
			c0,6.4,3.7,12.3,10.4,12.3C772.8,643.5,776.4,637.6,776.4,631.2z"/>
		<path d="M786.1,654.2v-36h1.6v4.4c1.8-2.7,5.3-5,9.4-5c7,0,11.7,5.4,11.7,13.7c0,8.2-4.6,13.7-11.7,13.7c-3.9,0-7.3-2.1-9.4-5.1
			v14.4H786.1z M797.1,619c-4.1,0-7.8,2.4-9.4,5.2v14c1.6,2.8,5.3,5.3,9.4,5.3c6.4,0,9.9-5.4,9.9-12.3
			C807,624.3,803.5,619,797.1,619z"/>
		<path d="M827.6,617.5c8,0,12.1,6.4,12.1,13.7v0.5h-22.5c0.2,6.4,4.3,11.7,11,11.7c3.7,0,6.6-1.4,9.1-3.9l1,1
			c-2.6,2.8-5.7,4.4-10,4.4c-7.6,0-12.8-5.8-12.8-13.7C815.3,623.6,820.5,617.5,827.6,617.5z M817.1,630.3h20.8
			c0-5-3.3-11.3-10.4-11.3C820.8,619,817.3,625.1,817.1,630.3z"/>
		<path d="M848,641.2c1,0,1.8,0.8,1.8,1.7c0,1-0.8,1.8-1.8,1.8s-1.8-0.8-1.8-1.8C846.2,642.1,847,641.2,848,641.2z"/>
		<path d="M856.3,631.2c0-7.7,4.8-13.7,12.2-13.7c7.4,0,12.2,6,12.2,13.7c0,7.7-4.8,13.7-12.2,13.7
			C861.1,644.9,856.3,638.9,856.3,631.2z M878.8,631.2c0-6.3-3.7-12.2-10.4-12.2c-6.6,0-10.4,5.9-10.4,12.2
			c0,6.4,3.7,12.3,10.4,12.3C875.2,643.5,878.8,637.6,878.8,631.2z"/>
		<path d="M888.5,618.2h1.6v4.8c2.3-3.1,5.2-5.2,9-5.2v1.9c-0.5-0.1-0.8-0.1-1.3-0.1c-2.8,0-6.5,2.7-7.7,5.1v19.6h-1.6V618.2z"/>
		<path d="M906.4,649.6c2.3,2.8,4.7,3.8,8.8,3.8c5.2,0,9.4-2.6,9.4-9v-4.5c-1.8,2.7-5.3,5.1-9.4,5.1c-7,0-11.7-5.5-11.7-13.7
			c0-8.2,4.6-13.8,11.7-13.8c3.9,0,7.3,2.1,9.4,5.1v-4.5h1.6v26.3c0,7.5-4.7,10.4-11,10.4c-4.4,0-7-0.8-10-3.9L906.4,649.6z
			 M924.6,624.3c-1.6-2.8-5.3-5.3-9.4-5.3c-6.4,0-9.9,5.5-9.9,12.3s3.5,12.3,9.9,12.3c4.1,0,7.8-2.5,9.4-5.3V624.3z"/>
		<path class="st3" d="M947.1,634.7h-5.8l-3.2,9.6h-3.8l3.2-9.6h-5.6l1.1-3.3h5.7l3.3-10.3h-5.7l1-3.2h5.8l3.2-9.7h3.8l-3.2,9.7h5.7
			l3.2-9.7h3.8l-3.2,9.7h5.6l-1,3.2h-5.7l-3.5,10.3h5.8l-1,3.3h-5.9l-3.2,9.6h-3.8L947.1,634.7z M945.9,621.1l-3.4,10.3h5.7
			l3.4-10.3H945.9z"/>
		<path class="st3" d="M985.6,640.5c-1.9,2.6-5.1,4.4-8.5,4.4c-6.8,0-11.7-5.1-11.7-13.7c0-8.4,4.9-13.7,11.7-13.7
			c3.3,0,6.4,1.6,8.5,4.4v-13.7h4.9v36h-4.9V640.5z M985.6,625.7c-1.4-2.1-4.3-3.8-7.2-3.8c-4.9,0-7.9,3.9-7.9,9.4
			c0,5.4,3,9.3,7.9,9.3c3,0,5.9-1.7,7.2-3.8V625.7z"/>
		<path class="st3" d="M997.5,610.9c0-1.7,1.5-3.1,3.1-3.1c1.7,0,3.1,1.4,3.1,3.1c0,1.7-1.4,3.1-3.1,3.1
			C999,614.1,997.5,612.7,997.5,610.9z M998.3,618.2h4.9v26.1h-4.9V618.2z"/>
		<path class="st3" d="M1007,618.2h5.2l8.2,20.5l8.2-20.5h5.2l-10.8,26.1h-5.2L1007,618.2z"/>
		<path class="st3" d="M1049.2,617.5c7.8,0,12.7,6.1,12.7,14.1v1.2h-20.6c0.4,4.4,3.6,8.1,8.9,8.1c2.8,0,5.8-1.1,7.7-3.1l2.3,3.2
			c-2.6,2.5-6.3,3.9-10.5,3.9c-7.8,0-13.5-5.5-13.5-13.7C1036.1,623.6,1041.6,617.5,1049.2,617.5z M1041.2,629.3h15.9
			c-0.1-3.5-2.4-7.8-7.9-7.8C1043.9,621.5,1041.4,625.7,1041.2,629.3z"/>
		<path class="st3" d="M1068,618.2h4.9v4c2-2.6,5.1-4.6,8.5-4.6v4.9c-0.5-0.1-1-0.2-1.7-0.2c-2.4,0-5.7,1.8-6.9,3.8v18.2h-4.9V618.2
			z"/>
		<path class="st3" d="M1086.3,637.3c1.8,1.9,5.2,3.7,8.8,3.7c3.7,0,5.6-1.5,5.6-3.7c0-2.6-3-3.5-6.3-4.2c-4.4-1-9.6-2.2-9.6-7.8
			c0-4.2,3.6-7.7,9.9-7.7c4.5,0,7.7,1.6,9.9,3.7l-2.2,3.4c-1.5-1.8-4.4-3.2-7.7-3.2s-5.3,1.3-5.3,3.4c0,2.3,2.8,3,6.1,3.8
			c4.5,1,9.9,2.3,9.9,8.3c0,4.5-3.7,8-10.5,8c-4.4,0-8.2-1.4-10.9-4.1L1086.3,637.3z"/>
		<path class="st3" d="M1110.8,610.9c0-1.7,1.5-3.1,3.1-3.1c1.7,0,3.1,1.4,3.1,3.1c0,1.7-1.4,3.1-3.1,3.1
			C1112.2,614.1,1110.8,612.7,1110.8,610.9z M1111.5,618.2h4.9v26.1h-4.9V618.2z"/>
		<path class="st3" d="M1125.1,638.5v-16h-4.3v-4.3h4.3V611h4.9v7.1h5.3v4.3h-5.3v15c0,1.8,0.9,3.2,2.5,3.2c1.1,0,2.2-0.5,2.6-1
			l1.2,3.7c-1,1-2.5,1.7-5.1,1.7C1127.2,644.9,1125.1,642.6,1125.1,638.5z"/>
		<path class="st3" d="M1142.3,650.5c1.8,0,3-0.6,3.8-2.5l1.5-3.5l-10.8-26.4h5.2l8.2,20.5l8.2-20.5h5.2l-12.9,31.1
			c-1.7,4.1-4.5,5.6-8.3,5.6c-0.8,0-2.3-0.2-3-0.4l0.8-4.4C1140.7,650.4,1141.6,650.5,1142.3,650.5z"/>
	</g>
</g>
</svg>
