<?xml version="1.0" encoding="utf-8"?>
<!-- Generator: Adobe Illustrator 21.0.0, SVG Export Plug-In . SVG Version: 6.00 Build 0)  -->
<!DOCTYPE svg PUBLIC "-//W3C//DTD SVG 1.1//EN" "http://www.w3.org/Graphics/SVG/1.1/DTD/svg11.dtd">
<svg version="1.1" xmlns="http://www.w3.org/2000/svg" xmlns:xlink="http://www.w3.org/1999/xlink" x="0px" y="0px"
	 viewBox="0 0 1500 803.6" style="enable-background:new 0 0 1500 803.6;" xml:space="preserve">
<style type="text/css">
	.st0{fill:#FFFFFF;}
	.st1{opacity:0.45;fill:#D6D6D6;}
	.st2{opacity:0.45;fill:#D7D6D6;}
	.st3{fill:#D7D6D6;}
	.st4{fill:#F06299;}
	.st5{fill:#DC3F75;}
	.st6{fill:#F78D26;}
	.st7{fill:#DB7046;}
	.st8{fill:#6453A3;}
	.st9{fill:#3C2F8E;}
	.st10{opacity:0.45;}
	.st11{fill:#D6D6D6;}
	.st12{fill:#DC3E75;}
</style>
<g id="Layer_2">
	<rect class="st0" width="1500" height="803.6"/>
</g>
<g id="Layer_1">
	<path class="st1" d="M1500,227.7c-0.9-0.7-2-1.2-3.3-1.2c-2,0-3.8,1.2-4.7,2.8l-24-7.5c0-0.2,0-0.4,0-0.6c0-2.5-1.7-4.5-4-5.1
		l2-26.3c0.9-0.1,1.7-0.4,2.4-0.9l31.5,23.5v-2.4l-30.1-22.5c0.6-0.9,1-1.9,1-3.1c0-0.7-0.1-1.4-0.4-2l29.5-11.8v-2l-30.6,12.2
		c-0.3-0.3-0.6-0.6-0.9-0.8l29.4-41.2c0.7,0.3,1.4,0.5,2.2,0.5v-10.6c-0.2,0-0.4,0-0.6,0l-6.4-20.9c1.6-0.8,2.7-2.4,2.8-4.2l4.2-0.4
		v-1.9l-4.4,0.4c-0.6-2.2-2.7-3.9-5.1-3.9c-2.9,0-5.3,2.4-5.3,5.3s2.4,5.3,5.3,5.3c0.2,0,0.4,0,0.6,0l6.4,20.9
		c-0.3,0.1-0.5,0.3-0.8,0.5l-53-55.2c0.2-0.2,0.3-0.5,0.5-0.8l55.7,15.8v-2l-55.2-15.7c0-0.2,0-0.3,0-0.5c0-0.6-0.1-1.1-0.2-1.6
		l33.5-17.6c1,1,2.3,1.6,3.8,1.6c1.5,0,2.8-0.6,3.7-1.6l14.4,13.5v-2.6l-13.4-12.5c0.3-0.7,0.5-1.4,0.5-2.2c0-0.3,0-0.7-0.1-1
		l13-6.9v-2.1l-13.7,7.3c-0.6-0.9-1.5-1.7-2.5-2.1l7.5-35.1c0.1,0,0.1,0,0.2,0c2.9,0,5.3-2.4,5.3-5.3c0-1.3-0.5-2.6-1.3-3.5h-7.9
		c-0.8,0.9-1.3,2-1.3,3.2l-58.1,21.7c-0.7-1.1-1.7-2-3-2.4l2.5-22.6h-1.9l-2.5,22.4c-0.8,0.1-1.6,0.3-2.3,0.7L1387.7,0h-3.3l35,24.4
		c-0.3,0.4-0.5,0.7-0.7,1.2L1348,9c0-0.1,0-0.2,0-0.3c0-2.4-1.6-4.4-3.7-5.1l0.6-3.7h-1.9l-0.5,3.5c-1,0.1-2,0.4-2.7,1l-7-4.5h-3.5
		l9.1,5.8c-0.6,0.8-0.9,1.8-0.9,2.9c0,0,0,0.1,0,0.1l-57,25.6c-0.2-0.2-0.4-0.4-0.6-0.5l1.3-33.9h-1.9l-1.3,33.1
		c-0.4-0.1-0.8-0.2-1.3-0.2c-1.3,0-2.4,0.5-3.4,1.2l-20.6-17.4c0.4-0.8,0.7-1.7,0.7-2.6c0-1-0.3-2-0.8-2.8l7.9-11.3h-2.3l-6.9,9.8
		c-0.9-0.7-2-1.1-3.2-1.1c-0.9,0-1.8,0.2-2.6,0.7l-7.7-9.4h-2.4l8.6,10.6c-0.7,0.8-1.2,1.8-1.2,3l-46.9,4.3c-0.3-1.2-1.1-2.3-2.2-3
		l6.4-14.9h-2.1l-6.1,14.2c-0.4-0.1-0.8-0.1-1.2-0.1c-0.9,0-1.7,0.2-2.4,0.6L1177,0h-2.4l12.3,15.8c-0.3,0.3-0.5,0.7-0.7,1
		l-23.4-7.4c0-0.2,0-0.4,0-0.7c0-2-1.1-3.7-2.7-4.6l2.4-4.2h-2.2l-2,3.6c-0.3,0-0.5-0.1-0.8-0.1c-0.5,0-1,0.1-1.5,0.2l-1.8-3.7h-2.1
		l2.2,4.5c-1.3,1-2.1,2.5-2.1,4.2c0,1,0.3,1.8,0.7,2.6l-12.1,10.1c-0.9-0.8-2.1-1.2-3.4-1.2c-2,0-3.7,1.1-4.6,2.7l-21.6-7.6
		c0.1-0.4,0.2-0.8,0.2-1.2c0-1.1-0.3-2.1-0.9-2.9L1122.2,0h-2.7l-10.2,9.8c-0.9-0.6-1.9-1-3.1-1c-0.5,0-1,0.1-1.5,0.2l-2.3-9h-1.9
		l2.5,9.9c-1.2,1-2.1,2.5-2.1,4.2c0,2.9,2.4,5.3,5.3,5.3c1.8,0,3.4-0.9,4.4-2.3l21.7,7.7c0,0.3-0.1,0.6-0.1,0.8
		c0,2.9,2.4,5.3,5.3,5.3c1.4,0,2.7-0.6,3.7-1.5l21.5,15.2c-0.3,0.7-0.5,1.4-0.5,2.2c0,1.8,0.9,3.5,2.4,4.4L1153.5,77
		c-0.4-0.1-0.8-0.1-1.2-0.1c-2.9,0-5.3,2.4-5.3,5.3c0,2.9,2.4,5.3,5.3,5.3c1.9,0,3.5-1,4.4-2.4l28.3,11.8c-0.4,1.7,0.1,3.6,1.4,4.9
		c1.9,1.9,5,2,7.1,0.3l22.2,18.9c-0.5,0.8-0.7,1.7-0.7,2.6c0,2.9,2.4,5.3,5.3,5.3c2.9,0,5.3-2.4,5.3-5.3c0-0.7-0.1-1.4-0.4-2
		l32.2-6.6c0.8,1.9,2.7,3.3,4.9,3.3c0.8,0,1.6-0.2,2.4-0.6l14.6,19.6c-0.3,0.6-0.4,1.4-0.4,2.1c0,2.9,2.4,5.3,5.3,5.3
		c1.1,0,2-0.3,2.9-0.8l22.7,24.2c-0.7,0.9-1,2-1,3.1c0,2.9,2.4,5.3,5.3,5.3c2.8,0,5.1-2.2,5.3-4.9l34.5-3.9c0.7,2.1,2.7,3.6,5,3.6
		c0.6,0,1.1-0.1,1.6-0.3l19.3,35.8c-1,1-1.7,2.3-1.7,3.9c0,0.1,0,0.2,0,0.3l-9.7,4.6c-1-1.3-2.5-2.2-4.3-2.2c-1.9,0-3.5,1-4.4,2.4
		l-26.4-10.8c0.2-1.1,0.1-2.3-0.4-3.4c-1.3-2.6-4.5-3.7-7.1-2.4c-2.6,1.3-3.7,4.5-2.4,7.1c0,0.1,0.1,0.2,0.2,0.3l-19.1,16
		c-0.9-0.8-2.1-1.2-3.4-1.2c-2.9,0-5.3,2.4-5.3,5.3c0,2.9,2.4,5.3,5.3,5.3c0.7,0,1.3-0.1,1.9-0.4l15.3,24.6c-1.1,1-1.7,2.4-1.7,3.9
		c0,2.9,2.4,5.3,5.3,5.3c2.9,0,5.3-2.4,5.3-5.3c0-0.7-0.1-1.4-0.4-2l18.7-12c1,1,2.3,1.7,3.9,1.7c2.3,0,4.2-1.4,4.9-3.4l32,5.8
		c0,0,0,0,0,0c0,2.9,2.4,5.3,5.3,5.3c2.8,0,5.1-2.2,5.3-5l29.6-3.9c0.7,2.1,2.7,3.7,5,3.7c2.9,0,5.3-2.4,5.3-5.3
		c0-0.6-0.1-1.1-0.3-1.6l23-18c0.9,0.8,2.2,1.3,3.5,1.3c2,0,3.8-1.2,4.7-2.8l24,7.5c0,0.2,0,0.4,0,0.6c0,2.9,2.4,5.3,5.3,5.3
		c1.2,0,2.4-0.4,3.3-1.1V227.7z M1466.7,179.4c-0.4-0.1-0.7-0.1-1.1-0.1c-0.2,0-0.4,0-0.5,0l-18.5-50.7c0.9-0.3,1.6-0.8,2.2-1.5
		l45.9,7.2c0,1.4,0.6,2.7,1.6,3.6L1466.7,179.4z M1326.6,116.3l41.5-26.1c0.8,1.2,2,2.1,3.5,2.4v31.1c-1.6,0.3-3,1.3-3.7,2.7
		l-40.9-8c0,0,0-0.1,0-0.1C1327,117.6,1326.8,117,1326.6,116.3z M1358.1,66c0.7,0,1.4-0.1,2-0.4l10.9,16.8c-1.6,0.5-2.9,1.7-3.5,3.2
		l-36.8,1.2c-0.5-2.4-2.6-4.2-5.2-4.2c-0.7,0-1.4,0.1-2,0.4l-20.2-32.2c0.6-0.5,1-1.2,1.3-1.9l48,11.6c0,0.1,0,0.2,0,0.3
		C1352.9,63.6,1355.2,66,1358.1,66z M1322.2,83.9c-1.1,1-1.7,2.4-1.7,3.9c0,2.4,1.6,4.5,3.8,5.1l-2,20.1c-0.2,0-0.4,0-0.6,0
		c-0.2,0-0.4,0-0.6,0l-18.1-59.8L1322.2,83.9z M1326.1,93.1c2.5-0.2,4.4-2.1,4.8-4.5l36.4-1.2c0,0.4,0,0.7,0.1,1l-41.8,26.3
		c-0.4-0.4-0.9-0.8-1.4-1.1L1326.1,93.1z M1361.8,64.6c1-1,1.7-2.3,1.7-3.8c0-2.9-2.4-5.3-5.3-5.3c-2.2,0-4,1.3-4.8,3.1l-46.6-11.3
		l71.4-4.5c0.4,1.8,1.7,3.2,3.4,3.7l-8.5,35.3L1361.8,64.6z M1377.8,86.4l55.3-9.9l-42.3,40.1c-0.7-0.3-1.5-0.5-2.3-0.5
		c-0.5,0-0.9,0.1-1.4,0.2L1376,91.5c1.2-1,1.9-2.4,1.9-4.1C1377.9,87.1,1377.8,86.7,1377.8,86.4z M1439.6,124.4
		c0.2,1.2,0.8,2.2,1.6,3l-21.7,33.4c-0.4-0.1-0.8-0.1-1.2-0.1c-0.7,0-1.5,0.2-2.1,0.4l-24-36c0.7-0.7,1.3-1.6,1.5-2.6L1439.6,124.4z
		 M1393.7,120.5l28.9-7.4c0.8,1.8,2.7,3.1,4.8,3.1c1.4,0,2.7-0.6,3.6-1.4l9,6.6c-0.2,0.4-0.3,0.8-0.4,1.2l-45.9-1.9
		C1393.8,120.6,1393.7,120.5,1393.7,120.5z M1432.2,113.1c0.3-0.7,0.5-1.5,0.5-2.3c0-2-1.2-3.8-2.8-4.7l9-29.2c0.1,0,0.1,0,0.2,0
		l4.2,41.6c-0.8,0.2-1.6,0.7-2.2,1.2L1432.2,113.1z M1428,105.6c-0.2,0-0.4,0-0.6,0c-2.9,0-5.3,2.4-5.3,5.3c0,0.1,0,0.3,0,0.4
		l-29,7.5c-0.2-0.4-0.5-0.7-0.8-1l44-41.7c0.2,0.2,0.5,0.3,0.7,0.5L1428,105.6z M1377,84.6c-0.6-0.9-1.4-1.6-2.3-2l8.6-35.8
		c1.6-0.1,2.9-0.8,3.9-1.9l47,26.8c0,0.9,0.2,1.7,0.6,2.5L1377,84.6z M1373.5,92.6c0.3,0,0.5-0.1,0.8-0.2l11.1,24.6
		c-1.3,1-2.2,2.5-2.2,4.3c0,0.2,0,0.5,0,0.7l-6.8,3.4c-0.8-0.8-1.8-1.4-3-1.6V92.6z M1377.9,128.9c0-0.7-0.1-1.3-0.4-2l6.4-3.2
		c0.7,1.4,2.1,2.4,3.6,2.7v39.6c0,0-0.1,0-0.1,0l-12.9-32.2C1376.4,133.1,1377.9,131.2,1377.9,128.9z M1388.8,176.5
		c2.8-0.2,4.9-2.5,4.9-5.3c0-2.6-1.9-4.8-4.3-5.2v-39.6c0.4-0.1,0.8-0.2,1.2-0.3l24,36c-1,1-1.6,2.3-1.6,3.8c0,1,0.3,1.9,0.7,2.7
		l-28.8,37c0,0-0.1,0-0.1,0L1388.8,176.5z M1415,170.1c0.9,0.7,2.1,1.2,3.3,1.2c2,0,3.7-1.1,4.6-2.7l37.5,15.4c0,0.2,0,0.4,0,0.6
		c0,0.5,0.1,0.9,0.2,1.4l-38.4,26.3c-1-1-2.3-1.6-3.8-1.6c-2.1,0-3.9,1.2-4.7,2.9l-25.1-3.2c-0.1-1.5-0.8-2.8-1.9-3.8L1415,170.1z
		 M1423.5,166.8c0-0.3,0.1-0.6,0.1-0.8c0-1.8-0.9-3.5-2.4-4.4l21.6-33.1c0.6,0.2,1.2,0.4,1.9,0.4l18.6,50.9c-1,0.5-1.8,1.3-2.4,2.3
		L1423.5,166.8z M1495.5,131.4c-0.2,0.3-0.4,0.7-0.5,1.1l-45.2-7.1c0.2-0.5,0.3-1.1,0.3-1.7c0-2.8-2.1-5.1-4.9-5.3l-4.2-41.6
		c0.5-0.2,1-0.4,1.5-0.7L1495.5,131.4z M1477,50.9l-33.3,17.5c-0.3-0.3-0.5-0.6-0.9-0.9l18.4-34.3c0.5,0.2,1.1,0.3,1.6,0.3
		c1.1,0,2.1-0.3,3-0.9l12.3,12.5c-0.9,1-1.5,2.2-1.5,3.7C1476.5,49.6,1476.7,50.3,1477,50.9z M1486.4,5.1c0.5,1.5,1.6,2.6,3,3.2
		l-7.5,35.1c-0.1,0-0.1,0-0.2,0c-0.8,0-1.6,0.2-2.2,0.5l-12.5-12.7c0.6-0.9,1-1.9,1-3c0-2.9-2.4-5.3-5.3-5.3c-2.6,0-4.7,1.8-5.2,4.2
		l-28.4-0.7L1486.4,5.1z M1428.8,28.4l28.8,0.7c0.2,1.3,0.9,2.5,1.9,3.3l-18.4,34.3c-0.5-0.2-1.1-0.3-1.6-0.3c-0.3,0-0.6,0-0.8,0.1
		L1426.6,32C1427.7,31.1,1428.6,29.9,1428.8,28.4z M1418.9,30.2c0.9,1.6,2.6,2.7,4.6,2.7c0.5,0,0.9-0.1,1.3-0.2l12,34.4
		c-1,0.6-1.9,1.5-2.3,2.6l-46.5-26.5c0.2-0.5,0.3-1.1,0.3-1.8c0-0.3,0-0.5-0.1-0.8L1418.9,30.2z M1342.8,14.1c2.2,0,4-1.3,4.8-3.2
		l70.7,16.5c0,0.1,0,0.2,0,0.3c0,0.3,0,0.5,0.1,0.8l-30.6,10.5c-0.9-1.6-2.6-2.7-4.6-2.7c-1.8,0-3.4,0.9-4.4,2.3l-37.6-7.1
		c0,0,0,0,0,0c0-2-1.2-3.8-2.9-4.7l3.9-12.7C1342.4,14,1342.6,14.1,1342.8,14.1z M1339.5,12.9c0.3,0.2,0.5,0.4,0.8,0.5l-3.9,12.7
		c-0.2,0-0.4,0-0.6,0c-2.9,0-5.3,2.4-5.3,5.3s2.4,5.3,5.3,5.3c2.3,0,4.2-1.4,4.9-3.4l37.2,7c0,0.2-0.1,0.4-0.1,0.6l-72.8,4.6
		c-0.1-0.5-0.3-1-0.6-1.5L1339.5,12.9z M1337.9,10.8c0.1,0.3,0.2,0.5,0.4,0.7l-35,31.1c-0.9-0.7-2-1.1-3.3-1.1c-1.9,0-3.6,1-4.5,2.6
		l-13.5-5c0.1-0.3,0.1-0.6,0.1-0.9c0-0.8-0.2-1.5-0.5-2.2L1337.9,10.8z M1276.8,43.5c1.9,0,3.6-1,4.5-2.6l13.5,5
		c-0.1,0.3-0.1,0.6-0.1,0.9c0,1.9,1,3.6,2.5,4.5l-16.3,41.8c-0.6-0.3-1.3-0.4-2.1-0.4c-1.9,0-3.6,1-4.5,2.6l-18.5-6.9
		c0.1-0.3,0.1-0.6,0.1-0.9c0-1.7-0.8-3.2-2-4.1l21.3-40C1275.7,43.4,1276.2,43.5,1276.8,43.5z M1273.5,42.4l-21.3,40
		c-0.5-0.2-1-0.3-1.6-0.3c-0.8,0-1.5,0.2-2.2,0.5l-34.5-36c0.6-0.9,1-1.9,1-3.1c0-0.1,0-0.2,0-0.4l56.7-3.7
		C1271.9,40.6,1272.6,41.6,1273.5,42.4z M1246.4,83.3l-73.8-35.1c0.1-0.3,0.1-0.6,0.2-0.8l31.8-2.5c0.6,2.3,2.7,3.9,5.1,3.9
		c1.1,0,2.1-0.3,2.9-0.9L1246.4,83.3z M1244.6,17.9c0.9,0.9,2.2,1.4,3.6,1.4c1.3,0,2.4-0.5,3.4-1.2l20.6,17.4
		c-0.4,0.6-0.6,1.3-0.7,2l-57.1,3.7c-0.1-0.2-0.2-0.4-0.3-0.6L1244.6,17.9z M1196.1,19.8l46.9-4.3c0.1,0.3,0.2,0.6,0.4,0.9
		l-30.6,22.9c-0.9-0.7-2-1.1-3.2-1.1c-0.6,0-1.1,0.1-1.6,0.3l-13.1-15.7C1195.6,21.9,1196,20.9,1196.1,19.8z M1188.2,23.9
		c0.8,0.5,1.7,0.7,2.6,0.7c0.9,0,1.8-0.3,2.6-0.7l12.8,15.4c-1.1,0.9-1.8,2.1-1.9,3.6l-31.8,2.5c-0.2-0.7-0.5-1.4-1-2L1188.2,23.9z
		 M1163.8,43l-21.5-15.2c0.3-0.7,0.5-1.4,0.5-2.2c0-1-0.3-1.8-0.7-2.6l12.1-10.1c0.9,0.8,2.1,1.2,3.4,1.2c2,0,3.8-1.1,4.7-2.8
		l23.4,7.4c0,0.2,0,0.4,0,0.7c0,1.3,0.4,2.4,1.2,3.3l-16.6,19.5c-0.8-0.5-1.7-0.7-2.7-0.7C1166.1,41.5,1164.8,42.1,1163.8,43z
		 M1155.2,77.7l11.1-25.8c0.4,0.1,0.8,0.1,1.2,0.1c1.8,0,3.3-0.9,4.3-2.2l74.1,35.2c0,0,0,0,0,0.1l-88.3-3.7
		C1157.4,79.9,1156.5,78.6,1155.2,77.7z M1186.4,94.3c-0.3,0.3-0.5,0.6-0.7,0.9l-28-11.7l87.6,3.7c0,0.1,0,0.2,0,0.3l-50.2,8.8
		c-0.3-0.7-0.7-1.4-1.2-1.9C1191.8,92.2,1188.5,92.2,1186.4,94.3z M1222.9,119c-0.8-0.4-1.7-0.7-2.6-0.7c-1.3,0-2.4,0.5-3.4,1.2
		l-22.2-18.9c0.5-0.8,0.7-1.7,0.7-2.6l50.2-8.8c0.2,0.6,0.5,1.1,0.9,1.6L1222.9,119z M1262.3,107.7c-2.9,0-5.3,2.4-5.3,5.3
		c0,0,0,0.1,0,0.1l-32.3,6.7L1248,92c0.8,0.4,1.7,0.7,2.6,0.7c1.9,0,3.6-1,4.5-2.6l18.5,6.9c-0.1,0.3-0.1,0.6-0.1,0.9
		c0,1,0.3,2,0.8,2.8l-8.9,8C1264.6,108.2,1263.5,107.7,1262.3,107.7z M1280.4,135.7l-14.3-19.1c0.9-0.9,1.4-2.2,1.4-3.6
		c0-1-0.3-2-0.8-2.8l8.9-8c0.8,0.6,1.8,1,2.9,1.1l4,31.1C1281.7,134.7,1281,135.1,1280.4,135.7z M1284.4,134.2l-4-31.1
		c2.1-0.7,3.7-2.7,3.7-5c0-1.5-0.6-2.8-1.6-3.8L1299,52c0.3,0.1,0.7,0.1,1,0.1c0.2,0,0.4,0,0.6,0l18.7,61.6
		c-1.7,0.9-2.9,2.7-2.9,4.7c0,0.8,0.2,1.6,0.5,2.3l-28.7,15.5C1287.3,135,1286,134.3,1284.4,134.2z M1353.3,165.8l-34.4,3.9
		c-0.7-2.2-2.7-3.8-5.1-3.8c-1.1,0-2,0.3-2.9,0.8l-22.7-24.2c0.1-0.2,0.2-0.3,0.3-0.5l64.7,23.3
		C1353.4,165.5,1353.4,165.7,1353.3,165.8z M1353.9,163.6l-64.6-23.2c0-0.3,0.1-0.6,0.1-0.9c0-0.6-0.1-1.1-0.3-1.6l28.9-15.7
		c0.9,0.9,2.2,1.5,3.6,1.5c1.1,0,2.2-0.3,3-0.9l30.1,39.7C1354.4,162.7,1354.1,163.1,1353.9,163.6z M1358.6,160.7
		c-0.9,0-1.7,0.2-2.4,0.6l-30.2-39.9c0.2-0.3,0.4-0.7,0.6-1.1l40.8,8c0,0.2,0,0.4,0,0.6c0,2.9,2.3,5.3,5.2,5.3l13.1,32.6
		c-1.2,0.7-2,1.9-2.3,3.2l-19.4-4.2C1363.8,163,1361.5,160.7,1358.6,160.7z M1361.9,170.1c0.8-0.6,1.4-1.4,1.7-2.4l19.6,4.2
		c0.3,2.1,1.7,3.8,3.7,4.4l-4,29.1c-0.6,0-1.2,0.2-1.8,0.4L1361.9,170.1z M1325.5,256.3c-1-1-2.3-1.7-3.9-1.7
		c-0.7,0-1.3,0.1-1.9,0.4l-15.3-24.6c0.4-0.4,0.8-0.9,1.1-1.4l38.4,12.6c0,0.2-0.1,0.5-0.1,0.7c0,0.7,0.1,1.4,0.4,2L1325.5,256.3z
		 M1349.1,237.1c-2,0-3.8,1.1-4.6,2.8l-38.4-12.6c0-0.2,0.1-0.5,0.1-0.7c0-1-0.3-1.8-0.7-2.6l19.1-16c1.6,1.3,3.8,1.6,5.7,0.7
		c0.9-0.4,1.6-1.1,2.1-1.9l26.4,10.8c-0.1,0.4-0.1,0.7-0.1,1.1c0,1.6,0.7,2.9,1.7,3.9l-9.3,15
		C1350.5,237.2,1349.8,237.1,1349.1,237.1z M1386.4,248.2l-32-5.8c0,0,0,0,0,0c0-1.6-0.7-2.9-1.7-3.9l9.3-15
		c0.6,0.2,1.3,0.4,1.9,0.4c2.9,0,5.3-2.4,5.3-5.3c0-0.5-0.1-0.9-0.2-1.4l9.3-4.4c0.8,1.8,2.7,3.1,4.8,3.1c0.1,0,0.2,0,0.3,0
		l5.9,29.2C1388,245.7,1386.9,246.8,1386.4,248.2z M1393.8,245.4c-0.7-0.4-1.6-0.6-2.5-0.6c0,0-0.1,0-0.1,0l-5.9-29.3
		c1.4-0.6,2.4-1.8,2.9-3.2l24.8,3.2c0,0.2,0,0.4,0,0.5c0,1.3,0.5,2.6,1.3,3.5L1393.8,245.4z M1426,244.5l-29.6,3.9
		c-0.2-0.7-0.6-1.3-1.1-1.9l20.5-25.9c0.7,0.4,1.6,0.6,2.5,0.6c0.4,0,0.9-0.1,1.3-0.2l8.7,19.3C1427,241.3,1426.1,242.8,1426,244.5z
		 M1435.4,241.5c-1-1.2-2.5-2-4.1-2c-0.4,0-0.9,0.1-1.3,0.2l-8.7-19.3c1-0.7,1.7-1.7,2.1-2.8l34.2,4.1c0,0.8,0.3,1.5,0.6,2.1
		L1435.4,241.5z M1462.2,216c-2.1,0.2-3.9,1.7-4.5,3.7l-34.2-4.1c0-0.6-0.2-1.3-0.4-1.8l38.2-26.1c0.7,1,1.7,1.7,2.9,2L1462.2,216z"
		/>
	<path class="st2" d="M404.5,57.9L398.2,0h-1.9l6.4,58.1c-0.2,0.1-0.4,0.1-0.6,0.2l-16.9-24.9c0.8-0.9,1.2-2.1,1.2-3.4
		c0-2.3-1.4-4.2-3.5-5L386.6,0h-1.9l-3.6,24.7c-0.1,0-0.2,0-0.3,0L374.6,0h-1.9l6.3,25.2c-0.6,0.3-1.1,0.6-1.6,1.1L344.4,0h-3
		l34.9,27.8c-0.3,0.7-0.5,1.4-0.5,2.2c0,0.9,0.2,1.7,0.6,2.4l-45.7,31.8c-0.6-0.6-1.3-1-2.1-1.3l8.9-62.1c1,0,1.9-0.4,2.7-0.9h-8
		l-26.4,30.8c-0.6-0.3-1.3-0.4-2-0.4c-0.2,0-0.4,0-0.6,0L297.1,0h-1.9l6.2,31c-1.4,0.7-2.5,2.1-2.8,3.7l-26.9,2.4
		c-0.6-2.2-2.7-3.9-5.1-3.9L261.8,6c2-0.7,3.4-2.7,3.4-4.9c0,0,0-0.1,0-0.1l5.1-1h-15.6c-0.1,0.4-0.1,0.7-0.1,1.1
		c0,1,0.3,1.9,0.7,2.6l-28.9,25.9c-0.4-0.3-0.9-0.6-1.3-0.8L230.7,0h-1.9l-5.5,28.5c0,0,0,0-0.1,0c-0.8,0-1.6,0.2-2.2,0.5L204.3,5.4
		c0.9-1,1.5-2.3,1.5-3.7c0-0.6-0.1-1.2-0.3-1.7h-10c-0.2,0.5-0.3,1.1-0.3,1.7c0,2.7,2,4.9,4.6,5.2l2.2,40.4L182,0h-2.1l20.5,48.3
		c-0.9,0.6-1.7,1.5-2.1,2.6l-53.9-3.9c0-1.9-1.1-3.6-2.6-4.5l9.8-29.8c0.2,0,0.5,0.1,0.7,0.1c2.9,0,5.3-2.4,5.3-5.3
		s-2.4-5.3-5.3-5.3c-1.8,0-3.3,0.9-4.3,2.2L138.9,0h-4.4l12.8,6c-0.1,0.4-0.2,0.9-0.2,1.4c0,0,0,0,0,0L121.5,12
		c-0.8-2-2.7-3.4-4.9-3.4c-0.7,0-1.5,0.2-2.1,0.4l-6-9h-2.3l6.7,10.1c-0.5,0.5-0.9,1.1-1.2,1.7L59.2,0H40.9c0.3,0.7,0.8,1.4,1.4,1.9
		L28.8,24.5c-0.5-0.2-0.9-0.3-1.5-0.3L24.9,0H23l2.5,24.3c-1.2,0.3-2.2,1.1-2.9,2L0,15.9V18l21.8,10.1c-0.1,0.4-0.2,0.7-0.2,1.1
		L0,32.4v1.9l21.9-3.2c0.7,2.1,2.7,3.6,5,3.6c1.6,0,3-0.7,4-1.8l26.6,15.8L0,36.5v1.9l57.4,12.1c0,0.1,0,0.1,0,0.2
		c0,0.1,0,0.2,0,0.3l-17.1,5.3c-0.9-1.6-2.6-2.7-4.6-2.7c-1.7,0-3.2,0.8-4.2,2L0,39v2.1l30.6,16.2c-0.2,0.5-0.2,1-0.2,1.6
		c0,0.4,0,0.8,0.1,1.2L0,73.1v2l31.3-13.2c0.9,1.4,2.6,2.4,4.4,2.4c0.6,0,1.2-0.1,1.7-0.3l9.7,14.8c-0.7,0.7-1.2,1.7-1.4,2.7L0,77
		v1.9l45.8,4.5c0.3,1.6,1.3,2.9,2.6,3.6l-10.9,27.8c-0.2,0-0.4,0-0.6,0c-0.8,0-1.6,0.2-2.3,0.5L0,82.2v2.6l33,31.6
		c-0.9,0.9-1.4,2.2-1.4,3.6c0,2,1.1,3.8,2.8,4.7l-7.5,23.7c-0.2,0-0.4,0-0.7,0c-0.5,0-0.9,0.1-1.4,0.2L0,96.1v4.4l23.1,48.8
		c-0.1,0-0.1,0.1-0.2,0.1L0,128.9v2.5l21.7,19.4c-0.5,0.8-0.8,1.7-0.8,2.8c0,0.6,0.1,1.2,0.3,1.8L0,167.6v2.2l20.9-12L0,179.3v2.7
		l23.3-24c0.4,0.3,0.8,0.5,1.3,0.6L15.4,221c-0.7,0-1.4,0.2-2,0.5L0,202.1v3.3l11.8,17.1c-1,1-1.5,2.3-1.5,3.7
		c0,1.8,0.9,3.4,2.3,4.4L0,251.9v10.3c1.7-0.7,2.9-2.1,3.2-3.9l30.7,1.6c0.1,1.1,0.6,2.1,1.3,2.9l-26,32.1c-0.8-0.4-1.6-0.7-2.5-0.7
		c-0.2,0-0.5,0-0.7,0.1L0,264v9.9l4.1,21c-1.6,0.9-2.8,2.6-2.8,4.6c0,2.5,1.8,4.7,4.2,5.2l5.2,53.3c-1.2,0.3-2.3,0.9-3,1.9L0,356.2
		v2.1l6.8,3.2c-0.2,0.5-0.2,1-0.3,1.6L0,364v1.9l6.8-1c0.7,2,2.7,3.5,5,3.5c2.5,0,4.6-1.8,5.2-4.1l31.4,1.3c0.7,2.1,2.7,3.6,5,3.6
		c2.6,0,4.7-1.8,5.2-4.3l24.8-4.2c0.7,2,2.7,3.5,5,3.5c2.9,0,5.3-2.4,5.3-5.3c0-1.6-0.8-3.1-1.9-4.1l12.9-23.2
		c0.5,0.2,1.1,0.3,1.7,0.3c2.9,0,5.3-2.4,5.3-5.3c0-2.8-2.2-5.1-5-5.3L95,226.6c2.2-0.7,3.7-2.7,3.7-5.1c0-1.8-0.9-3.4-2.3-4.4
		l6.6-14.6c0.4,0.1,0.8,0.2,1.3,0.2c0.8,0,1.5-0.2,2.1-0.4l20.2,30.1c-0.7,0.9-1.2,2-1.2,3.3c0,2.9,2.4,5.3,5.3,5.3
		c0.8,0,1.5-0.2,2.2-0.5l17.4,24.9c-0.8,0.9-1.3,2.1-1.3,3.4c0,2.9,2.4,5.3,5.3,5.3c2.7,0,4.9-2,5.2-4.7l24.7-5
		c0.8,2,2.7,3.3,4.9,3.3c2.4,0,4.4-1.6,5.1-3.8l32.4,1.2c0.7,2.1,2.7,3.6,5,3.6c2.9,0,5.3-2.4,5.3-5.3l24.7-4.5
		c0.8,2,2.7,3.4,4.9,3.4c2.9,0,5.3-2.4,5.3-5.3c0-1.6-0.7-3.1-1.9-4.1l12.8-22.8c0.5,0.2,1.1,0.3,1.7,0.3c2.9,0,5.3-2.4,5.3-5.3
		c0-2.8-2.2-5.1-5-5.3l-11.5-94.4c2.2-0.7,3.7-2.7,3.7-5.1c0-2.4-1.6-4.5-3.9-5.1l0.5-5c2.6-0.2,4.7-2.3,4.8-5l25.6-4
		c0.7,2.1,2.7,3.6,5,3.6c2.5,0,4.6-1.8,5.2-4.1l31.2,1.3c0.5,2.4,2.6,4.3,5.2,4.3c2.9,0,5.3-2.4,5.3-5.3c0,0,0-0.1,0-0.1l25.7-5.1
		c0.8,2,2.7,3.4,4.9,3.4c2.9,0,5.3-2.4,5.3-5.3c0-1.6-0.7-3.1-1.9-4l12.6-22c0.6,0.2,1.1,0.3,1.8,0.3c2.9,0,5.3-2.4,5.3-5.3
		C409.4,60.4,407.3,58.1,404.5,57.9z M334.6,0.1c0.3,0.2,0.7,0.4,1,0.5l-8.9,62.1c-0.7,0-1.4,0.2-2.1,0.5l-17.1-23.8
		c0.9-1,1.5-2.2,1.5-3.7c0-1.5-0.7-2.9-1.7-3.9L334.6,0.1z M266.7,43.8c2.8,0,5-2.1,5.3-4.8l26.7-2.4c0.1,0.4,0.2,0.9,0.4,1.3
		l-44.6,31.3c-0.2-0.2-0.4-0.4-0.7-0.6l11.6-25C265.8,43.7,266.2,43.8,266.7,43.8z M271.7,110.4l-0.5,5c-0.7,0.1-1.3,0.2-1.8,0.5
		L251,90.7c0.6-0.9,1-1.9,1-3.1c0-2.9-2.4-5.3-5.3-5.3c-0.4,0-0.8,0-1.1,0.1l-17.7-40.3l19,27.1c-0.9,1-1.5,2.3-1.5,3.7
		c0,2.9,2.4,5.3,5.3,5.3c0.8,0,1.5-0.2,2.2-0.5l16.6,23.8c-1,1-1.5,2.3-1.5,3.7C267.9,107.7,269.5,109.7,271.7,110.4z M256.4,195.3
		l-44.8,31c-0.6-0.6-1.3-1-2.1-1.3l8.6-60.9c1.3,0,2.4-0.5,3.3-1.3l35.3,28c-0.4,0.8-0.7,1.6-0.7,2.6
		C256.1,194.1,256.2,194.7,256.4,195.3z M113.2,132.9l-24.7,22.7l40.6-51.9L119,124.9c-0.4-0.1-0.9-0.2-1.4-0.2
		c-2.9,0-5.3,2.4-5.3,5.3C112.3,131.1,112.6,132,113.2,132.9z M72.4,184.5l7-15.4c0.4,0.1,0.8,0.2,1.3,0.2c0.8,0,1.5-0.2,2.2-0.5
		l17.6,25c-0.4,0.4-0.8,1-1.1,1.5l-24.9-6.1c0-0.1,0-0.2,0-0.3C74.6,187.1,73.7,185.5,72.4,184.5z M90,225.6L77.2,248
		c-0.4-0.2-0.8-0.3-1.2-0.4l-5.2-53.7c0.3-0.1,0.6-0.2,0.9-0.4l17.9,24.4c-0.9,0.9-1.5,2.2-1.5,3.6C88.1,223.2,88.9,224.6,90,225.6z
		 M78.2,296.3l-44.1,31c-0.6-0.6-1.3-1-2.1-1.3l7.5-61.4c1.2-0.1,2.3-0.5,3.1-1.3l35.6,28.8c-0.3,0.6-0.4,1.3-0.4,2.1
		C77.8,295,77.9,295.7,78.2,296.3z M125.4,74.8L137.6,52c0,0,0.1,0,0.1,0l-4.5,39.1c-2,0.1-3.6,1.4-4.4,3.1l-38.1-9.8
		c0-0.1,0-0.2,0-0.3l26.1-3.7c0.7,2.1,2.7,3.5,5,3.5c2.9,0,5.3-2.4,5.3-5.3C127,77.1,126.4,75.8,125.4,74.8z M116.4,78.5l-26,3.7
		c-0.7-2.1-2.7-3.7-5-3.7c-0.6,0-1.2,0.1-1.8,0.3L66.5,54.4c0.1-0.1,0.3-0.3,0.4-0.4L116.7,77C116.5,77.5,116.5,78,116.4,78.5z
		 M64.5,111.9l18.3-23.5c0.4,0.2,0.9,0.4,1.4,0.5L80,158.8c-0.2,0-0.3,0-0.5,0.1l-16.2-39c1.5-0.9,2.4-2.6,2.4-4.4
		C65.8,114.1,65.3,112.8,64.5,111.9z M82,79.8c-0.9,0.7-1.5,1.8-1.8,3l-24-0.6c-0.1-1.8-1-3.3-2.4-4.2l8-21.9c0.3,0,0.6,0.1,0.9,0.1
		c0.8,0,1.6-0.2,2.4-0.6L82,79.8z M56,84l24.2,0.6c0.1,1,0.6,1.8,1.2,2.6L63,110.7c-0.7-0.4-1.6-0.6-2.5-0.6c-0.2,0-0.4,0-0.6,0
		l-6.8-23C54.5,86.6,55.5,85.4,56,84z M60.5,120.7c0.4,0,0.8,0,1.1-0.1l16.2,39c-0.9,0.6-1.6,1.4-2,2.4l-44.3-8.3c0,0,0,0,0,0
		c0-1.2-0.4-2.3-1.1-3.2l27.4-30.5C58.6,120.4,59.5,120.7,60.5,120.7z M31.2,155.5l44.3,8.3c0,0.1,0,0.1,0,0.2
		c0,1.8,0.9,3.4,2.3,4.3l-7,15.4c-0.4-0.1-0.9-0.2-1.3-0.2c-1.3,0-2.5,0.5-3.5,1.3l-35.3-28.2C30.8,156.3,31,155.9,31.2,155.5z
		 M69,194.1l5.2,53.5c-1.4,0.2-2.5,1-3.3,2l-50-22.3c0.1-0.3,0.1-0.7,0.1-1.1c0-0.8-0.2-1.5-0.5-2.2l45.1-31.6
		C66.4,193.4,67.6,194,69,194.1z M70,251.3c-0.1,0.5-0.2,1-0.2,1.5l-25.6,4.6c-0.8-2-2.7-3.4-4.9-3.4c-0.8,0-1.6,0.2-2.3,0.5
		L19.4,230c0.3-0.3,0.5-0.6,0.7-0.9L70,251.3z M43.8,261.8c0.4-0.8,0.7-1.6,0.7-2.5l25.6-4.6c0.8,2,2.7,3.4,4.9,3.4c0,0,0,0,0,0
		l6,31.2c-0.7,0.3-1.3,0.7-1.8,1.2L43.8,261.8z M76.9,257.7c2-0.8,3.4-2.7,3.4-4.9c0-1.4-0.6-2.8-1.5-3.7l12.9-22.6c0,0,0.1,0,0.1,0
		l-8.8,62.4c0,0,0,0-0.1,0L76.9,257.7z M81.9,158.9L86,89c1.8-0.2,3.3-1.3,4.1-2.9l38.1,9.8c0,0.1,0,0.3,0,0.4
		c0,1.4,0.5,2.6,1.3,3.5l-46.4,59.4C82.8,159.1,82.4,159,81.9,158.9z M132.2,101.5c0.4,0.1,0.9,0.2,1.4,0.2c2.7,0,5-2.1,5.3-4.8
		l26.6-2.1c0.1,0.3,0.2,0.6,0.3,0.9l-44.3,30.6c-0.2-0.2-0.4-0.4-0.7-0.6L132.2,101.5z M190.8,128.6L177.3,152
		c-0.4-0.1-0.8-0.2-1.3-0.3l-4.2-53c0.4-0.1,0.7-0.2,1.1-0.4l17.6,22.9c-0.9,0.9-1.4,2.2-1.4,3.6
		C189.1,126.3,189.8,127.6,190.8,128.6z M174.2,151.8c-1.2,0.3-2.3,1.1-3,2.1l-48.4-22.6c0.1-0.4,0.2-0.9,0.2-1.3
		c0-0.8-0.2-1.5-0.5-2.2l44.3-30.6c0.8,0.8,2,1.4,3.2,1.5L174.2,151.8z M121.9,133.1l48.4,22.6c-0.1,0.3-0.1,0.7-0.1,1l-25.2,4.5
		c-0.7-2-2.7-3.4-4.9-3.4c-0.6,0-1.3,0.1-1.8,0.3l-16.9-24.3C121.6,133.6,121.8,133.3,121.9,133.1z M145.4,163.1l25.1-4.5
		c0.7,2.1,2.7,3.6,5,3.6c0.1,0,0.1,0,0.2,0l6.7,30.9c-1.8,0.7-3,2.4-3.2,4.3l-26.9,2c-0.6-2.3-2.7-4-5.1-4c-0.2,0-0.4,0-0.6,0
		l-4.7-27.5C144,167.3,145.4,165.4,145.4,163.1z M177.5,161.8c1.9-0.8,3.3-2.7,3.3-4.9c0-1.6-0.7-3.1-1.9-4l13.5-23.3
		c0.6,0.2,1.3,0.4,2,0.4c0.8,0,1.5-0.2,2.1-0.5l17.5,25.7c-0.8,0.9-1.4,2.2-1.4,3.5c0,1.3,0.4,2.4,1.2,3.3l-26.7,31.3
		c-0.8-0.5-1.7-0.7-2.7-0.7c-0.1,0-0.1,0-0.2,0L177.5,161.8z M268.2,124.5l-13.8,21.9c-0.5-0.2-1-0.3-1.5-0.4l-4.8-53.3
		c0.5-0.1,1-0.4,1.5-0.7l18.3,25c-0.9,0.9-1.5,2.2-1.5,3.6C266.5,122.1,267.1,123.5,268.2,124.5z M251.1,146.2
		c-1.2,0.3-2.3,1.1-2.9,2.1l-48.7-22c0.2-0.5,0.2-1,0.2-1.6c0-0.9-0.2-1.7-0.6-2.4l43.8-31c0.9,0.9,2,1.4,3.3,1.6L251.1,146.2z
		 M247.3,150c-0.1,0.4-0.2,0.8-0.2,1.3c0,0,0,0.1,0,0.1l-24.5,5.1c-0.9-1.7-2.7-2.9-4.7-2.9c-0.9,0-1.7,0.2-2.4,0.6l-17.5-25.7
		c0.2-0.2,0.3-0.3,0.4-0.5L247.3,150z M188.6,194.6l26.7-31.3c0.3,0.2,0.6,0.3,1,0.5l-8.6,60.9c-0.7,0-1.5,0.2-2.1,0.5l-17.3-23.7
		c0.9-0.9,1.5-2.2,1.5-3.6C189.8,196.7,189.3,195.5,188.6,194.6z M222.6,161.3c0.4-0.7,0.6-1.6,0.6-2.5c0-0.2,0-0.4,0-0.5l24.3-5
		c0.8,1.9,2.7,3.3,4.9,3.3c0.1,0,0.1,0,0.2,0l6.8,32c-0.5,0.2-1,0.5-1.5,0.9L222.6,161.3z M254.5,156.2c1.9-0.8,3.3-2.7,3.3-4.9
		c0-1.5-0.7-2.9-1.7-3.9l13.8-21.9c0.1,0,0.2,0.1,0.3,0.1l-8.9,61.8L254.5,156.2z M227.8,31l28.8-25.9c0.9,0.8,2.1,1.2,3.3,1.2
		l4.9,27.2c-2,0.7-3.4,2.7-3.4,4.9c0,1.8,0.9,3.4,2.2,4.3l-11.6,25c-0.4-0.1-0.9-0.2-1.3-0.2c-0.8,0-1.5,0.2-2.2,0.5L227,37.5
		c0.9-1,1.5-2.3,1.5-3.7C228.5,32.8,228.2,31.8,227.8,31z M201.7,6.9c0.4-0.1,0.7-0.2,1-0.4l16.7,23.6c-0.9,1-1.5,2.3-1.5,3.7
		c0,2.9,2.4,5.3,5.3,5.3c0.4,0,0.8-0.1,1.2-0.1l19.4,44.2c-0.3,0.2-0.6,0.4-0.8,0.6L208,55.2c0.4-0.8,0.7-1.6,0.7-2.6
		c0-2.7-2-4.9-4.6-5.2L201.7,6.9z M203.6,57.9c1.2-0.1,2.3-0.5,3.1-1.3l35.2,28.6c-0.3,0.7-0.5,1.5-0.5,2.3c0,0.8,0.2,1.5,0.5,2.2
		L198,120.8c-0.5-0.5-1.2-0.9-1.9-1.1L203.6,57.9z M200.8,57.3c0.3,0.2,0.6,0.3,1,0.4l-7.6,61.7c-0.8,0-1.5,0.2-2.2,0.5l-17.6-22.9
		c0.9-0.9,1.4-2.2,1.4-3.5c0-1.4-0.5-2.6-1.4-3.6L200.8,57.3z M172.9,88.8c-0.7-0.4-1.5-0.6-2.4-0.6c-2.7,0-5,2.1-5.3,4.7L138.6,95
		c-0.1-0.4-0.3-0.8-0.5-1.2l61-37.5L172.9,88.8z M144.2,48.8l53.9,3.9c0,0.7,0.1,1.3,0.4,1.9L137,92.4c-0.6-0.5-1.2-0.8-1.9-1.1
		l4.5-39C141.7,52.1,143.5,50.7,144.2,48.8z M121.8,13.9C121.8,13.9,121.8,13.9,121.8,13.9l25.6-4.7c0.4,1.2,1.3,2.2,2.4,2.8
		l-9.8,29.8c-0.3,0-0.6-0.1-0.9-0.1c-0.8,0-1.5,0.2-2.2,0.5l-16.8-24.5C121.2,16.7,121.8,15.4,121.8,13.9z M118.7,18.7l16.8,24.5
		c-1,1-1.6,2.3-1.6,3.8c0,1.7,0.8,3.2,2,4.1l-12.1,22.6c-0.5-0.2-1-0.4-1.5-0.4L117.9,19C118.2,18.9,118.4,18.8,118.7,18.7z
		 M116,19.2l4.4,54.3c-1.2,0.3-2.2,1-2.9,1.9L67.8,52.2c0.1-0.5,0.2-1,0.2-1.5c0-0.6-0.1-1.2-0.3-1.8l45.2-31.3
		C113.6,18.5,114.8,19,116,19.2z M50.6,0l60.6,13.7c0,0.1,0,0.1,0,0.2c0,0.8,0.2,1.5,0.5,2.2l-45,31.3c-1-1.1-2.4-1.9-4-1.9
		c-0.1,0-0.3,0-0.4,0l-14-42.9C49.3,2,50.2,1.1,50.6,0z M31.9,31.2c0.2-0.6,0.3-1.2,0.3-1.8c0-1.6-0.7-3-1.8-4L43.9,2.9
		c0.6,0.2,1.2,0.3,1.9,0.3c0.2,0,0.5,0,0.7-0.1L60.4,46c-0.6,0.3-1.2,0.7-1.7,1.2L31.9,31.2z M39.1,63c1.2-1,1.9-2.4,1.9-4.1
		c0-0.3,0-0.5-0.1-0.8l16.9-5.3c0.5,1,1.2,1.8,2.2,2.4l-8,21.9c-0.3-0.1-0.7-0.1-1.1-0.1c-0.8,0-1.6,0.2-2.3,0.5L39.1,63z
		 M50.1,87.6c0.3,0,0.5,0.1,0.8,0.1c0.1,0,0.3,0,0.4,0l6.8,23c-1.7,0.9-2.9,2.7-2.9,4.7c0,0,0,0,0,0.1l-13.5,2.6
		c-0.5-1.2-1.4-2.2-2.5-2.8L50.1,87.6z M36.2,125.3c0.2,0,0.4,0,0.7,0c2.9,0,5.3-2.4,5.3-5.3c0,0,0,0,0-0.1l13.5-2.6
		c0.2,0.5,0.4,0.9,0.7,1.3L29,149.1c-0.1-0.1-0.2-0.1-0.3-0.2L36.2,125.3z M26.4,158.9c1,0,2-0.4,2.8-0.9l35.5,28.3
		c-0.4,0.8-0.6,1.6-0.6,2.5c0,0.7,0.2,1.4,0.4,2.1l-45.2,31.6c-0.6-0.6-1.3-1-2-1.3L26.4,158.9z M34.1,258l-30.8-1.6
		c-0.2-1.3-0.9-2.4-1.8-3.2l13-21.7c0.4,0.1,0.8,0.1,1.2,0.1c0.8,0,1.6-0.2,2.3-0.5l17.5,24.6C34.8,256.3,34.3,257.1,34.1,258z
		 M12.6,357.9l-5.2-53.1c2.5-0.4,4.5-2.6,4.5-5.2c0-1.3-0.5-2.5-1.3-3.4l26-32.1c0.3,0.2,0.6,0.3,1,0.4l-7.5,61.4
		c-2.8,0.2-5,2.5-5,5.3c0,1.6,0.8,3.1,1.9,4.1l-12.9,23.2C13.6,358.1,13.1,357.9,12.6,357.9z M48,363.7l-31-1.3
		c-0.2-1.1-0.6-2.1-1.4-2.9l13-23.5c0.5,0.2,1.1,0.3,1.7,0.3c0.8,0,1.5-0.2,2.1-0.5l16.7,24.7C48.5,361.4,48.1,362.5,48,363.7z
		 M82.9,358.8L58.5,363c-0.4-2.5-2.6-4.4-5.2-4.4c-1,0-1.8,0.3-2.6,0.7l-16.6-24.5c0.2-0.2,0.4-0.5,0.6-0.7l48.8,22.4
		C83.2,357.1,83,357.9,82.9,358.8z M84.7,354.9l-49.2-22.6c0.1-0.4,0.2-0.9,0.2-1.3c0-0.8-0.2-1.5-0.5-2.2l44-30.9
		c0.8,0.9,2,1.5,3.2,1.6l4.4,54.3C86.1,354,85.3,354.4,84.7,354.9z M89.9,353.8c-0.4-0.1-0.8-0.2-1.2-0.3l-4.4-54.3
		c0.2-0.1,0.4-0.1,0.6-0.2l17.3,23.7c-0.9,0.9-1.5,2.2-1.5,3.6c0,1.6,0.8,3.1,1.9,4.1L89.9,353.8z M104.6,321.5
		c-0.3,0.1-0.5,0.2-0.7,0.3l-17.3-23.6c1.1-1,1.7-2.4,1.7-3.9c0-2.3-1.5-4.3-3.5-5l8.6-60.4L104.6,321.5z M94.7,216.4
		c-0.4-0.1-0.8-0.2-1.3-0.2c-0.8,0-1.6,0.2-2.3,0.5l-17.9-24.4c0.4-0.4,0.7-0.9,0.9-1.4l24.9,6.1c0,0.1,0,0.2,0,0.3
		c0,1.8,0.9,3.4,2.3,4.4L94.7,216.4z M104.3,192.2c-0.8,0-1.5,0.2-2.2,0.5l-17.6-25c0.9-1,1.5-2.3,1.5-3.7c0-1-0.3-2-0.8-2.8
		l29.3-26.9c0.4,0.3,0.8,0.5,1.3,0.7L104.3,192.2C104.3,192.2,104.3,192.2,104.3,192.2z M106.2,192.6l11.3-57.3c0,0,0.1,0,0.1,0
		c0.8,0,1.5-0.2,2.2-0.5l16.8,24.2c-1.1,1-1.8,2.4-1.8,4c0,1.1,0.3,2.2,0.9,3l-28.4,27.2C107,193,106.6,192.8,106.2,192.6z
		 M132.1,230.6c-0.4-0.1-0.9-0.2-1.4-0.2c-1,0-1.9,0.3-2.7,0.7l-20-29.9c1-1,1.6-2.3,1.6-3.8c0-1.1-0.3-2.1-0.9-2.9l28.4-27.2
		c0.8,0.6,1.9,0.9,3,0.9l4.7,27.8c-1.7,0.9-2.9,2.7-2.9,4.7c0,1.8,0.9,3.3,2.2,4.3L132.1,230.6z M133.8,231.4l12.1-25.5
		c0.4,0.1,0.9,0.2,1.4,0.2c2.7,0,5-2.1,5.3-4.7l26.9-2c0.1,0.3,0.2,0.6,0.3,0.9L134.4,232C134.2,231.8,134,231.6,133.8,231.4z
		 M183.9,262.6l-24.5,4.9c-0.6-2.3-2.6-4-5.1-4c-0.9,0-1.8,0.2-2.6,0.7l-17.3-24.8c0.2-0.2,0.4-0.5,0.6-0.7l49,22.5
		C184,261.6,183.9,262.1,183.9,262.6C183.9,262.6,183.9,262.6,183.9,262.6z M184.9,259.5l-49-22.5c0.1-0.4,0.2-0.9,0.2-1.3
		c0-0.8-0.2-1.5-0.5-2.2l45.3-31.8c0.8,0.8,1.9,1.4,3.2,1.5l4,54.2C186.6,257.7,185.6,258.5,184.9,259.5z M189.8,257.3l-4-54.2
		c0.3-0.1,0.7-0.2,1-0.4l17.3,23.7c-0.9,0.9-1.5,2.2-1.5,3.6c0,1.6,0.7,3.1,1.9,4L191,257.5C190.6,257.4,190.2,257.3,189.8,257.3z
		 M226.4,263.3l-31.9-1.2c-0.1-1.5-0.8-2.8-1.9-3.7l13.5-23.5c0.6,0.2,1.2,0.3,1.8,0.3c0.8,0,1.6-0.2,2.2-0.5l17.7,25
		C227,260.8,226.4,262,226.4,263.3z M261.3,257.2l-24.7,4.5c-0.8-2-2.7-3.4-4.9-3.4c-0.8,0-1.6,0.2-2.2,0.5l-17.7-25
		c0.2-0.2,0.4-0.4,0.5-0.7l49.2,22.8C261.3,256.3,261.3,256.8,261.3,257.2z M262.2,254.2L213,231.4c0.1-0.4,0.2-0.9,0.2-1.3
		c0-0.8-0.2-1.5-0.5-2.2l44.7-30.9c0.9,1,2.1,1.6,3.4,1.7l4.3,53.5C264,252.5,262.9,253.2,262.2,254.2z M268.3,252.2
		c-0.4-0.1-0.8-0.2-1.2-0.3l-4.3-53.5c0.4-0.1,0.7-0.2,1-0.4l16.9,23.5c-0.9,1-1.5,2.2-1.5,3.7c0,1.6,0.7,3.1,1.9,4.1L268.3,252.2z
		 M282.9,220.3c-0.2,0.1-0.5,0.2-0.7,0.3l-17-23.6c0.9-0.9,1.4-2.2,1.4-3.6c0-2.4-1.6-4.4-3.7-5.1l8.8-60.6L282.9,220.3z
		 M303.7,99.7l-25.5,4c-0.7-2.1-2.7-3.7-5-3.7c-0.8,0-1.5,0.2-2.2,0.5l-16.6-23.8c0.2-0.2,0.4-0.4,0.6-0.7l48.9,22.5
		C303.8,98.9,303.8,99.3,303.7,99.7z M304.7,96.8l-48.9-22.5c0.1-0.4,0.2-0.9,0.2-1.3c0-0.8-0.2-1.5-0.5-2.2l44.6-31.3
		c0.8,0.8,2,1.4,3.2,1.5l4.4,53.8C306.4,95.1,305.4,95.8,304.7,96.8z M309.5,94.6l-4.4-53.8c0.3-0.1,0.6-0.2,0.9-0.3l17.1,23.8
		c-0.9,1-1.5,2.2-1.5,3.7c0,1.6,0.7,3.1,1.9,4.1l-12.8,22.8C310.4,94.7,310,94.6,309.5,94.6z M345.3,100.4l-31.1-1.3
		c-0.2-1.3-0.9-2.5-1.9-3.3L325.2,73c0.5,0.2,1.1,0.3,1.7,0.3c0.8,0,1.6-0.2,2.2-0.5l17.6,24.8C346,98.3,345.5,99.3,345.3,100.4z
		 M381.1,94.3l-25.7,5.1c-0.8-2-2.7-3.4-4.9-3.4c-0.8,0-1.6,0.2-2.2,0.5l-17.6-24.8c0.2-0.2,0.4-0.5,0.6-0.7l49.9,22
		C381.2,93.3,381.1,93.8,381.1,94.3C381.1,94.2,381.1,94.2,381.1,94.3z M382,91.2l-49.9-22c0.1-0.4,0.2-0.8,0.2-1.2
		c0-0.8-0.2-1.5-0.5-2.2l45.8-31.8c0.9,0.8,2.1,1.3,3.4,1.4l4.1,53.8C383.8,89.4,382.7,90.2,382,91.2z M388.2,89.2
		c-0.4-0.1-0.8-0.2-1.2-0.3L382.8,35c0.3-0.1,0.6-0.2,0.9-0.4l16.8,24.8c-1,1-1.6,2.3-1.6,3.8c0,1.6,0.7,3.1,1.9,4L388.2,89.2z"/>
	<g>
		<g>
			<g>
				<circle class="st3" cx="657.4" cy="115.1" r="14"/>
			</g>
			<g>
				<circle class="st3" cx="657.4" cy="221.8" r="14"/>
			</g>
			<g>
				<circle class="st3" cx="749.7" cy="275.1" r="14"/>
			</g>
			<g>
				<circle class="st3" cx="749.7" cy="61.8" r="14"/>
			</g>
			<g>
				<circle class="st3" cx="842.1" cy="115.1" r="14"/>
			</g>
			<g>
				<circle class="st3" cx="842.1" cy="221.8" r="14"/>
			</g>
			<g>
				<path class="st3" d="M657.4,198.5c-3.3,0-6-2.7-6-6v-48.2c0-3.3,2.7-6,6-6c3.3,0,6,2.7,6,6v48.2
					C663.4,195.8,660.7,198.5,657.4,198.5z"/>
			</g>
			<g>
				<path class="st3" d="M723.4,265.9c-1,0-2.1-0.3-3-0.8l-39.8-23c-2.9-1.7-3.9-5.4-2.2-8.2c1.7-2.9,5.4-3.9,8.2-2.2l39.8,23
					c2.9,1.7,3.9,5.4,2.2,8.2C727.6,264.9,725.5,265.9,723.4,265.9z"/>
			</g>
			<g>
				<path class="st3" d="M776,265.9c-2.1,0-4.1-1.1-5.2-3c-1.7-2.9-0.7-6.6,2.2-8.2l39.8-23c2.9-1.7,6.6-0.7,8.2,2.2
					c1.7,2.9,0.7,6.6-2.2,8.2l-39.8,23C778.1,265.7,777.1,265.9,776,265.9z"/>
			</g>
			<g>
				<path class="st3" d="M842.1,198.5c-3.3,0-6-2.7-6-6v-48.2c0-3.3,2.7-6,6-6s6,2.7,6,6v48.2C848.1,195.8,845.4,198.5,842.1,198.5z
					"/>
			</g>
			<g>
				<path class="st3" d="M815.8,106c-1,0-2.1-0.3-3-0.8l-39.8-23c-2.9-1.7-3.9-5.4-2.2-8.2c1.7-2.9,5.4-3.9,8.2-2.2l39.8,23
					c2.9,1.7,3.9,5.4,2.2,8.2C819.9,104.9,817.9,106,815.8,106z"/>
			</g>
			<g>
				<path class="st3" d="M683.7,106c-2.1,0-4.1-1.1-5.2-3c-1.7-2.9-0.7-6.6,2.2-8.2l39.8-23c2.9-1.7,6.6-0.7,8.2,2.2
					c1.7,2.9,0.7,6.6-2.2,8.2l-39.8,23C685.7,105.7,684.7,106,683.7,106z"/>
			</g>
			<g>
				<path class="st4" d="M804.1,217.7H695.4c-3.3,0-6-2.7-6-6s2.7-6,6-6h108.6c3.3,0,6,2.7,6,6S807.4,217.7,804.1,217.7z"/>
			</g>
			<g>
				<path class="st5" d="M804.1,217.7h-54.3c-3.3,0-6-2.7-6-6s2.7-6,6-6h54.3c3.3,0,6,2.7,6,6S807.4,217.7,804.1,217.7z"/>
			</g>
			<g>
				<path class="st6" d="M684.6,197.2c-1,0-2.1-0.3-3-0.8c-2.9-1.7-3.9-5.4-2.2-8.2l53.4-92.6c1.7-2.9,5.4-3.9,8.2-2.2
					c2.9,1.7,3.9,5.4,2.2,8.2l-53.4,92.6C688.7,196.1,686.7,197.2,684.6,197.2z"/>
			</g>
			<g>
				<path class="st7" d="M684.6,197.2c-1,0-2.1-0.3-3-0.8c-2.9-1.7-3.9-5.4-2.2-8.2l26.7-46.3c1.7-2.9,5.4-3.9,8.2-2.2
					c2.9,1.7,3.9,5.4,2.2,8.2l-26.7,46.3C688.7,196.1,686.7,197.2,684.6,197.2z"/>
			</g>
			<g>
				<path class="st8" d="M815,197.3c-2.1,0-4.1-1.1-5.2-3l-53.6-92.9c-1.7-2.9-0.7-6.6,2.2-8.2c2.9-1.7,6.6-0.7,8.2,2.2l53.6,92.9
					c1.7,2.9,0.7,6.6-2.2,8.2C817,197.1,816,197.3,815,197.3z"/>
			</g>
			<g>
				<path class="st9" d="M788.1,150.9c-2.1,0-4.1-1.1-5.2-3l-26.8-46.4c-1.7-2.9-0.7-6.6,2.2-8.2c2.9-1.7,6.6-0.7,8.2,2.2l26.8,46.4
					c1.7,2.9,0.7,6.6-2.2,8.2C790.2,150.6,789.2,150.9,788.1,150.9z"/>
			</g>
		</g>
		<g>
			<path d="M395.8,329.6c14.3,0,23.3,6.9,28.6,15.1l-12.2,6.6c-3.2-4.9-9.1-8.7-16.4-8.7c-12.5,0-21.7,9.6-21.7,22.7
				c0,13.1,9.1,22.7,21.7,22.7c6.3,0,11.9-2.6,14.9-5.3v-8.4h-18.4v-12.6h32.9v26.4c-7,7.9-16.9,13.1-29.4,13.1
				c-20.2,0-36.8-14.1-36.8-35.8C359.1,343.5,375.6,329.6,395.8,329.6z"/>
			<path d="M436.7,349.8h13.2v6.8c3.5-4.5,9.7-8,16-8v12.8c-0.9-0.2-2.2-0.3-3.6-0.3c-4.4,0-10.2,2.4-12.3,5.6v33.1h-13.2V349.8z"/>
			<path d="M504,394.7c-3.4,4-9.3,6.4-15.9,6.4c-8,0-17.4-5.4-17.4-16.6c0-11.7,9.4-16,17.4-16c6.6,0,12.5,2.1,15.9,6.1v-6.9
				c0-5.1-4.4-8.4-11-8.4c-5.4,0-10.4,2-14.6,5.9l-5-8.8c6.1-5.4,14-7.9,21.9-7.9c11.4,0,21.9,4.6,21.9,19v32.3H504V394.7z
				 M504,381.6c-2.2-2.9-6.3-4.4-10.6-4.4c-5.2,0-9.4,2.8-9.4,7.6c0,4.7,4.2,7.4,9.4,7.4c4.2,0,8.4-1.5,10.6-4.4V381.6z"/>
			<path d="M530.2,418.9v-69.1h13.2v6.3c3.8-4.9,9.3-7.6,15.4-7.6c12.8,0,22.2,9.5,22.2,26.2c0,16.7-9.3,26.3-22.2,26.3
				c-5.9,0-11.4-2.5-15.4-7.7v25.5H530.2z M554.7,360.3c-4.2,0-9.1,2.5-11.3,5.7v17.7c2.2,3.1,7,5.7,11.3,5.7
				c7.6,0,12.6-5.9,12.6-14.6C567.3,366.2,562.2,360.3,554.7,360.3z"/>
			<path d="M624.7,369.4c0-6.9-3.6-9.1-9.3-9.1c-5.1,0-9.1,2.9-11.4,5.9v33.7h-13.2v-69.1H604v25.6c3.2-3.8,9.4-7.8,17.6-7.8
				c11,0,16.3,6,16.3,15.7v35.5h-13.2V369.4z"/>
			<path d="M711.1,389.8l5.1,5.9l-10.3,8.4l-5.5-6.5c-4.9,2.3-10.5,3.5-16.5,3.5c-20.8,0-36.1-14.9-36.1-35.7
				c0-20.8,15.2-35.7,36.1-35.7c20.9,0,36.2,14.9,36.2,35.7C720.1,375.1,716.8,383.6,711.1,389.8z M691.2,386.8l-7.9-9.2l10.3-8.3
				l7.9,9.2c2.3-3.6,3.5-8.2,3.5-13.2c0-13-8.3-22.7-21-22.7s-20.9,9.7-20.9,22.7c0,12.8,8.2,22.7,20.9,22.7
				C686.5,388.1,689,387.7,691.2,386.8z"/>
			<path d="M730.5,330.8h14.7v56.2h29.2v13h-43.9V330.8z"/>
			<path d="M780.9,369.2h24.9v11.2h-24.9V369.2z"/>
			<path d="M815.7,330.8h48.9v12.6h-34.2v15h33.5v12.6h-33.5v16.1h34.2v12.7h-48.9V330.8z"/>
			<path d="M909.6,393.6c-3.4,3.8-9.4,7.6-17.6,7.6c-11,0-16.2-6-16.2-15.7v-35.5H889v30.4c0,6.9,3.6,9.2,9.2,9.2
				c5.1,0,9.1-2.8,11.4-5.7v-33.9h13.2v50h-13.2V393.6z"/>
			<path d="M935.8,349.8H949v6.8c3.5-4.5,9.7-8,16-8v12.8c-0.9-0.2-2.2-0.3-3.6-0.3c-4.4,0-10.2,2.4-12.3,5.6v33.1h-13.2V349.8z"/>
			<path d="M969.9,374.8c0-14.2,9.9-26.2,26.4-26.2c16.6,0,26.5,12,26.5,26.2c0,14.3-9.9,26.3-26.5,26.3
				C979.8,401.1,969.9,389.1,969.9,374.8z M1009.2,374.8c0-7.8-4.7-14.5-12.8-14.5s-12.7,6.7-12.7,14.5c0,7.9,4.6,14.6,12.7,14.6
				S1009.2,382.7,1009.2,374.8z"/>
			<path d="M1032.6,418.9v-69.1h13.2v6.3c3.8-4.9,9.3-7.6,15.4-7.6c12.8,0,22.2,9.5,22.2,26.2c0,16.7-9.3,26.3-22.2,26.3
				c-5.9,0-11.4-2.5-15.4-7.7v25.5H1032.6z M1057,360.3c-4.2,0-9.1,2.5-11.3,5.7v17.7c2.2,3.1,7,5.7,11.3,5.7
				c7.6,0,12.6-5.9,12.6-14.6C1069.7,366.2,1064.6,360.3,1057,360.3z"/>
			<path d="M1115.9,348.6c14.9,0,25.1,11.2,25.1,27.6v2.9h-37.2c0.8,6.3,5.9,11.6,14.4,11.6c4.7,0,10.2-1.9,13.4-5l5.8,8.5
				c-5.1,4.7-12.8,6.9-20.6,6.9c-15.2,0-26.7-10.3-26.7-26.3C1090,360.3,1100.6,348.6,1115.9,348.6z M1103.5,370.1h24.7
				c-0.3-4.8-3.6-11.1-12.3-11.1C1107.7,359.1,1104.2,365.2,1103.5,370.1z"/>
		</g>
		<g>
			<path d="M465.3,444.9h16.3c7,0,11.8,3.9,11.8,11.1c0,5.5-3.8,9.2-7.7,10c4.6,0.7,8.5,5.7,8.5,10.7c0,7.4-4.8,11.7-12.4,11.7
				h-16.6V444.9z M481.6,465c6.4,0,9.6-4,9.6-9c0-4.9-3.2-9.1-9.6-9.1h-14.2V465H481.6z M481.9,486.3c6.4,0,10.1-3.8,10.1-9.7
				c0-4.9-3.4-9.7-10.1-9.7h-14.5v19.4H481.9z"/>
			<path d="M517.3,456.1c9.6,0,14.6,7.7,14.6,16.5v0.6h-27.1c0.2,7.7,5.2,14.1,13.2,14.1c4.4,0,8-1.6,10.9-4.7l1.2,1.2
				c-3.2,3.3-6.8,5.3-12.1,5.3c-9.1,0-15.4-7-15.4-16.5C502.5,463.4,508.8,456.1,517.3,456.1z M504.7,471.4h25c0-6-4-13.6-12.6-13.6
				C509.2,457.8,504.9,465.2,504.7,471.4z"/>
			<path d="M541.4,456.8h2v5.7c2.8-3.7,6.2-6.3,10.8-6.3v2.3c-0.6-0.1-1-0.1-1.6-0.1c-3.3,0-7.8,3.3-9.2,6.2v23.5h-2V456.8z"/>
			<path d="M561.1,444.9h2v43.4h-2V444.9z"/>
			<path d="M573.4,449.6c0-1,0.9-1.9,1.9-1.9c1,0,1.9,0.8,1.9,1.9s-0.8,1.9-1.9,1.9C574.3,451.4,573.4,450.6,573.4,449.6z
				 M574.3,456.8h2v31.4h-2V456.8z"/>
			<path d="M608.6,466.3c0-6.6-3.3-8.5-8.1-8.5c-4.3,0-8.9,2.8-11.1,5.9v24.5h-2v-31.4h2v4.9c2.3-2.9,7-5.7,11.4-5.7
				c6.2,0,9.8,2.9,9.8,10.3v21.9h-2V466.3z"/>
			<path d="M619.9,494.8c2.1-1.6,3.4-4,3.4-6l-0.5,0.1c-1.2,0-2.1-1-2.1-2.1c0-1.1,0.8-2.1,2.1-2.1c1.4,0,2.5,1.2,2.5,3.4
				c0,3.3-2,6.4-4,7.9L619.9,494.8z"/>
			<path d="M688.9,447.3L672,488.3h-0.7l-16.9-40.9v40.9h-2.1v-43.4h3.3l16,38.8l16-38.8h3.3v43.4h-2.1V447.3z"/>
			<path d="M722.6,484.4c-2.9,3.2-6.4,4.6-10.9,4.6c-5.5,0-11-3.8-11-10.5s5.4-10.5,11-10.5c4.4,0,7.9,1.4,10.9,4.6v-7.1
				c0-5.1-4-7.8-8.8-7.8c-4.1,0-7.2,1.4-10.1,4.9l-1.5-1.3c3.1-3.6,6.3-5.4,11.6-5.4c6.2,0,10.8,3.1,10.8,9.5v22.7h-2V484.4z
				 M722.6,474.7c-2.4-3.2-6.2-4.8-10.3-4.8c-5.7,0-9.4,3.8-9.4,8.7s3.6,8.7,9.4,8.7c4.1,0,7.9-1.6,10.3-4.8V474.7z"/>
			<path d="M736.5,499.2c2.1,0,3.5-0.9,4.9-4.3l2.9-6.5l-13.5-31.6h2.3l12.4,29.1l12.3-29.1h2.3l-16.6,38.8
				c-1.5,3.4-3.8,5.3-6.9,5.3c-1.1,0-2.3-0.2-3.1-0.5l0.4-1.8C734.5,499,735.7,499.2,736.5,499.2z"/>
			<path d="M781.5,486.4c13.9-11.5,25.2-21.1,25.2-30.4c0-7-5.7-9.8-10.8-9.8c-5.5,0-9.8,2.4-12,5.9l-1.7-1.2
				c2.7-4,7.6-6.6,13.7-6.6c5.5,0,12.8,3.2,12.8,11.8c0,10.1-11.3,19.6-24.2,30.3h24.3v2h-27.4V486.4z"/>
			<path d="M825.4,447.9l-6.8,7.5l-1.4-1.5l8.4-9h2v43.4h-2.1V447.9z"/>
			<path d="M837.6,482.6c2,2.6,5.3,4.7,9.9,4.7c5.8,0,9.3-3.1,9.3-7.3c0-4.6-4.7-5.9-9.5-7.2c-5.2-1.4-10.7-2.7-10.7-8.5
				c0-4.6,3.9-8.3,10.7-8.3c5.4,0,8.8,2.1,10.8,4.7l-1.4,1.3c-1.8-2.6-5.1-4.3-9.4-4.3c-5.5,0-8.7,2.9-8.7,6.6c0,4.1,4.4,5.1,9,6.4
				c5.4,1.4,11.2,2.9,11.2,9.2c0,4.9-3.6,9-11.3,9c-4.9,0-8.4-1.4-11.5-5L837.6,482.6z"/>
			<path d="M868.7,482.7v-24.1h-5.2v-1.8h5.2v-8.6h2v8.6h6.4v1.8h-6.4v24.1c0,2.7,1,4.6,3.4,4.6c1.6,0,2.9-0.8,3.7-1.7l1.2,1.5
				c-1.2,1.2-2.5,2-4.9,2C870.4,489,868.7,486.6,868.7,482.7z"/>
			<path d="M883.1,494.8c2.1-1.6,3.4-4,3.4-6l-0.5,0.1c-1.2,0-2.1-1-2.1-2.1c0-1.1,0.8-2.1,2.1-2.1c1.4,0,2.5,1.2,2.5,3.4
				c0,3.3-2,6.4-4,7.9L883.1,494.8z"/>
			<path d="M913.6,486.4c13.9-11.5,25.2-21.1,25.2-30.4c0-7-5.7-9.8-10.8-9.8c-5.5,0-9.8,2.4-12,5.9l-1.7-1.2
				c2.7-4,7.6-6.6,13.7-6.6c5.5,0,12.8,3.2,12.8,11.8c0,10.1-11.3,19.6-24.2,30.3H941v2h-27.4V486.4z"/>
			<path d="M967,444.2c11.4,0,15.4,12.3,15.4,22.4c0,10-4,22.4-15.4,22.4c-11.4,0-15.5-12.4-15.5-22.4
				C951.6,456.5,955.6,444.2,967,444.2z M967,446.2c-10,0-13.2,11.2-13.2,20.4c0,9.2,3.2,20.5,13.2,20.5c9.9,0,13.1-11.3,13.1-20.5
				C980.2,457.4,977,446.2,967,446.2z"/>
			<path d="M996.9,447.9l-6.8,7.5l-1.4-1.5l8.4-9h2v43.4h-2.1V447.9z"/>
			<path d="M1031.7,446.8H1007v-2h27.1v1.4l-19.2,41.9h-2.3L1031.7,446.8z"/>
		</g>
		<g>
		</g>
	</g>
	<path class="st2" d="M1500,789.8c-0.1,0-0.1,0-0.2,0.1l-20-22.1c0.6-0.9,0.9-1.9,0.9-3c0-1.3-0.5-2.5-1.2-3.4l20.5-29.7v-3.3
		l-22,31.8c-0.8-0.4-1.7-0.7-2.6-0.7c-2.8,0-5.1,2.2-5.3,5l-25.7,4.9c-0.1-0.2-0.2-0.4-0.3-0.5l55.8-41.6v-2.4l-57.1,42.5
		c-0.4-0.4-0.9-0.7-1.5-0.9l0.9-39c2.2-0.4,4-2.1,4.4-4.3l53.3-0.4v-1.9l-53.3,0.4c-0.3-1.7-1.5-3.2-3.1-3.9l7.6-31.6
		c2.8-0.1,5-2.4,5-5.3c0-1.8-0.9-3.3-2.2-4.3l10.7-22.7c0.4,0.1,0.9,0.2,1.4,0.2c0.2,0,0.4,0,0.6,0l33.4,58.8v-3.8l-31.5-55.5
		c0.4-0.2,0.8-0.5,1.2-0.9l23.5,16.9c-0.2,0.6-0.4,1.2-0.4,1.9c0,2.9,2.3,5.2,5.2,5.3l2,13.1v-12.3l-0.2-1.1c0.1,0,0.1-0.1,0.2-0.1
		v-9.8c-0.6-0.2-1.2-0.4-1.9-0.4c-1.6,0-3,0.7-3.9,1.8l-23.4-16.9c0.3-0.7,0.5-1.5,0.5-2.3c0-1.1-0.3-2-0.9-2.9l29.6-18.5v-2.2
		l-30.9,19.4c-0.4-0.3-0.9-0.5-1.4-0.7l12.5-78.4c1.7,0,3.3-0.9,4.2-2.2l15.5,9.1v-2.2l-14.7-8.7c0.1-0.2,0.1-0.5,0.1-0.7l14.6-0.9
		v-1.9l-14.7,0.9c-0.2-1-0.8-1.9-1.5-2.6l10.9-25c0.5,0.1,1,0.2,1.5,0.2c1.5,0,2.8-0.6,3.8-1.6v-8.7l-0.8,0.7
		c-0.7-0.5-1.5-0.8-2.4-0.9l3-62.2c0.1,0,0.2,0,0.3-0.1V448c-0.3-0.1-0.6-0.1-1-0.1c-0.9,0-1.7,0.2-2.4,0.6L1477,425
		c0.4-0.6,0.7-1.3,0.8-2.1l22.2,9.1v-2l-22.3-9.2c-0.2-0.7-0.4-1.3-0.8-1.8l23.1-18.5v-2.4l-24.4,19.6c-0.5-0.4-1.1-0.6-1.8-0.8
		l3.3-62.7c1.2-0.2,2.3-0.7,3.1-1.5l19.8,13.5v-2.3l-18.7-12.7c0.3-0.7,0.5-1.4,0.5-2.1c0-2.9-2.4-5.3-5.3-5.3
		c-2.9,0-5.3,2.4-5.3,5.3c0,0.8,0.2,1.6,0.5,2.3l-58.2,43.9c-0.9-0.7-2-1.1-3.2-1.1c-2.9,0-5.3,2.4-5.3,5.3c0,1.5,0.6,2.9,1.7,3.9
		l-40.6,63c-0.6-0.3-1.3-0.4-2-0.4c-2.9,0-5.3,2.4-5.3,5.3s2.4,5.3,5.3,5.3c0.9,0,1.8-0.2,2.6-0.7l18.9,23.1
		c-0.8,0.9-1.3,2.1-1.3,3.4c0,2.9,2.4,5.3,5.3,5.3c1,0,1.9-0.3,2.6-0.7l23.5,27.9c-0.8,0.9-1.2,2.1-1.2,3.4c0,2.2,1.4,4.1,3.3,4.9
		l-6.9,33.2c0,0-0.1,0-0.1,0c-1,0-1.9,0.3-2.7,0.7l-20-23.3c0.7-0.9,1.2-2.1,1.2-3.3c0-2.9-2.4-5.3-5.3-5.3c-2.9,0-5.3,2.4-5.3,5.3
		c0,0.4,0,0.8,0.1,1.2l-68.8,29.1c-0.9-1.4-2.6-2.4-4.4-2.4c-2.9,0-5.3,2.4-5.3,5.3c0,1.1,0.3,2,0.9,2.9l-53.2,50
		c-1.9-1.1-4.4-1-6.1,0.5c-2.2,1.9-2.4,5.3-0.5,7.5c1.4,1.6,3.6,2.2,5.5,1.6l18.2,41.6c-1.3,0.9-2.2,2.3-2.3,3.9l-15.9,3.9
		c-0.8-1.8-2.7-3.1-4.8-3.1c-1,0-1.9,0.3-2.7,0.7l-19.1-22c0.7-0.9,1.2-2.1,1.2-3.3c0-2.9-2.4-5.3-5.3-5.3c-2.9,0-5.3,2.4-5.3,5.3
		c0,0.4,0,0.7,0.1,1l-69.7,27.7c-1-1.4-2.5-2.3-4.4-2.3c-2.9,0-5.3,2.4-5.3,5.3c0,1.1,0.3,2.1,0.9,3l-52,50.3c-0.9-0.6-1.9-1-3.1-1
		c-2.9,0-5.3,2.4-5.3,5.3s2.4,5.3,5.3,5.3c0.4,0,0.8,0,1.2-0.1l17.6,41.2c-0.1,0.1-0.2,0.2-0.3,0.2h9.3l40.6-34
		c0.8,0.6,1.7,1.1,2.7,1.2l5.5,32.8h1.9l-5.5-32.9c0.2-0.1,0.5-0.1,0.7-0.2l19.8,24.1c-0.8,0.9-1.3,2.1-1.3,3.4
		c0,1.8,0.9,3.3,2.2,4.3l-0.6,1.4h2.1l0.3-0.6c0.4,0.1,0.9,0.2,1.4,0.2c0.4,0,0.7,0,1.1-0.1l0.2,0.5h2.1l-0.5-1.2
		c1-0.7,1.8-1.7,2.2-2.9l32.4,4.1h15.1l-47.2-5.9c0-0.5-0.1-1-0.3-1.5l38.4-18.3c0.9,1.5,2.6,2.5,4.5,2.5c1.2,0,2.2-0.4,3.1-1
		l17.7,24.1c0,0.1-0.1,0.1-0.1,0.2h7.9c-1-1.1-2.4-1.8-4-1.8c-0.8,0-1.6,0.2-2.3,0.5l-17.9-24.4c0.2-0.3,0.4-0.7,0.5-1.1l49.8,17.3
		c-0.3,0.6-0.5,1.4-0.5,2.1l-22,7.3h6l16.3-5.4c0.6,1.7,2,3,3.7,3.4l-0.5,1.9h1.9l0.5-1.8c0.3,0,0.6-0.1,0.9-0.2l0.6,2h2l-0.9-2.9
		c0.4-0.3,0.8-0.7,1.1-1.1l5.2,4h3.1l-7.4-5.7c0.1-0.4,0.2-0.9,0.2-1.3c0-1.8-0.9-3.4-2.3-4.3l10.9-22.7c0.6,0.3,1.4,0.4,2.1,0.4
		c0.2,0,0.4,0,0.6,0l18.6,33.7h2.2l-19-34.3c0.5-0.3,1-0.6,1.3-1l40.8,33.1c-0.4,0.7-0.6,1.4-0.6,2.2h10.5c-0.1-0.9-0.4-1.8-0.8-2.5
		l32.9-31l-23.6,33.5h2.3l25-35.5c0.5,0.2,0.9,0.4,1.5,0.4l1.3,35h1.9l-1.3-35.1c1.8-0.4,3.2-1.7,3.8-3.4l38.8,6.5
		c0,1.4,0.6,2.7,1.6,3.6l-18.4,28.4h2.3l15.5-23.9l-8.7,21.9c0,0-0.1,0-0.1,0c-1.7,0-3.1,0.8-4.1,2h8.3l41.5-34.7
		c0.9,0.7,2.1,1.2,3.3,1.2c0.2,0,0.4,0,0.5,0l5.7,33.5h1.9l-5.8-34.1c0.2-0.1,0.5-0.2,0.7-0.4l19.8,21.9c-1,1-1.6,2.3-1.6,3.8
		c0,1.8,0.9,3.4,2.3,4.3l-2,4.5h2.1l1.1-2.5V789.8z M1441.8,717c-0.1,0-0.2,0-0.3,0c-1,0-1.9,0.3-2.7,0.7l-20.1-23.1
		c1-1,1.6-2.3,1.6-3.8c0-0.2,0-0.4,0-0.5l25.9-7.4c0.6,1.3,1.8,2.3,3.1,2.7L1441.8,717z M1370.5,729.4l41.1-34.6
		c0.7,0.6,1.7,1.1,2.7,1.2l10.2,53.2c-1.1,0.4-2,1.2-2.6,2.2l-50.6-18.6c0-0.2,0-0.4,0-0.7C1371.3,731.2,1371,730.3,1370.5,729.4z
		 M1287.9,724.9l-11.7,5.9c-0.8-1.4-2.3-2.4-4-2.6l-3.4-31c0.6-0.1,1.2-0.3,1.7-0.6l18.2,23.3c-0.7,0.9-1.1,2-1.1,3.2
		C1287.6,723.7,1287.7,724.3,1287.9,724.9z M1271.9,695.4c0.3-0.4,0.5-0.8,0.7-1.2l50.4,18.5c-0.1,0.3-0.1,0.6-0.1,0.9
		c0,0.2,0,0.3,0,0.5l-25.2,7c-0.8-2-2.7-3.4-4.9-3.4c-1,0-2,0.3-2.8,0.8L1271.9,695.4z M1401.7,628.9l-9.4,24.8
		c-0.6-0.2-1.2-0.3-1.8-0.3c-1.7,0-3.2,0.8-4.2,2l-28.3-14.9c0-0.2,0-0.3,0-0.5c0-1.8-0.9-3.3-2.2-4.3l10.7-22.7
		c0.4,0.1,0.9,0.2,1.4,0.2c1.8,0,3.4-0.9,4.4-2.3l26.4,11.8c-0.1,0.4-0.1,0.8-0.1,1.2C1398.4,626.2,1399.8,628.1,1401.7,628.9z
		 M1469.4,426.3l-10.7,24.6c-0.4-0.1-0.8-0.1-1.2-0.1c0,0,0,0,0,0l-9.7-52.9c0.5-0.2,1-0.4,1.4-0.7l19.3,21.6
		c-0.7,0.9-1.1,2-1.1,3.3C1467.3,423.8,1468.1,425.3,1469.4,426.3z M1455.6,451.1c-1.1,0.4-2,1.2-2.6,2.2l-50.6-19.5
		c-0.1-0.8-0.3-1.5-0.7-2.1l40.8-35.1c0.9,0.9,2.1,1.4,3.4,1.5L1455.6,451.1z M1402.2,435.8l50.1,19.3c-0.1,0.3-0.1,0.6-0.1,1
		c0,0.2,0,0.3,0,0.4l-24.9,6.7c-0.3-0.7-0.8-1.3-1.5-1.9c-1.7-1.4-4.1-1.5-5.9-0.5l-19.1-22.8C1401.5,437.4,1402,436.6,1402.2,435.8
		z M1426.7,468.8c0.9-1.1,1.2-2.4,1.1-3.7l24.9-6.7c0.8,1.8,2.7,3,4.8,3c0.2,0,0.4,0,0.6,0l9.5,31.1c-1.3,0.7-2.3,1.9-2.7,3.3
		l-27,4.3c-0.8-1.6-2.4-2.8-4.3-3l-8.6-26.9C1425.7,469.8,1426.3,469.4,1426.7,468.8z M1433.1,507.6c2.9,0,5.3-2.4,5.3-5.3
		c0-0.1,0-0.3,0-0.4l26.4-4.2c0.1,0.7,0.3,1.4,0.6,2l-42.2,34.5c-0.2-0.2-0.5-0.4-0.7-0.5l9.7-26.1
		C1432.5,507.5,1432.8,507.6,1433.1,507.6z M1474.9,560.2l-25.1,6.3c-0.9-1.5-2.6-2.5-4.5-2.5c-0.8,0-1.6,0.2-2.3,0.5l-19.1-23
		c0.3-0.4,0.6-0.8,0.8-1.3l50.3,18.7c-0.1,0.3-0.1,0.6-0.1,0.9C1474.9,560,1474.9,560.1,1474.9,560.2z M1441.4,565.6
		c-0.9,1-1.5,2.2-1.5,3.7c0,2.6,1.9,4.7,4.3,5.2l-3.6,37.7c-0.1,0-0.2,0-0.3,0l-19.5-68.8c0.5-0.1,1-0.3,1.5-0.6L1441.4,565.6z
		 M1449.1,675.6c-1.2,0.4-2.1,1.2-2.7,2.3l-50.6-18.4c0-0.3,0.1-0.6,0.1-0.9c0-0.9-0.3-1.8-0.7-2.6l41.5-34.6c0.9,0.7,2,1.2,3.2,1.2
		L1449.1,675.6z M1445.7,681.1l-25.9,7.4c-0.9-1.7-2.7-2.9-4.7-2.9c-0.9,0-1.7,0.2-2.4,0.6l-18.2-23.9c0.3-0.3,0.5-0.6,0.7-0.9
		l50.6,18.4c0,0.3-0.1,0.6-0.1,0.9C1445.6,680.8,1445.6,681,1445.7,681.1z M1340.5,685.8l-10.9,22.7c-0.4-0.1-0.9-0.2-1.4-0.2
		c0,0-0.1,0-0.1,0l-10.6-53.2c0.7-0.1,1.3-0.3,1.8-0.6l20.2,23.6c-0.7,0.9-1.2,2.1-1.2,3.3C1338.3,683.3,1339.2,684.9,1340.5,685.8z
		 M1320.8,653.4c0.9-0.9,1.4-2.2,1.4-3.5c0-0.2,0-0.4,0-0.6l25.8-7c0.6,1.2,1.5,2.1,2.7,2.6l-6.9,31.4c-0.1,0-0.1,0-0.2,0
		c-1,0-1.9,0.3-2.7,0.7L1320.8,653.4z M1352.6,645.3c0.1,0,0.1,0,0.2,0c2.1,0,3.9-1.2,4.7-3l28,14.7c-0.2,0.5-0.2,1-0.2,1.6
		c0,0.5,0.1,0.9,0.2,1.4l-37.8,18.1c-0.5-0.6-1.2-1.1-2-1.5L1352.6,645.3z M1386.2,661.8c1,1.3,2.5,2.2,4.3,2.2
		c0.9,0,1.7-0.2,2.4-0.6l18.2,23.9c-0.5,0.5-0.9,1.2-1.1,1.9l-61.2-8.5c-0.1-0.3-0.1-0.6-0.2-0.9L1386.2,661.8z M1394,654.6
		l9.6-25.3c0,0,0.1,0,0.1,0c2.8,0,5-2.1,5.3-4.8l26.1-5.1c0.1,0.2,0.2,0.5,0.3,0.7L1394,654.6z M1371.8,604.4
		c-1-1.1-2.4-1.8-3.9-1.8c-0.9,0-1.8,0.2-2.6,0.7l-18.9-23.1c0.5-0.6,0.9-1.3,1.1-2.1l58,4c0.1,0.5,0.2,0.9,0.3,1.3L1371.8,604.4z
		 M1363.9,604.5c-0.8,0.9-1.3,2.1-1.3,3.4c0,1.8,0.9,3.3,2.2,4.3l-10.7,22.7c-0.4-0.1-0.8-0.2-1.3-0.2l-8.7-53
		c0.3-0.1,0.5-0.2,0.8-0.3L1363.9,604.5z M1351,635.1c-1.2,0.4-2.2,1.2-2.8,2.3l-50.6-18.5c0.1-0.9,0-1.9-0.4-2.7l41.8-35.2
		c0.9,0.7,2,1.2,3.2,1.2L1351,635.1z M1347.6,639.1c-0.1,0.3-0.1,0.6-0.1,0.9c0,0.2,0,0.3,0,0.5l-25.9,7c-0.9-1.7-2.7-2.9-4.7-2.9
		c-1,0-1.9,0.3-2.6,0.7l-18-23.5c0.3-0.3,0.6-0.7,0.8-1.1L1347.6,639.1z M1312.8,646.5c-0.4,0.5-0.7,1-0.9,1.5l-61.6-8.3
		c0-0.1,0-0.1,0-0.2l37.8-18.2c0.5,0.7,1.2,1.3,2.1,1.7c1.5,0.7,3.2,0.6,4.5-0.1L1312.8,646.5z M1313.6,654c0.6,0.5,1.3,0.8,2,1
		l10.8,53.7c-1.1,0.4-2,1.2-2.6,2.2l-50.6-18.6c0-0.1,0-0.2,0-0.3c0-1.2-0.4-2.3-1.1-3.2L1313.6,654z M1323.5,715.9
		c0.9,1.8,2.7,3,4.8,3c1.8,0,3.3-0.9,4.3-2.2l28.6,13.5c-0.1,0.2-0.1,0.3-0.2,0.5l-62.7-7.7L1323.5,715.9z M1333.4,715
		c0.1-0.4,0.2-0.9,0.2-1.4c0-1.8-0.9-3.3-2.2-4.3l10.9-22.7c0.4,0.1,0.9,0.2,1.4,0.2c0.4,0,0.8-0.1,1.2-0.2l18.2,41.2
		c-0.3,0.2-0.6,0.5-0.9,0.7L1333.4,715z M1346.6,685.9c1.1-0.8,1.9-1.9,2.2-3.3l61,8.5c0,0.8,0.3,1.6,0.6,2.3l-41.2,34.7
		c-0.9-0.7-2-1.1-3.2-1.1c-0.4,0-0.8,0.1-1.2,0.2L1346.6,685.9z M1416.2,696.1c0.3-0.1,0.7-0.2,1-0.3l20.2,23.2
		c-0.7,0.9-1.2,2.1-1.2,3.3c0,1.8,0.9,3.3,2.2,4.3l-10.7,22.5c-0.4-0.1-0.9-0.2-1.4-0.2c0,0,0,0-0.1,0L1416.2,696.1z M1452.3,675.5
		c-0.4-0.1-0.9-0.2-1.3-0.2l-9.2-52.9c0.3-0.1,0.6-0.3,0.9-0.4l19.3,23.1c-0.8,0.9-1.2,2.1-1.2,3.4c0,1.8,0.9,3.3,2.2,4.3
		L1452.3,675.5z M1463.4,643.9l-19.3-23.2c0.8-0.9,1.2-2.1,1.2-3.4c0-2-1.1-3.8-2.8-4.7l3.5-36.7l17.7,67.8
		C1463.7,643.8,1463.5,643.9,1463.4,643.9z M1465.9,643.2c-0.1,0-0.2,0-0.3,0l-18.1-69.2c1.8-0.8,3.1-2.7,3.1-4.8c0-0.3,0-0.7-0.1-1
		l24.9-6.3c0.6,1.3,1.7,2.3,3.1,2.8L1465.9,643.2z M1475.6,557.1l-50.6-18.8c0-0.1,0-0.1,0-0.2c0-0.9-0.2-1.8-0.7-2.6l42.2-34.5
		c0.9,0.8,2.1,1.3,3.4,1.3l9.2,52.3C1477.7,554.9,1476.4,555.8,1475.6,557.1z M1482.2,554.9c-0.3-0.1-0.7-0.2-1-0.3l-9.3-52.6
		c0.3-0.1,0.6-0.3,0.9-0.4l19.5,20.7c-0.8,0.9-1.4,2.2-1.4,3.5c0,1.7,0.8,3.2,2.1,4.2L1482.2,554.9z M1497.1,458.1
		c0.2,0.1,0.5,0.2,0.7,0.2l-3,62.4c-0.4,0.1-0.7,0.2-1.1,0.4l-19.6-20.8c0.7-0.9,1.1-2,1.1-3.3c0-1.5-0.6-2.8-1.6-3.8L1497.1,458.1z
		 M1472.1,492.2c-0.6-0.3-1.4-0.4-2.1-0.4c-0.2,0-0.4,0-0.6,0l-9.5-31.1c1.5-0.8,2.6-2.3,2.8-4.1l31.2-2c0.3,1,0.8,1.8,1.5,2.5
		L1472.1,492.2z M1475.7,426.4l19.5,23.3c-0.8,0.8-1.3,1.9-1.4,3.1l-31.1,2c-0.3-1.3-1.1-2.4-2.2-3.1l10.6-24.5
		c0.5,0.1,1,0.2,1.5,0.2C1473.8,427.4,1474.8,427,1475.7,426.4z M1474.2,353.8c0.3,0.2,0.7,0.3,1,0.4l-3.3,62.7
		c-0.7,0.1-1.4,0.4-2,0.7l-19.3-21.7c0.6-0.9,1-1.9,1-3c0-1.5-0.6-2.8-1.6-3.8L1474.2,353.8z M1472.3,353.2l-24,34.8
		c-0.7-0.3-1.4-0.5-2.1-0.5c-2.6,0-4.8,1.9-5.2,4.4l-26,4.9c0-0.1-0.1-0.2-0.1-0.2L1472.3,353.2z M1409.2,404.6
		c0.4,0.1,0.7,0.1,1.1,0.1c2.9,0,5.3-2.4,5.3-5.3c0-0.3,0-0.5-0.1-0.8l25.4-4.8c0.1,0.4,0.2,0.8,0.4,1.2l-40.9,35.2
		c-0.3-0.3-0.7-0.5-1-0.6L1409.2,404.6z M1388.7,497.1c-0.6,0.1-1.2,0.3-1.7,0.6l-18.9-23.1c0.8-0.9,1.3-2.1,1.3-3.4
		c0-1.5-0.6-2.9-1.7-3.9l38.1-59.1l-8.2,20.9c-0.2,0-0.3,0-0.5,0c-2.9,0-5.3,2.4-5.3,5.3c0,2.1,1.2,3.9,3,4.8L1388.7,497.1z
		 M1390.6,497.1l6.1-57.5c0.1,0,0.3,0,0.4,0c0.8,0,1.5-0.2,2.2-0.5l19.2,23c0,0,0,0-0.1,0.1c-1.6,1.9-1.5,4.6,0,6.5l-26.1,29.1
		C1391.8,497.5,1391.2,497.2,1390.6,497.1z M1417.1,533.5l-23.5-27.9c0.8-0.9,1.2-2.1,1.2-3.4c0-1.2-0.4-2.3-1.1-3.2l26.1-29.1
		c1.1,0.6,2.3,0.9,3.4,0.8l8.4,26.5c-2.2,0.6-3.9,2.7-3.9,5.1c0,1.9,1,3.6,2.6,4.5l-9.7,26.1c-0.3-0.1-0.6-0.1-0.9-0.1
		C1418.8,532.8,1417.9,533.1,1417.1,533.5z M1419.3,544.8l19.1,67.5c-0.3,0.1-0.7,0.3-1,0.4l-22.8-27.8c0.8-0.9,1.3-2.1,1.3-3.4
		c0-2.2-1.4-4.1-3.3-4.9L1419.3,544.8z M1410.7,586.8c0.9,0,1.8-0.2,2.6-0.7L1436,614c-0.8,0.9-1.3,2.1-1.3,3.4c0,0,0,0.1,0,0.1
		l-26,5.1c-0.6-2.2-2.7-3.9-5.1-3.9c-1.8,0-3.4,0.9-4.4,2.4l-26.3-11.8c0.1-0.4,0.2-0.8,0.2-1.3c0-0.7-0.1-1.3-0.4-1.9l34-21
		C1407.8,586.1,1409.2,586.8,1410.7,586.8z M1379.5,553.3c0.9,1.4,2.6,2.4,4.4,2.4c1,0,1.9-0.3,2.7-0.7l20,23.3
		c-0.5,0.6-0.8,1.3-1,2l-58-4c-0.3-2.7-2.5-4.8-5.3-4.8c-2.9,0-5.2,2.3-5.3,5.2l-23.2,4.3L1379.5,553.3z M1305.5,588.9
		c2.9,0,5.3-2.4,5.3-5.3c0,0,0,0,0,0l26.6-5c0.1,0.3,0.3,0.6,0.4,0.9l-41.6,35.1c-0.3-0.3-0.7-0.6-1.1-0.8l9.4-24.9
		C1304.9,588.8,1305.2,588.9,1305.5,588.9z M1302.4,587.8c0.1,0.1,0.3,0.2,0.4,0.3l-9.4,24.9c-2.4-0.4-4.8,0.8-5.8,3.1
		c-0.5,1.2-0.6,2.4-0.3,3.5l-37.8,18.2c0-0.1-0.1-0.1-0.1-0.2L1302.4,587.8z M1248.4,645.2c0.1-0.1,0.2-0.1,0.3-0.2
		c1-0.9,1.6-2.1,1.8-3.3l61.2,8.2c0,0.9,0.3,1.8,0.7,2.6l-41.7,35c-0.8-0.5-1.7-0.8-2.8-0.8c-0.4,0-0.8,0.1-1.2,0.1L1248.4,645.2z
		 M1247.2,697.6c0-0.1,0-0.2,0-0.3l15.6-3.8c0.5,1.9,2.1,3.4,4.1,3.8l3.4,31.1c-0.4,0.1-0.8,0.3-1.2,0.5L1246,701
		C1246.7,700.1,1247.2,698.9,1247.2,697.6z M1241.9,702.9c0.9,0,1.8-0.2,2.6-0.7l23.1,27.8c-0.8,0.9-1.2,2.1-1.2,3.4
		c0,0.2,0,0.3,0,0.5l-26.6,4.3c-0.7-2-2.7-3.5-5-3.5c-1.8,0-3.3,0.9-4.3,2.2l-25.4-12.2c0-0.2,0.1-0.5,0.1-0.7c0-0.7-0.1-1.4-0.4-2
		l33.2-20.9C1239,702.2,1240.4,702.9,1241.9,702.9z M1129,731.7l40.7-35.1c0.7,0.8,1.7,1.3,2.8,1.5l9.5,52.9
		c-1.1,0.4-2.1,1.2-2.7,2.3l-49.7-18c0-0.3,0.1-0.6,0.1-0.9C1129.7,733.4,1129.5,732.5,1129,731.7z M1174.4,698.1
		c0.4-0.1,0.8-0.2,1.2-0.4l20.4,22.7c-0.9,0.9-1.4,2.2-1.4,3.6c0,1.8,0.9,3.4,2.3,4.3l-11.5,22.5c-0.5-0.1-1-0.2-1.5-0.2
		L1174.4,698.1z M1177.2,696.6c0.8-0.8,1.3-1.7,1.5-2.8l57.9,4.3c0.1,0.5,0.2,1,0.4,1.4l-33.2,20.9c-1-1.1-2.4-1.7-3.9-1.7
		c-0.8,0-1.6,0.2-2.3,0.5L1177.2,696.6z M1211.5,670.6c0.9,1.5,2.6,2.5,4.5,2.5c1,0,1.9-0.3,2.7-0.7l19.1,22c-0.5,0.6-0.8,1.2-1,2
		l-58.1-4.3c-0.5-2.5-2.6-4.3-5.2-4.3c-2.9,0-5.2,2.3-5.3,5.1l-23,4.2L1211.5,670.6z M1136.7,704.8c2.9,0,5.3-2.4,5.3-5.3
		c0,0,0-0.1,0-0.1l26.5-4.8c0,0.1,0.1,0.3,0.2,0.4l-40.9,35.3c-0.3-0.2-0.5-0.4-0.8-0.6l8.1-25.2
		C1135.5,704.7,1136.1,704.8,1136.7,704.8z M1133.1,704.4l-7.9,24.8c-0.2,0-0.5,0-0.7,0c-2.9,0-5.3,2.4-5.3,5.3c0,0.5,0.1,1,0.2,1.4
		l-37.2,17.9L1133.1,704.4z M1102.1,803.5c-0.9-0.7-2-1.1-3.2-1.1c-0.4,0-0.8,0-1.2,0.1l-17.6-41.2c1-0.7,1.8-1.7,2.1-2.8l61.4,7.7
		c0.1,0.6,0.3,1.3,0.6,1.8L1102.1,803.5z M1143.8,764.4l-61.3-7.7c0-0.4-0.1-0.8-0.2-1.1l37.8-18.1c1,1.3,2.5,2.2,4.3,2.2
		c0.9,0,1.7-0.2,2.5-0.6l18.1,23C1144.4,762.7,1144,763.5,1143.8,764.4z M1149,760.2c-0.9,0-1.7,0.2-2.5,0.6l-18.1-23
		c0.2-0.3,0.4-0.5,0.6-0.8l49.7,18c0,0.3-0.1,0.6-0.1,0.9c0,0.5,0.1,0.9,0.2,1.4l-25.6,5.1C1152.2,761.1,1150.7,760.2,1149,760.2z
		 M1174.7,792.6C1174.7,792.6,1174.7,792.6,1174.7,792.6c-1,0-1.8,0.2-2.6,0.7l-19.6-23.9c1.1-1,1.7-2.4,1.7-3.9
		c0-0.5-0.1-1-0.2-1.4l25.6-5c0.5,0.6,1,1.1,1.7,1.5L1174.7,792.6z M1217.4,776l-38.6,18.5c-0.6-0.7-1.3-1.2-2.2-1.5l6.6-31.8
		c0.2,0,0.5,0.1,0.7,0.1c1.7,0,3.3-0.8,4.2-2.1l29.4,14.5c-0.1,0.5-0.2,1-0.2,1.5C1217.3,775.4,1217.3,775.7,1217.4,776z
		 M1222.6,769.8c-1.7,0-3.3,0.8-4.2,2.1l-29.4-14.5c0.1-0.5,0.2-1,0.2-1.5c0-1.7-0.8-3.2-2.1-4.2l11.5-22.6c0.4,0.1,0.9,0.2,1.3,0.2
		c2,0,3.8-1.1,4.6-2.8l25.2,12.1c-0.1,0.4-0.2,0.9-0.2,1.4c0,2,1.1,3.7,2.7,4.6l-8.8,25.2C1223.1,769.8,1222.9,769.8,1222.6,769.8z
		 M1225.5,770.7c-0.1-0.1-0.2-0.1-0.3-0.2l8.8-25.2c0.3,0,0.5,0.1,0.8,0.1c2.9,0,5.2-2.3,5.3-5.2l26.8-4.4c0.1,0.2,0.2,0.3,0.3,0.5
		L1225.5,770.7z M1278.5,792.6l-50.6-17.6c0-1.1-0.4-2.2-1-3l41.6-34.3c0.9,0.7,2,1.1,3.2,1.1c0.1,0,0.1,0,0.2,0l8.5,52.8
		C1279.6,791.8,1279,792.1,1278.5,792.6z M1283.3,791.4c-0.4-0.1-0.8-0.2-1.2-0.2l-8.5-52.9c0.2-0.1,0.4-0.2,0.6-0.3l19.7,23.2
		c-0.8,0.9-1.2,2.1-1.2,3.4c0,1.5,0.6,2.8,1.6,3.8L1283.3,791.4z M1295.5,760l-19.7-23.2c0.7-0.9,1.2-2.1,1.2-3.3
		c0-0.3,0-0.6-0.1-0.9l12.1-6c0.8,0.9,1.9,1.5,3.2,1.7l3.9,31.5C1295.8,759.8,1295.6,759.9,1295.5,760z M1298.1,759.3
		c-0.1,0-0.1,0-0.2,0l-3.9-31.1c1.8-0.4,3.3-1.7,3.9-3.4l62.9,7.7c0,0.4,0.1,0.7,0.2,1.1l-58.5,28
		C1301.5,760.2,1299.9,759.3,1298.1,759.3z M1350.4,799.7c-0.9-0.6-2-1-3.1-1c-1.3,0-2.5,0.5-3.4,1.3l-40.9-33.1l82.4-2.4
		c0.1,0.6,0.4,1.2,0.7,1.7L1350.4,799.7z M1385.3,762.5l-82,2.4c0-0.1,0-0.2,0-0.3c0-0.4-0.1-0.9-0.2-1.3l58.5-28
		c1,1.3,2.5,2.2,4.3,2.2c1,0,2-0.3,2.8-0.8l17.5,23.4C1385.8,760.8,1385.4,761.6,1385.3,762.5z M1395.5,761.5c-0.7-2-2.7-3.5-5-3.5
		c-1,0-2,0.3-2.8,0.8l-17.5-23.4c0.2-0.2,0.3-0.5,0.5-0.7l50.5,18.6c-0.1,0.3-0.1,0.6-0.1,0.9c0,0.1,0,0.3,0,0.4L1395.5,761.5z
		 M1434.6,769.7l-38.5-6.4l25.5-6.8c0.8,1.8,2.7,3,4.8,3c2.9,0,5.3-2.4,5.3-5.3c0-1.8-0.9-3.3-2.2-4.3l10.7-22.5
		c0.1,0,0.2,0.1,0.3,0.1l-0.8,38.7C1437.3,766.1,1435.3,767.6,1434.6,769.7z M1429.1,802.3c-0.2-0.1-0.5-0.3-0.7-0.4l10.1-25.4
		c0.4,0.1,0.7,0.1,1.1,0.1c2.9,0,5.3-2.4,5.3-5.3c0-0.1,0-0.2,0-0.3l25.5-4.8c0.1,0.4,0.3,0.8,0.5,1.1L1429.1,802.3z"/>
	<g class="st10">
		<polygon class="st11" points="-33.8,803.6 -34.6,803.5 -34.6,803.6 		"/>
		<path class="st11" d="M-18.3,796.3c1.8,0,3.5-0.9,4.4-2.4l19.1,9.6h4.2l-22.5-11.4c0.1-0.4,0.1-0.8,0.1-1.2c0-2.1-1.2-3.9-2.9-4.7
			L-4.6,764c0.5,0.2,1,0.2,1.6,0.2c0.4,0,0.8-0.1,1.2-0.1l17,39.5h2.1L0,763.4c0.7-0.5,1.3-1.1,1.7-1.8l61.6,7.5
			c0,0.7,0.2,1.4,0.5,2l-38.5,32.4h2.9l36.7-30.9c0.9,0.9,2.2,1.4,3.6,1.4l5.3,29.5h1.9l-5.4-29.8c0.3-0.1,0.5-0.2,0.8-0.4
			l19.5,23.3c-0.6,0.9-1,1.9-1,3.1c0,1.5,0.7,2.9,1.7,3.9h7.2c0.8-0.8,1.4-1.8,1.6-2.9l54.3-0.1c0.1,0.5,0.2,1,0.5,1.5l-2.1,1.6
			h10.5c0,0,0.1-0.1,0.2-0.1l0.2,0.1h3.3l-2.4-1.7c0.3-0.7,0.5-1.4,0.5-2.2c0-2.9-2.3-5.2-5.1-5.3l-6.3-40.8
			c0.3-0.1,0.6-0.2,0.9-0.4l18.4,22.3c-0.6,0.9-1,1.9-1,3.1c0,2.9,2.4,5.3,5.3,5.3c0.4,0,0.9-0.1,1.3-0.2l10.8,19.8h2.2L181.1,785
			l16,18.6h2.5L181.1,782c0.8-0.9,1.2-2.1,1.2-3.4c0-1.2-0.4-2.3-1.1-3.2l26.9-28c0.8,0.6,1.8,0.9,2.9,0.9c0.1,0,0.2,0,0.4,0
			l6.8,26.8c-1.8,0.8-3,2.7-3,4.8c0,2,1.2,3.8,2.8,4.7l-6.3,19.2h2l6.2-18.6c0.2,0,0.4,0,0.6,0c2.6,0,4.7-1.8,5.2-4.3l26.9-4.8
			c0.1,0.4,0.3,0.8,0.6,1.1l-31.6,26.6h2.9l30-25.2c0.9,0.6,1.9,1,3.1,1c0,0,0,0,0,0l4.4,24.2h1.9l-4.5-24.6c0.3-0.1,0.7-0.3,1-0.5
			l19.7,21.4c-1,0.9-1.7,2.2-1.8,3.6h10.5c-0.1-0.8-0.3-1.5-0.7-2.2l42.4-35.5c0.9,0.7,2.1,1.2,3.3,1.2l6.4,36.5h1.9l-6.5-36.8
			c2-0.7,3.5-2.7,3.5-5c0-2.6-1.9-4.8-4.4-5.2l3.4-61.4l19.8,91.8c-1.9,0.8-3.3,2.7-3.3,4.9c0,1.8,0.9,3.4,2.3,4.4l-3.2,7.2h2.1
			l2.9-6.4c0.4,0.1,0.8,0.2,1.2,0.2c2.9,0,5.3-2.4,5.3-5.3s-2.4-5.3-5.3-5.3c-0.1,0-0.1,0-0.2,0l-20.2-93.6c1.9-0.8,3.3-2.7,3.3-4.9
			c0-2.9-2.4-5.3-5.3-5.3c-1,0-1.9,0.3-2.7,0.7l-19.4-22.7c0.5-0.8,0.8-1.8,0.8-2.8c0-2.9-2.4-5.3-5.3-5.3c-1.5,0-2.8,0.6-3.8,1.6
			l-37.2-25c0.4-0.7,0.6-1.5,0.6-2.4c0-2.9-2.4-5.3-5.3-5.3c-1.4,0-2.6,0.5-3.6,1.4l-31.6-28.4c0.5-0.8,0.8-1.8,0.8-2.8
			c0-2.9-2.4-5.3-5.3-5.3c-0.1,0-0.1,0-0.2,0l-20.9-93.6c1.9-0.8,3.2-2.7,3.2-4.9c0-2.9-2.4-5.3-5.3-5.3c-1,0-1.9,0.3-2.7,0.7
			l-19.5-22.1c0.8-0.9,1.3-2.1,1.3-3.5c0-2.9-2.4-5.3-5.3-5.3c-1.7,0-3.2,0.8-4.2,2l-37.7-24.6c0.4-0.8,0.7-1.7,0.7-2.6
			c0-2.9-2.4-5.3-5.3-5.3c-2.9,0-5.3,2.4-5.3,5.3c0,0.6,0.1,1.1,0.3,1.7l-65.7,37.5c-1-1.2-2.4-1.9-4-1.9c-2.9,0-5.3,2.4-5.3,5.3
			c0,1.6,0.7,3,1.8,3.9l-32.6,69.5c-0.4-0.1-0.9-0.2-1.4-0.2c-2.9,0-5.3,2.4-5.3,5.3c0,2.9,2.4,5.3,5.3,5.3c0.9,0,1.8-0.2,2.5-0.6
			l18.7,23.3c-0.7,0.9-1.1,2-1.1,3.2c0,2.4,1.6,4.4,3.7,5l-3,37.9c-0.3-0.1-0.6-0.1-0.9-0.1c-2.9,0-5.3,2.4-5.3,5.3
			c0,0.4,0,0.8,0.1,1.2l-66.8,28.3v2l67.6-28.6c0.9,1.4,2.6,2.4,4.4,2.4c1,0,1.9-0.3,2.6-0.7l19.6,23.2c-0.5,0.6-0.8,1.3-1,2
			L1,653.2c-0.5-2.4-2.6-4.3-5.2-4.3c-2.9,0-5.3,2.4-5.3,5.3c0,0.1,0,0.2,0,0.3l-25.2,5.8v1.9l25.6-5.9c0.2,0.4,0.4,0.7,0.6,1
			l-26.2,22.1v2.5L-7,658.7c0.7,0.4,1.4,0.7,2.3,0.8l9.2,53c-1,0.4-1.9,1.1-2.5,1.9l-36.5-12.8v2l35.7,12.5
			c-0.1,0.4-0.2,0.9-0.2,1.3c0,0.1,0,0.3,0,0.4l-26.1,6.7c-0.9-1.5-2.6-2.5-4.5-2.5c-0.7,0-1.4,0.2-2.1,0.4l-2.9-3.8v3.1l1.4,1.8
			c-0.6,0.6-1.1,1.3-1.4,2.1v3.3c0.1,0.4,0.3,0.8,0.5,1.1l-0.5,0.4v2.5l1.8-1.5c0.7,0.6,1.6,0.9,2.5,1.1l9.6,53.8
			c-0.9,0.5-1.7,1.2-2.2,2.2l-11.7-4.2v2l11.1,4c0,0.2-0.1,0.5-0.1,0.7c0,0.1,0,0.1,0,0.2l-11.1,3.1v2l11.5-3.3
			C-22.4,795-20.5,796.3-18.3,796.3z M63.4,767.3l-61.2-7.5c0-0.3,0.1-0.5,0.1-0.8c0-0.6-0.1-1.1-0.3-1.6l37.8-17.9
			c1,1.3,2.5,2.2,4.3,2.2c0.8,0,1.5-0.2,2.2-0.5l18.3,24C64.1,765.7,63.7,766.5,63.4,767.3z M9.3,713.2l10.8-22.7
			c0.4,0.1,0.8,0.1,1.2,0.1c1.6,0,3.1-0.7,4.1-1.9L52,702.5c0.3,1.5,1.2,2.7,2.5,3.4l-9.4,25.2c-0.3-0.1-0.6-0.1-0.9-0.1
			c-1.7,0-3.3,0.8-4.2,2.1l-28.6-14.2c0.1-0.5,0.2-1,0.2-1.5C11.5,715.7,10.6,714.1,9.3,713.2z M65.7,654.1l7.3-33.2
			c0.1,0,0.1,0,0.2,0c0.1,0,0.3,0,0.4,0L92,690c-0.1,0.1-0.3,0.1-0.4,0.2l-23.8-27.9c0.7-0.9,1.2-2.1,1.2-3.3
			C69,656.8,67.6,654.9,65.7,654.1z M123.1,503.9l-10.9,24.5c-0.4-0.1-0.8-0.2-1.2-0.2c-0.3,0-0.7,0-1,0.1l-8.3-53
			c0.3-0.1,0.7-0.3,1-0.5l19.1,21.8c-0.6,0.8-0.9,1.9-0.9,2.9C120.8,501.3,121.7,502.9,123.1,503.9z M222.5,596.3l-11.1,23.6
			c-0.4-0.1-0.9-0.2-1.4-0.2l-9.5-53c0.4-0.1,0.8-0.3,1.1-0.5l19.6,22.7c-0.6,0.8-0.9,1.9-0.9,3
			C220.3,593.7,221.2,595.3,222.5,596.3z M257,703.9l-10.8,23.6c-0.4-0.1-0.8-0.2-1.2-0.2l-8.9-52c0.3-0.1,0.6-0.2,0.8-0.4l18.6,22
			c-0.5,0.8-0.7,1.7-0.7,2.7C254.8,701.3,255.6,702.9,257,703.9z M316.1,722.3l-23.8,6.3c-0.8-1.9-2.7-3.2-4.9-3.2
			c-1,0-1.9,0.3-2.6,0.7l-20.6-23.3c0.2-0.2,0.3-0.4,0.4-0.6l51.6,18.3c-0.1,0.4-0.2,0.8-0.2,1.3
			C316.1,721.9,316.1,722.1,316.1,722.3z M283.4,727.3c-0.6,0.7-1,1.5-1.1,2.4l-32.2,1.6c-0.3-1.3-1.1-2.4-2.1-3.1l10.8-23.6
			c0.4,0.1,0.9,0.2,1.3,0.2c1,0,1.9-0.3,2.7-0.8L283.4,727.3z M243.1,727.6c-1.2,0.4-2.2,1.3-2.8,2.4l-50.5-17
			c0-0.2,0.1-0.5,0.1-0.8c0-1.1-0.4-2.2-1-3.1l42-34.9c0.9,0.8,2.1,1.2,3.3,1.2L243.1,727.6z M187.5,707.9c-0.1-0.1-0.2-0.1-0.3-0.2
			l9.7-26.6c0.3,0,0.6,0.1,0.9,0.1c2.7,0,4.9-2,5.2-4.7l26.5-4.1c0.1,0.1,0.1,0.3,0.2,0.4L187.5,707.9z M180.4,715.5l-22.8,25.2
			l36.3-57l-8.5,23.4c-0.3,0-0.6-0.1-0.9-0.1c-2.9,0-5.3,2.4-5.3,5.3C179.3,713.5,179.7,714.6,180.4,715.5z M192.9,677.9l-69.7,44.2
			c-0.7-0.7-1.7-1.2-2.7-1.4l13.2-78.2c1.6,0,3-0.7,3.9-1.8l55.5,32.7c-0.4,0.8-0.6,1.6-0.6,2.5
			C192.5,676.6,192.6,677.3,192.9,677.9z M116.1,730l-10.2,22.9c-0.4-0.1-0.8-0.1-1.2-0.2l-8.7-53c0.2-0.1,0.4-0.2,0.6-0.3
			l18.2,23.8c-0.5,0.8-0.7,1.7-0.7,2.7C114.2,727.6,114.9,729.1,116.1,730z M98.2,698.4c0.9-0.9,1.4-2.2,1.4-3.5
			c0-2.4-1.6-4.5-3.9-5.1l3.4-37.7c0,0,0.1,0,0.1,0c2.9,0,5.3-2.4,5.3-5.3c0-0.4-0.1-0.8-0.1-1.2l24.5-6.1c0.6,1.3,1.7,2.3,3,2.8
			l-13.3,78.5c-0.9,0.2-1.7,0.5-2.3,1.1L98.2,698.4z M118.2,574.2l-26.7,3.5c-0.8-2-2.7-3.4-4.9-3.4c-0.2,0-0.5,0-0.7,0.1l-7.6-26.7
			c1.8-0.8,3-2.6,3.1-4.7l25.4-6.4c1,1.3,2.5,2.1,4.2,2.1c0.2,0,0.5,0,0.7-0.1l9.4,30.6c-1.7,0.9-2.9,2.6-2.9,4.7
			C118.2,574.1,118.2,574.1,118.2,574.2z M84,575c-1.5,0.8-2.5,2.3-2.7,4l-33.2-0.2c-0.2-1-0.6-1.8-1.2-2.5l26.2-28.9
			c0.8,0.5,1.8,0.9,2.9,0.9c0.1,0,0.3,0,0.4,0L84,575z M194.3,564.1L153,599.2c-0.7-0.6-1.6-1-2.5-1.1l2.1-62c1.3,0,2.5-0.5,3.4-1.4
			l38,25.1c-0.2,0.6-0.4,1.2-0.4,1.9C193.7,562.6,193.9,563.4,194.3,564.1z M180.4,633.9l24.6-7.2c0.5,1.4,1.5,2.6,2.9,3.2
			l-9.9,40.8c-0.1,0-0.1,0-0.2,0c-0.5,0-1,0.1-1.5,0.2l-17.8-32.3c1.2-1,2-2.4,2-4.1C180.4,634.2,180.4,634.1,180.4,633.9z
			 M204.8,624.8l-24.9,7.3c-0.9-1.7-2.7-2.9-4.7-2.9c-0.8,0-1.6,0.2-2.3,0.5l-19-23.2c0.1-0.2,0.3-0.4,0.4-0.6l50.6,18.2
			C204.8,624.3,204.8,624.6,204.8,624.8z M146.2,607.3l-11.3,24.9c-0.3-0.1-0.6-0.1-1-0.1l-8.6-53c0.4-0.2,0.9-0.4,1.2-0.7
			l19.7,20.9c-1.2,1-1.9,2.4-1.9,4.1C144.4,604.9,145.1,606.3,146.2,607.3z M147.8,608.2c0.6,0.2,1.2,0.3,1.8,0.3c1,0,2-0.3,2.8-0.8
			l18.9,23c-0.8,0.9-1.4,2-1.5,3.3l-31.1,1.9c-0.3-1.3-1.1-2.4-2.1-3.1L147.8,608.2z M148.6,598.1c-0.2,0-0.4,0.1-0.6,0.2L127.9,577
			c0.6-0.8,0.9-1.8,0.9-2.9c0-1.5-0.6-2.9-1.6-3.8l22.8-34.8c0.2,0.1,0.5,0.3,0.8,0.3L148.6,598.1z M125.5,569.2
			c-0.6-0.3-1.3-0.4-2.1-0.4c-0.2,0-0.4,0-0.6,0l-9.4-30.7c1.5-0.8,2.5-2.3,2.7-4l31.1-2c0.2,0.8,0.6,1.5,1.1,2.1L125.5,569.2z
			 M123.5,579.3l8.6,52.9c-1.3,0.4-2.3,1.3-3,2.4l-50.6-18.2c0-0.3,0.1-0.6,0.1-0.9c0-1-0.3-1.8-0.7-2.6l42-35.1
			C120.7,578.7,122,579.3,123.5,579.3z M128.4,636.4c0,0.3-0.1,0.6-0.1,0.9c0,0.1,0,0.2,0,0.3l-24.8,6.2c-0.9-1.4-2.6-2.3-4.4-2.3
			c-0.9,0-1.8,0.2-2.5,0.6l-19.4-23.1c0.2-0.2,0.4-0.5,0.5-0.7L128.4,636.4z M95.2,643.2c-0.8,0.9-1.3,2.1-1.3,3.5
			c0,2.2,1.4,4.1,3.3,4.9l-3.4,37.8l-18.3-69.1c0.1-0.1,0.2-0.1,0.4-0.2L95.2,643.2z M138.6,639.1c0.1-0.4,0.2-0.8,0.3-1.2l31.2-1.9
			c0.7,2.2,2.7,3.8,5.1,3.8c0.6,0,1.2-0.1,1.7-0.3l17.8,32.3c-0.1,0.1-0.2,0.1-0.3,0.2L138.6,639.1z M199.8,671.1l9.9-40.8
			c0.1,0,0.2,0,0.3,0c2.5,0,4.6-1.8,5.2-4.2l44.8,1.5c0.1,0.5,0.2,1.1,0.4,1.6l-59,42.9C201,671.7,200.4,671.3,199.8,671.1z
			 M208.2,620c-1.2,0.4-2.1,1.3-2.7,2.3l-50.6-18.2c0-0.3,0.1-0.6,0.1-0.9c0-1-0.3-1.9-0.7-2.6l41.2-35c0.9,0.8,2,1.3,3.2,1.3
			L208.2,620z M195,558.2l-37.9-24.9c0.4-0.7,0.6-1.6,0.6-2.4c0-0.1,0-0.2,0-0.3l24.8-6.1c0.8,1.8,2.7,3.1,4.8,3.1
			c0.2,0,0.3,0,0.5,0l8.4,29.6C195.8,557.4,195.4,557.8,195,558.2z M182.1,522.6l-24.8,6.1c-0.8-1.8-2.7-3.1-4.8-3.1
			c-0.8,0-1.6,0.2-2.4,0.6l-19.8-23.5c0.1-0.2,0.2-0.3,0.3-0.5l51.8,18.2c-0.2,0.6-0.4,1.2-0.4,1.9
			C182.1,522.4,182.1,522.5,182.1,522.6z M148.6,527.2c-0.8,0.8-1.3,1.8-1.4,3l-31.1,2c-0.3-1.3-1.1-2.4-2.2-3.1l10.9-24.5
			c0.4,0.1,0.8,0.2,1.2,0.2c1.1,0,2.1-0.3,2.9-0.9L148.6,527.2z M108.2,529c-0.7,0.5-1.3,1.1-1.8,1.8l-50.6-18.2
			c0-0.3,0.1-0.6,0.1-0.9c0-1-0.3-1.9-0.7-2.6l41.4-34.8c0.9,0.7,2,1.2,3.2,1.2L108.2,529z M105.8,532.6c0,0.3-0.1,0.6-0.1,0.9
			c0,0.5,0.1,1,0.2,1.5L81,541.2c-0.7-2.1-2.7-3.5-5-3.5c-1.1,0-2.1,0.3-2.9,0.9l-19.3-22.6c0.5-0.4,1-0.9,1.3-1.5L105.8,532.6z
			 M71.8,539.8c-0.6,0.9-1,1.9-1,3.1c0,1.2,0.4,2.3,1,3.1l-26.3,29c-0.4-0.2-0.8-0.4-1.2-0.5l6.7-57.5c0.4,0,0.8-0.1,1.2-0.2
			L71.8,539.8z M48.1,580.7l33.3,0.2c0.6,2.3,2.6,4,5.1,4c2.9,0,5.3-2.4,5.3-5.3c0,0,0-0.1,0-0.1l26.7-3.5c0,0.1,0.1,0.1,0.1,0.2
			l-42.1,35.2c-0.9-0.8-2.1-1.2-3.4-1.2c-1,0-1.9,0.3-2.7,0.7l-23.7-27.7C47.5,582.5,47.9,581.7,48.1,580.7z M94.2,700.1l8.7,53
			c-1.1,0.4-2,1.1-2.6,2l-50.9-17.9c0-0.3,0.1-0.6,0.1-0.8c0-0.9-0.2-1.8-0.7-2.6l42.1-34.9C91.8,699.6,92.9,700.1,94.2,700.1z
			 M47.6,732.3c-0.2-0.2-0.5-0.3-0.7-0.5l9.4-25.2c0.3,0.1,0.6,0.1,0.9,0.1c2.9,0,5.3-2.4,5.3-5.3l26.8-4.8c0.1,0.3,0.2,0.5,0.3,0.8
			L47.6,732.3z M68.5,763.5c-0.8,0-1.6,0.2-2.3,0.5l-18.3-24c0.3-0.3,0.6-0.7,0.9-1.1l50.7,17.9c-0.1,0.4-0.1,0.8-0.1,1.2
			c0,0.2,0,0.4,0,0.6l-26.2,7.7C72.3,764.6,70.5,763.5,68.5,763.5z M94.9,794.4c-1.1,0-2.1,0.3-3,0.9l-19.4-23.2
			c0.8-0.9,1.2-2.1,1.2-3.4c0-0.2,0-0.5-0.1-0.7l26.2-7.7c0.6,1.1,1.5,2,2.6,2.5l-7.4,31.6C95,794.4,95,794.4,94.9,794.4z
			 M154.5,798.6l-54.3,0.1c-0.3-1.8-1.6-3.3-3.2-3.9l7.4-31.5c0.1,0,0.2,0,0.3,0c2.9,0,5.3-2.4,5.3-5.3c0-1.8-0.9-3.4-2.3-4.4
			l10.1-22.7c0.5,0.2,1.1,0.3,1.7,0.3c0.6,0,1.1-0.1,1.7-0.3l35.2,64.6C155.4,796.3,154.7,797.4,154.5,798.6z M157.9,794.5
			l-35.1-64.5c0.1-0.1,0.3-0.2,0.4-0.4l23.8,16.7c-0.3,0.7-0.5,1.4-0.5,2.2c0,2.9,2.3,5.2,5.1,5.3L157.9,794.5z M153.5,743.6
			c-0.5-0.2-1.1-0.3-1.8-0.3c-1.4,0-2.8,0.6-3.7,1.5l-23.8-16.7c0.3-0.7,0.5-1.4,0.5-2.2c0-0.8-0.2-1.6-0.5-2.2l69.6-44.2
			c0.1,0.1,0.2,0.2,0.3,0.3L153.5,743.6z M206.7,746l-26.9,28.1c-0.8-0.5-1.7-0.8-2.8-0.8c-1.1,0-2.1,0.3-2.9,0.9L155.8,752
			c0.8-0.9,1.3-2.1,1.3-3.4c0-1.2-0.4-2.3-1.1-3.2l25.8-28.6c0.8,0.5,1.8,0.8,2.8,0.8c1,0,1.9-0.3,2.7-0.7l19.6,22.8
			c-0.7,0.9-1.2,2.1-1.2,3.3C205.7,744.1,206.1,745.2,206.7,746z M211,737.6c-1,0-1.9,0.3-2.7,0.7l-19.6-22.8
			c0.2-0.2,0.4-0.5,0.5-0.8l50.5,17c0,0.2-0.1,0.5-0.1,0.8c0,0.2,0,0.4,0,0.6l-24,7.3C214.8,738.8,213,737.6,211,737.6z
			 M252.2,774.1l-26.5,4.8c-0.4-2.5-2.6-4.4-5.2-4.4c-0.1,0-0.3,0-0.4,0l-6.8-26.7c1.8-0.8,3.1-2.7,3.1-4.8c0-0.2,0-0.4,0-0.6
			l24-7.3c0.9,1.7,2.6,2.9,4.7,2.9c0.2,0,0.4,0,0.6,0l9.3,31.7C253.2,770.4,252.2,772.1,252.2,774.1z M281.6,799l-20-21.8
			c0.7-0.9,1.1-2,1.1-3.2c0-2.9-2.4-5.3-5.3-5.3c-0.3,0-0.6,0-0.9,0.1l-9.2-31.6c1.5-0.8,2.6-2.3,2.9-4l32.1-1.6
			c0.4,2,1.9,3.7,4,4.2l-3.6,63C282.3,798.8,281.9,798.9,281.6,799z M286.7,799.9c-0.6-0.5-1.4-0.9-2.2-1.1l3.6-62.9
			c1-0.1,1.9-0.5,2.6-1.1l38.2,24.7c-0.3,0.7-0.5,1.5-0.5,2.3c0,1,0.3,1.9,0.7,2.6L286.7,799.9z M330.1,758L292,733.4
			c0.5-0.8,0.8-1.7,0.8-2.7c0-0.1,0-0.2,0-0.2l23.9-6.3c0.9,1.7,2.7,2.9,4.7,2.9c0.2,0,0.3,0,0.5,0l9.9,30
			C331.1,757.2,330.5,757.6,330.1,758z M335.7,693.2c0.1,0,0.3,0.1,0.4,0.1l-3.3,61.1l-9.2-28c1.8-0.9,3-2.7,3-4.8
			c0-1.8-0.9-3.5-2.4-4.4L335.7,693.2z M314.1,662.3l19.3,22.6c-0.7,0.9-1.2,2.1-1.2,3.3c0,1.7,0.8,3.1,2,4.1l-11.5,24.2
			c-0.4-0.1-0.8-0.1-1.2-0.1c0,0-0.1,0-0.1,0l-8.6-53.4C313.2,662.9,313.6,662.6,314.1,662.3z M307.5,662.1c0.9,0.8,2.1,1.2,3.3,1.3
			l8.6,53.5c-1,0.4-1.8,1.1-2.4,1.9l-51.8-18.3c0-0.3,0.1-0.6,0.1-0.8c0-0.9-0.2-1.8-0.7-2.6L307.5,662.1z M265.3,632.3
			c1.4,0,2.6-0.6,3.5-1.4l37.2,25c-0.3,0.6-0.4,1.4-0.4,2.1c0,0.9,0.2,1.8,0.7,2.6l-42.8,34.9c-0.7-0.6-1.6-1-2.5-1.2L265.3,632.3z
			 M262.9,631.8c0.2,0.1,0.4,0.2,0.6,0.2l-4.4,62.3c-0.9,0.2-1.6,0.5-2.3,1.1l-18.4-21.8c0.8-0.9,1.2-2.1,1.2-3.4
			c0-1.4-0.6-2.7-1.5-3.7L262.9,631.8z M236.5,665.5c-0.7-0.3-1.4-0.5-2.2-0.5c-2.9,0-5.3,2.4-5.3,5.3c0,0.1,0,0.2,0,0.3l-26.1,4
			c-0.1-0.4-0.2-0.7-0.4-1l58.6-42.6L236.5,665.5z M225.6,597.3c1.2,0,2.3-0.4,3.2-1.1l31.7,28.5c-0.2,0.3-0.3,0.7-0.4,1.1
			l-44.8-1.5c-0.2-1.5-1-2.7-2.2-3.5l11.1-23.6C224.7,597.2,225.1,597.3,225.6,597.3z M203.1,495.3l20.5,91.8
			c-0.4,0.2-0.7,0.3-1,0.6L203.1,565c0.7-0.9,1.2-2.1,1.2-3.4c0-2.5-1.7-4.6-4.1-5.1L203.1,495.3z M198.3,556.5c-0.1,0-0.1,0-0.2,0
			l-8.4-29.5c1.7-0.9,3-2.7,3-4.7c0-1.8-0.9-3.3-2.2-4.3l10.7-22.7L198.3,556.5z M178.8,462.7l19.6,22.2c-0.7,0.9-1.2,2.1-1.2,3.3
			c0,2.1,1.2,3.9,3,4.8l-11.5,24.2c-0.4-0.1-0.9-0.2-1.3-0.2l-9.6-53.9C178.2,463,178.5,462.8,178.8,462.7z M172.5,461.7
			c0.9,0.9,2.1,1.5,3.4,1.6l9.6,54c-0.8,0.3-1.5,0.8-2.1,1.4l-52.2-18.4c0-0.3,0.1-0.6,0.1-0.8c0-1-0.3-1.8-0.7-2.6L172.5,461.7z
			 M129.9,432.8c1.3,0,2.4-0.5,3.3-1.2l38.1,24.9c-0.2,0.5-0.2,1-0.2,1.6c0,0.8,0.2,1.5,0.4,2.1l-42,35.3c-0.6-0.5-1.4-0.9-2.2-1.1
			L129.9,432.8z M127.3,432.1c0.2,0.1,0.5,0.2,0.7,0.3l-2.6,61.8c-0.9,0.1-1.7,0.4-2.3,0.9l-19-21.7c0.7-0.9,1.2-2,1.2-3.3
			c0-1.5-0.6-2.8-1.6-3.7L127.3,432.1z M125.7,430.8c0,0,0.1,0.1,0.1,0.1l-23.7,34.5c-0.7-0.3-1.4-0.5-2.2-0.5c-2.8,0-5,2.1-5.3,4.8
			l-34.4-0.6c-0.1-0.3-0.1-0.6-0.2-0.9L125.7,430.8z M55.5,475.3c2.4-0.2,4.3-1.9,4.8-4.2l34.6,0.6c0.1,0.4,0.3,0.8,0.5,1.2
			L54,507.7c-0.5-0.5-1.2-0.8-1.9-1L55.5,475.3z M53.2,475c0.1,0.1,0.3,0.1,0.4,0.1l-3.4,31.4c-2.7,0.2-4.9,2.5-4.9,5.3
			c0,1.2,0.4,2.3,1.1,3.2l-25.3,28.2L53.2,475z M40.2,575.2L21.5,552c0.8-0.9,1.3-2.1,1.3-3.5c0-1.2-0.4-2.3-1.1-3.2l26.1-29.1
			c0.4,0.2,0.8,0.4,1.2,0.6l-6.7,57.6C41.6,574.5,40.8,574.8,40.2,575.2z M41.4,631.2c0.8-0.9,1.2-2.1,1.2-3.4c0-1.9-1-3.6-2.5-4.5
			l3.1-38.3c0.8,0,1.5-0.2,2.1-0.6l23.8,27.8c-0.7,0.9-1.2,2.1-1.2,3.3c0,2.2,1.3,4.1,3.2,4.9l-7.3,33.2c-0.1,0-0.1,0-0.2,0
			c-1,0-1.9,0.3-2.7,0.7L41.4,631.2z M59.8,662.6c1,1,2.3,1.7,3.9,1.7c1,0,1.9-0.3,2.7-0.7l23.8,27.9c-0.7,0.9-1.2,2.1-1.2,3.3
			l-26.8,4.8c-0.7-2-2.7-3.4-5-3.4c-2.6,0-4.7,1.8-5.2,4.3l-25.7-13.3c0.2-0.5,0.3-1.1,0.3-1.7c0-0.4-0.1-0.9-0.2-1.3L59.8,662.6z
			 M1,655.1l57.4,4.4c0.1,0.5,0.2,1,0.4,1.5l-33.1,21.4c-1-1.4-2.5-2.3-4.3-2.3c-0.9,0-1.8,0.2-2.5,0.6L0,657.4
			C0.5,656.8,0.9,656,1,655.1z M-2.9,659.4c0.5-0.1,1-0.4,1.5-0.6l18.7,23.2c-0.8,0.9-1.3,2.1-1.3,3.5c0,1.8,0.9,3.5,2.4,4.4
			L7.6,712.4c-0.4-0.1-0.9-0.2-1.3-0.2L-2.9,659.4z M6,722.7c0.1,0,0.2,0,0.3,0c1.7,0,3.3-0.8,4.2-2.1l28.6,14.2
			c-0.1,0.5-0.2,1-0.2,1.5c0,0.5,0.1,0.9,0.2,1.4l-37.9,18c-0.6-0.8-1.5-1.4-2.4-1.7L6,722.7z M-24.3,727.4c0-0.4,0-0.7-0.1-1.1
			l25.9-6.6c0.5,1.2,1.5,2.1,2.7,2.6l-7.3,31.4c-0.8,0-1.6,0.2-2.3,0.6L-25.8,731C-24.9,730.1-24.3,728.8-24.3,727.4z M-28.5,732.5
			c0.4-0.1,0.7-0.2,1.1-0.4l20.5,23.3c-0.8,0.9-1.3,2.2-1.3,3.5c0,1.7,0.8,3.2,2,4.1l-11.6,22.7c-0.2,0-0.3,0-0.5,0
			c-0.2,0-0.4,0-0.6,0L-28.5,732.5z"/>
	</g>
	<g>
		<path class="st12" d="M374.5,665.6h12.2c9.7,0,16.5,6.2,16.5,15.5c0,9.3-6.7,15.5-16.5,15.5h-12.2V665.6z M386.8,690.8
			c6.1,0,9.7-4.4,9.7-9.7c0-5.5-3.3-9.7-9.7-9.7h-5.6v19.4H386.8z"/>
		<path class="st12" d="M407.2,667.7c0-2,1.6-3.5,3.5-3.5c2,0,3.5,1.6,3.5,3.5c0,2-1.6,3.5-3.5,3.5
			C408.8,671.2,407.2,669.7,407.2,667.7z M407.8,674.1h5.9v22.5h-5.9V674.1z"/>
		<path class="st12" d="M420.1,689.5c1.6,1.5,5,3.1,7.8,3.1c2.6,0,3.8-0.9,3.8-2.3c0-1.6-2-2.1-4.5-2.7c-3.9-0.7-8.8-1.7-8.8-7
			c0-3.8,3.3-7.1,9.2-7.1c3.8,0,6.8,1.3,9,3.1l-2.3,4c-1.3-1.4-3.9-2.6-6.7-2.6c-2.1,0-3.5,0.8-3.5,2.1c0,1.4,1.8,1.9,4.3,2.4
			c3.9,0.7,9,1.8,9,7.3c0,4.1-3.5,7.2-9.7,7.2c-3.9,0-7.7-1.3-10-3.5L420.1,689.5z"/>
		<path class="st12" d="M452.2,673.6c4.6,0,7.4,2,8.9,4.1l-3.9,3.6c-1.1-1.5-2.7-2.4-4.7-2.4c-3.6,0-6.1,2.6-6.1,6.5
			c0,3.9,2.5,6.6,6.1,6.6c2,0,3.7-0.9,4.7-2.4l3.9,3.6c-1.5,2.1-4.3,4.1-8.9,4.1c-6.9,0-11.9-4.9-11.9-11.8
			C440.3,678.5,445.2,673.6,452.2,673.6z"/>
		<path class="st12" d="M463.5,685.3c0-6.4,4.5-11.8,11.9-11.8c7.4,0,11.9,5.4,11.9,11.8c0,6.4-4.5,11.8-11.9,11.8
			C467.9,697.2,463.5,691.8,463.5,685.3z M481.1,685.3c0-3.5-2.1-6.5-5.8-6.5c-3.7,0-5.7,3-5.7,6.5c0,3.5,2,6.6,5.7,6.6
			C479,691.9,481.1,688.9,481.1,685.3z"/>
		<path class="st12" d="M506.8,693.8c-1.5,1.7-4.2,3.4-7.9,3.4c-4.9,0-7.3-2.7-7.3-7.1v-16h5.9v13.6c0,3.1,1.6,4.1,4.1,4.1
			c2.3,0,4.1-1.3,5.1-2.6v-15.2h5.9v22.5h-5.9V693.8z"/>
		<path class="st12" d="M533.7,683c0-3.1-1.6-4.2-4.1-4.2c-2.3,0-4.1,1.3-5.1,2.7v15.1h-5.9v-22.5h5.9v2.9c1.4-1.7,4.2-3.5,7.9-3.5
			c4.9,0,7.3,2.8,7.3,7.2v15.9h-5.9V683z"/>
		<path class="st12" d="M546.6,691v-11.7h-3.7v-5.2h3.7V668h6v6.1h4.6v5.2h-4.6v10.1c0,1.4,0.7,2.5,2,2.5c0.9,0,1.7-0.3,2-0.7
			l1.3,4.5c-0.9,0.8-2.5,1.4-4.9,1.4C548.9,697.2,546.6,695,546.6,691z"/>
		<path class="st12" d="M571.7,681.1c0-9.5,7.2-16,16.3-16c7.1,0,11,3.7,13.2,7.6l-5.7,2.8c-1.3-2.5-4.1-4.5-7.5-4.5
			c-5.4,0-9.5,4.3-9.5,10.2c0,5.9,4.1,10.2,9.5,10.2c3.4,0,6.2-2,7.5-4.5l5.7,2.7c-2.2,3.9-6.1,7.6-13.2,7.6
			C578.9,697.2,571.7,690.6,571.7,681.1z"/>
		<path class="st12" d="M603.6,685.3c0-6.4,4.5-11.8,11.9-11.8c7.4,0,11.9,5.4,11.9,11.8c0,6.4-4.5,11.8-11.9,11.8
			C608.1,697.2,603.6,691.8,603.6,685.3z M621.2,685.3c0-3.5-2.1-6.5-5.8-6.5c-3.7,0-5.7,3-5.7,6.5c0,3.5,2,6.6,5.7,6.6
			C619.1,691.9,621.2,688.9,621.2,685.3z"/>
		<path class="st12" d="M647.2,693.8c-1.8,2.2-4.2,3.4-6.9,3.4c-5.7,0-10-4.3-10-11.8c0-7.3,4.2-11.8,10-11.8c2.7,0,5.2,1.2,6.9,3.4
			v-11.4h6v31h-6V693.8z M647.2,681.4c-1-1.5-3.1-2.6-5.1-2.6c-3.3,0-5.7,2.7-5.7,6.6c0,3.9,2.3,6.5,5.7,6.5c2,0,4.1-1.1,5.1-2.6
			V681.4z"/>
		<path class="st12" d="M669.2,673.6c6.7,0,11.3,5,11.3,12.4v1.3h-16.7c0.4,2.8,2.7,5.2,6.5,5.2c2.1,0,4.6-0.8,6-2.2l2.6,3.8
			c-2.3,2.1-5.8,3.1-9.3,3.1c-6.8,0-12-4.6-12-11.8C657.5,678.8,662.3,673.6,669.2,673.6z M663.6,683.2h11.1c-0.1-2.1-1.6-5-5.5-5
			C665.5,678.3,663.9,681,663.6,683.2z"/>
		<path class="st12" d="M687.7,673.8c2,0,3.8,1.7,3.8,3.8s-1.7,3.8-3.8,3.8c-2,0-3.8-1.7-3.8-3.8S685.7,673.8,687.7,673.8z
			 M687.7,689.6c2,0,3.8,1.7,3.8,3.8c0,2-1.7,3.8-3.8,3.8c-2,0-3.8-1.7-3.8-3.8C683.9,691.3,685.7,689.6,687.7,689.6z"/>
		<path class="st12" d="M709,691.2c1.9,2.3,5.2,4.6,9.6,4.6c7.2,0,9-4.1,9-7c0-5-4.5-6.4-9.1-7.7c-4.8-1.3-9.7-2.7-9.7-8.1
			c0-5,4.6-7.9,9.7-7.9c4.6,0,7.9,1.7,10,4.4l-1.2,1.1c-2.2-2.8-5.3-4-8.9-4c-4.5,0-8.1,2.7-8.1,6.5c0,4.2,4.2,5.3,8.6,6.6
			c5,1.4,10.2,3,10.2,9.2c0,3.5-2.2,8.4-10.6,8.4c-4.8,0-8.6-2.1-10.8-4.9L709,691.2z"/>
		<path class="st12" d="M745.5,673.6c3.7,0,5.8,1.4,7.7,3.8l-1,0.8c-1.8-2.5-4-3.3-6.6-3.3c-5.8,0-9.2,4.7-9.2,10.5
			s3.4,10.6,9.2,10.6c2.6,0,4.7-0.9,6.6-3.4l1,0.9c-1.9,2.4-4,3.8-7.7,3.8c-6.5,0-10.6-5.3-10.6-11.8
			C734.9,678.9,739,673.6,745.5,673.6z"/>
		<path class="st12" d="M773.5,693.8c-2.1,2.3-4.6,3.3-7.8,3.3c-4,0-7.9-2.7-7.9-7.5c0-4.8,3.9-7.5,7.9-7.5c3.2,0,5.7,1,7.8,3.3
			v-5.1c0-3.6-2.9-5.6-6.3-5.6c-2.9,0-5.1,1-7.2,3.5l-1.1-0.9c2.2-2.6,4.5-3.9,8.3-3.9c4.4,0,7.7,2.2,7.7,6.8v16.2h-1.4V693.8z
			 M773.5,686.9c-1.7-2.3-4.5-3.4-7.4-3.4c-4.1,0-6.7,2.7-6.7,6.2c0,3.5,2.6,6.2,6.7,6.2c2.9,0,5.7-1.2,7.4-3.4V686.9z"/>
		<path class="st12" d="M782.9,665.6h1.4v31h-1.4V665.6z"/>
		<path class="st12" d="M806.8,693.8c-2.1,2.3-4.6,3.3-7.8,3.3c-4,0-7.9-2.7-7.9-7.5c0-4.8,3.9-7.5,7.9-7.5c3.2,0,5.7,1,7.8,3.3
			v-5.1c0-3.6-2.9-5.6-6.3-5.6c-2.9,0-5.1,1-7.2,3.5l-1.1-0.9c2.2-2.6,4.5-3.9,8.3-3.9c4.4,0,7.7,2.2,7.7,6.8v16.2h-1.4V693.8z
			 M806.8,686.9c-1.7-2.3-4.5-3.4-7.4-3.4c-4.1,0-6.7,2.7-6.7,6.2c0,3.5,2.6,6.2,6.7,6.2c2.9,0,5.7-1.2,7.4-3.4V686.9z"/>
		<path class="st12" d="M812.1,698.5h26.5v1.4h-26.5V698.5z"/>
		<path class="st12" d="M842.5,665.6h11.7c5,0,8.5,2.8,8.5,7.9c0,3.9-2.7,6.6-5.5,7.1c3.3,0.5,6.1,4,6.1,7.6c0,5.3-3.4,8.4-8.9,8.4
			h-11.9V665.6z M854.2,679.9c4.6,0,6.8-2.9,6.8-6.5c0-3.5-2.3-6.5-6.8-6.5H844v13H854.2z M854.4,695.2c4.6,0,7.3-2.7,7.3-6.9
			c0-3.5-2.4-6.9-7.3-6.9H844v13.9H854.4z"/>
		<path class="st12" d="M879.7,673.6c6.9,0,10.4,5.5,10.4,11.8v0.5h-19.4c0.1,5.5,3.7,10.1,9.4,10.1c3.2,0,5.7-1.2,7.8-3.4l0.8,0.9
			c-2.3,2.4-4.9,3.8-8.6,3.8c-6.5,0-11-5-11-11.8C869.1,678.8,873.6,673.6,879.7,673.6z M870.7,684.5h17.9c0-4.3-2.8-9.7-9-9.7
			C873.9,674.8,870.8,680.1,870.7,684.5z"/>
		<path class="st12" d="M896.9,674.1h1.4v4.1c2-2.7,4.5-4.5,7.7-4.5v1.7c-0.4,0-0.7,0-1.1,0c-2.4,0-5.6,2.3-6.6,4.4v16.8h-1.4V674.1
			z"/>
		<path class="st12" d="M911,665.6h1.4v31H911V665.6z"/>
		<path class="st12" d="M919.8,668.9c0-0.7,0.7-1.3,1.3-1.3c0.7,0,1.3,0.6,1.3,1.3c0,0.7-0.6,1.3-1.3,1.3
			C920.4,670.3,919.8,669.7,919.8,668.9z M920.4,674.1h1.4v22.5h-1.4V674.1z"/>
		<path class="st12" d="M945,680.9c0-4.7-2.3-6.1-5.8-6.1c-3.1,0-6.4,2-8,4.2v17.5h-1.4v-22.5h1.4v3.5c1.7-2,5-4.1,8.1-4.1
			c4.5,0,7,2,7,7.3v15.7H945V680.9z"/>
		<path class="st12" d="M950.2,698.5h26.5v1.4h-26.5V698.5z"/>
		<path class="st12" d="M1006.8,667.3l-12.1,29.3h-0.5l-12.1-29.3v29.3h-1.5v-31h2.4l11.4,27.8l11.4-27.8h2.4v31h-1.5V667.3z"/>
		<path class="st12" d="M1025.7,673.6c6.9,0,10.4,5.5,10.4,11.8v0.5h-19.4c0.1,5.5,3.7,10.1,9.4,10.1c3.2,0,5.7-1.2,7.8-3.4l0.8,0.9
			c-2.3,2.4-4.9,3.8-8.7,3.8c-6.5,0-11-5-11-11.8C1015.2,678.8,1019.7,673.6,1025.7,673.6z M1016.8,684.5h17.9c0-4.3-2.8-9.7-9-9.7
			C1019.9,674.8,1016.9,680.1,1016.8,684.5z"/>
		<path class="st12" d="M1052.3,673.6c6.9,0,10.4,5.5,10.4,11.8v0.5h-19.4c0.1,5.5,3.7,10.1,9.4,10.1c3.2,0,5.7-1.2,7.8-3.4l0.8,0.9
			c-2.3,2.4-4.9,3.8-8.6,3.8c-6.5,0-11-5-11-11.8C1041.7,678.8,1046.2,673.6,1052.3,673.6z M1043.3,684.5h17.9c0-4.3-2.8-9.7-9-9.7
			C1046.5,674.8,1043.4,680.1,1043.3,684.5z"/>
		<path class="st12" d="M1069.8,692.6v-17.3h-3.7v-1.3h3.7V668h1.4v6.1h4.6v1.3h-4.6v17.3c0,1.9,0.7,3.3,2.4,3.3
			c1.1,0,2.1-0.6,2.7-1.2l0.8,1.1c-0.9,0.8-1.8,1.4-3.5,1.4C1071,697.2,1069.8,695.4,1069.8,692.6z"/>
		<path class="st12" d="M1096.6,693.2c-1.9,2.1-5,4-8.1,4c-4.5,0-7-2-7-7.3v-15.8h1.4v15.8c0,4.7,2.3,6,5.8,6c3.1,0,6.4-1.9,8-4.1
			v-17.7h1.4v22.5h-1.4V693.2z"/>
		<path class="st12" d="M1105.9,705.2v-31h1.4v3.8c1.5-2.3,4.6-4.3,8.1-4.3c6,0,10,4.7,10,11.8c0,7.1-4,11.8-10,11.8
			c-3.3,0-6.3-1.8-8.1-4.4v12.4H1105.9z M1115.4,674.8c-3.5,0-6.7,2.1-8.1,4.5v12c1.4,2.4,4.6,4.6,8.1,4.6c5.5,0,8.5-4.7,8.5-10.6
			S1120.9,674.8,1115.4,674.8z"/>
	</g>
	<g>
		<path class="st7" d="M505.6,575.6c0-3.6-1.8-4.7-4.6-4.7c-2.5,0-4.8,1.5-6,3.2v15.6h-4.1v-30.1h4.1v11.4c1.4-1.8,4.4-3.6,7.7-3.6
			c4.6,0,7,2.3,7,6.9v15.4h-4.1V575.6z"/>
		<path class="st7" d="M516.9,584.7v-13.4h-3.6v-3.6h3.6v-5.9h4.1v5.9h4.4v3.6H521v12.5c0,1.5,0.7,2.7,2.1,2.7
			c0.9,0,1.8-0.4,2.2-0.9l1,3.1c-0.9,0.8-2.1,1.4-4.2,1.4C518.7,590.1,516.9,588.2,516.9,584.7z"/>
		<path class="st7" d="M530.7,584.7v-13.4h-3.6v-3.6h3.6v-5.9h4.1v5.9h4.4v3.6h-4.4v12.5c0,1.5,0.7,2.7,2.1,2.7
			c0.9,0,1.8-0.4,2.2-0.9l1,3.1c-0.9,0.8-2.1,1.4-4.2,1.4C532.5,590.1,530.7,588.2,530.7,584.7z"/>
		<path class="st7" d="M543.7,597.9v-30.1h4.1v3.1c1.6-2.2,4.2-3.7,7.1-3.7c5.7,0,9.7,4.3,9.7,11.4c0,7.1-4,11.4-9.7,11.4
			c-2.8,0-5.4-1.3-7.1-3.7v11.4H543.7z M553.8,570.9c-2.5,0-5,1.4-6,3.2v9.2c1.1,1.7,3.6,3.2,6,3.2c4.1,0,6.5-3.3,6.5-7.8
			C560.3,574.2,557.9,570.9,553.8,570.9z"/>
		<path class="st7" d="M569.8,583.8c1.5,1.6,4.4,3.1,7.3,3.1c3.1,0,4.7-1.3,4.7-3.1c0-2.2-2.5-2.9-5.3-3.5c-3.7-0.9-8-1.8-8-6.5
			c0-3.5,3-6.4,8.3-6.4c3.7,0,6.4,1.4,8.3,3.1l-1.8,2.8c-1.3-1.5-3.7-2.7-6.4-2.7s-4.5,1.1-4.5,2.8c0,1.9,2.3,2.5,5,3.2
			c3.8,0.9,8.3,1.9,8.3,6.9c0,3.7-3.1,6.7-8.8,6.7c-3.7,0-6.9-1.1-9.1-3.4L569.8,583.8z"/>
		<path class="st7" d="M592.9,567.5c1.5,0,2.8,1.3,2.8,2.8c0,1.5-1.3,2.8-2.8,2.8s-2.8-1.3-2.8-2.8
			C590.1,568.8,591.3,567.5,592.9,567.5z M592.9,584.4c1.5,0,2.8,1.3,2.8,2.8c0,1.5-1.3,2.8-2.8,2.8s-2.8-1.3-2.8-2.8
			C590.1,585.7,591.3,584.4,592.9,584.4z"/>
		<path class="st7" d="M609,558.6h3.1l-10.7,31.9h-3.1L609,558.6z"/>
		<path class="st7" d="M622.8,558.6h3.1l-10.7,31.9h-3.1L622.8,558.6z"/>
		<path class="st7" d="M630.9,592.2c1.8,2.1,4,2.9,7,2.9c3.4,0,6.8-1.6,6.8-6.2V586c-1.7,2.2-4.2,3.7-7.2,3.7
			c-5.6,0-9.7-4.1-9.7-11.3c0-7,4.1-11.2,9.7-11.2c2.8,0,5.4,1.4,7.2,3.7v-3.2h4.1v20.9c0,7.5-5.5,9.7-10.8,9.7
			c-3.7,0-6.3-0.8-8.9-3.2L630.9,592.2z M644.6,574.1c-1.1-1.8-3.6-3.2-6-3.2c-4.1,0-6.6,3.2-6.6,7.6c0,4.5,2.5,7.7,6.6,7.7
			c2.4,0,4.9-1.5,6-3.2V574.1z"/>
		<path class="st7" d="M655.1,567.8h4.1v3.3c1.7-2.2,4.2-3.8,7.1-3.8v4.1c-0.4-0.1-0.9-0.1-1.4-0.1c-2,0-4.8,1.5-5.7,3.2v15.1h-4.1
			V567.8z"/>
		<path class="st7" d="M683.8,587.2c-1.7,1.9-4.2,2.9-7.1,2.9c-3.6,0-7.6-2.4-7.6-7.2c0-5,3.9-7.1,7.6-7.1c2.9,0,5.5,0.9,7.1,2.9
			v-3.6c0-2.7-2.2-4.3-5.3-4.3c-2.5,0-4.6,0.9-6.5,2.9l-1.8-2.8c2.4-2.4,5.4-3.6,8.9-3.6c4.7,0,8.7,2.1,8.7,7.6v14.7h-4.1V587.2z
			 M683.8,581.1c-1.2-1.6-3.3-2.5-5.6-2.5c-2.9,0-5,1.8-5,4.3s2.1,4.3,5,4.3c2.3,0,4.4-0.9,5.6-2.5V581.1z"/>
		<path class="st7" d="M694.4,597.9v-30.1h4.1v3.1c1.6-2.2,4.2-3.7,7.1-3.7c5.7,0,9.7,4.3,9.7,11.4c0,7.1-4,11.4-9.7,11.4
			c-2.8,0-5.4-1.3-7.1-3.7v11.4H694.4z M704.4,570.9c-2.5,0-5,1.4-6,3.2v9.2c1.1,1.7,3.6,3.2,6,3.2c4.1,0,6.5-3.3,6.5-7.8
			C711,574.2,708.5,570.9,704.4,570.9z"/>
		<path class="st7" d="M735.1,575.6c0-3.6-1.8-4.7-4.6-4.7c-2.5,0-4.8,1.5-6,3.2v15.6h-4.1v-30.1h4.1v11.4c1.4-1.8,4.4-3.6,7.7-3.6
			c4.6,0,7,2.3,7,6.9v15.4h-4.1V575.6z"/>
		<path class="st7" d="M761.1,597.9v-11.4c-1.8,2.4-4.3,3.7-7.2,3.7c-5.7,0-9.7-4.3-9.7-11.4c0-7.1,4-11.4,9.7-11.4
			c2.9,0,5.5,1.5,7.2,3.7v-3.1h4.1v30.1H761.1z M761.1,574.1c-1.1-1.8-3.6-3.2-6-3.2c-4.1,0-6.6,3.3-6.6,7.8c0,4.6,2.5,7.8,6.6,7.8
			c2.4,0,4.9-1.5,6-3.2V574.1z"/>
		<path class="st7" d="M771.6,559.5h4.1v30.1h-4.1V559.5z"/>
		<path class="st7" d="M780.2,576.9H791v3.5h-10.8V576.9z"/>
		<path class="st7" d="M805.2,567.3c6.5,0,10.6,5.1,10.6,11.8v1h-17.2c0.3,3.7,3,6.8,7.4,6.8c2.3,0,4.8-0.9,6.4-2.6l1.9,2.7
			c-2.2,2.1-5.2,3.2-8.7,3.2c-6.5,0-11.3-4.6-11.3-11.4C794.3,572.4,798.8,567.3,805.2,567.3z M798.5,577.1h13.3
			c-0.1-2.9-2-6.5-6.6-6.5C800.8,570.6,798.8,574.1,798.5,577.1z"/>
		<path class="st7" d="M835.6,586.6c-1.7,1.8-4.4,3.5-7.8,3.5c-4.6,0-6.9-2.3-6.9-6.9v-15.4h4.1v14c0,3.6,1.8,4.7,4.6,4.7
			c2.5,0,4.8-1.4,6-3.1v-15.6h4.1v21.8h-4.1V586.6z"/>
		<path class="st7" d="M846.1,567.8h4.1v3.3c1.7-2.2,4.2-3.8,7.1-3.8v4.1c-0.4-0.1-0.9-0.1-1.4-0.1c-2,0-4.8,1.5-5.7,3.2v15.1h-4.1
			V567.8z"/>
		<path class="st7" d="M860,578.7c0-6.3,4.2-11.4,11-11.4c6.8,0,11,5.1,11,11.4c0,6.3-4.2,11.4-11,11.4
			C864.2,590.1,860,585,860,578.7z M877.7,578.7c0-4.1-2.4-7.8-6.8-7.8c-4.3,0-6.8,3.7-6.8,7.8c0,4.1,2.4,7.8,6.8,7.8
			C875.3,586.5,877.7,582.8,877.7,578.7z"/>
		<path class="st7" d="M887.1,597.9v-30.1h4.1v3.1c1.6-2.2,4.2-3.7,7.1-3.7c5.7,0,9.7,4.3,9.7,11.4c0,7.1-4,11.4-9.7,11.4
			c-2.8,0-5.4-1.3-7.1-3.7v11.4H887.1z M897.2,570.9c-2.5,0-5,1.4-6,3.2v9.2c1.1,1.7,3.6,3.2,6,3.2c4.1,0,6.5-3.3,6.5-7.8
			C903.7,574.2,901.3,570.9,897.2,570.9z"/>
		<path class="st7" d="M922.7,567.3c6.5,0,10.6,5.1,10.6,11.8v1H916c0.3,3.7,3,6.8,7.4,6.8c2.3,0,4.8-0.9,6.4-2.6l1.9,2.7
			c-2.2,2.1-5.2,3.2-8.7,3.2c-6.5,0-11.3-4.6-11.3-11.4C911.8,572.4,916.3,567.3,922.7,567.3z M916,577.1h13.3
			c-0.1-2.9-2-6.5-6.6-6.5C918.3,570.6,916.2,574.1,916,577.1z"/>
		<path class="st7" d="M940.2,584.4c1.5,0,2.8,1.3,2.8,2.8c0,1.5-1.3,2.8-2.8,2.8c-1.5,0-2.8-1.3-2.8-2.8
			C937.4,585.7,938.6,584.4,940.2,584.4z"/>
		<path class="st7" d="M947.2,578.7c0-6.3,4.2-11.4,11-11.4c6.8,0,11,5.1,11,11.4c0,6.3-4.2,11.4-11,11.4
			C951.4,590.1,947.2,585,947.2,578.7z M965,578.7c0-4.1-2.4-7.8-6.8-7.8c-4.3,0-6.8,3.7-6.8,7.8c0,4.1,2.4,7.8,6.8,7.8
			C962.6,586.5,965,582.8,965,578.7z"/>
		<path class="st7" d="M974.3,567.8h4.1v3.3c1.7-2.2,4.2-3.8,7.1-3.8v4.1c-0.4-0.1-0.9-0.1-1.4-0.1c-2,0-4.8,1.5-5.7,3.2v15.1h-4.1
			V567.8z"/>
		<path class="st7" d="M991.3,592.2c1.8,2.1,4,2.9,7,2.9c3.4,0,6.8-1.6,6.8-6.2V586c-1.7,2.2-4.2,3.7-7.2,3.7
			c-5.6,0-9.7-4.1-9.7-11.3c0-7,4.1-11.2,9.7-11.2c2.8,0,5.4,1.4,7.2,3.7v-3.2h4.1v20.9c0,7.5-5.5,9.7-10.8,9.7
			c-3.7,0-6.3-0.8-8.9-3.2L991.3,592.2z M1005.1,574.1c-1.1-1.8-3.6-3.2-6-3.2c-4.1,0-6.6,3.2-6.6,7.6c0,4.5,2.5,7.7,6.6,7.7
			c2.4,0,4.9-1.5,6-3.2V574.1z"/>
	</g>
</g>
</svg>
